{"glyphs":{"0":{"ha":889,"x_min":0,"x_max":0,"o":"m 653 833 l 653 972 l 236 972 l 236 833 z m 97 139 l 236 139 l 236 833 l 97 833 z m 236 0 l 653 0 l 653 139 l 236 139 z m 653 139 l 792 139 l 792 833 l 653 833 z "},"1":{"ha":889,"x_min":0,"x_max":0,"o":"m 375 694 l 375 139 l 97 139 l 97 0 l 792 0 l 792 139 l 514 139 l 514 972 l 375 972 l 375 833 l 97 833 l 97 694 z "},"2":{"ha":889,"x_min":0,"x_max":0,"o":"m 653 833 l 653 972 l 236 972 l 236 833 z m 97 0 l 792 0 l 792 139 l 236 139 l 236 417 l 97 417 z m 97 694 l 236 694 l 236 833 l 97 833 z m 236 417 l 653 417 l 653 556 l 236 556 z m 653 556 l 792 556 l 792 833 l 653 833 z "},"3":{"ha":889,"x_min":0,"x_max":0,"o":"m 653 833 l 653 972 l 236 972 l 236 833 z m 97 139 l 236 139 l 236 278 l 97 278 z m 97 694 l 236 694 l 236 833 l 97 833 z m 236 0 l 653 0 l 653 139 l 236 139 z m 236 417 l 653 417 l 653 556 l 236 556 z m 653 139 l 792 139 l 792 417 l 653 417 z m 653 556 l 792 556 l 792 833 l 653 833 z "},"4":{"ha":889,"x_min":0,"x_max":0,"o":"m 97 972 l 97 347 l 514 347 l 514 0 l 653 0 l 653 347 l 792 347 l 792 486 l 653 486 l 653 972 l 514 972 l 514 486 l 236 486 l 236 972 z "},"5":{"ha":889,"x_min":0,"x_max":0,"o":"m 792 833 l 792 972 l 97 972 l 97 486 l 653 486 l 653 625 l 236 625 l 236 833 z m 97 139 l 236 139 l 236 278 l 97 278 z m 236 0 l 653 0 l 653 139 l 236 139 z m 653 139 l 792 139 l 792 486 l 653 486 z "},"6":{"ha":889,"x_min":0,"x_max":0,"o":"m 792 833 l 792 972 l 236 972 l 236 833 z m 97 139 l 236 139 l 236 486 l 653 486 l 653 625 l 236 625 l 236 833 l 97 833 z m 236 0 l 653 0 l 653 139 l 236 139 z m 653 139 l 792 139 l 792 486 l 653 486 z "},"7":{"ha":833,"x_min":0,"x_max":0,"o":"m 97 972 l 97 833 l 653 833 l 653 694 l 792 694 l 792 972 z m 236 0 l 375 0 l 375 417 l 236 417 z m 375 417 l 514 417 l 514 556 l 375 556 z m 514 556 l 653 556 l 653 694 l 514 694 z "},"8":{"ha":833,"x_min":0,"x_max":0,"o":"m 653 833 l 653 972 l 236 972 l 236 833 z m 97 139 l 236 139 l 236 486 l 97 486 z m 97 625 l 236 625 l 236 833 l 97 833 z m 236 0 l 653 0 l 653 139 l 236 139 z m 236 486 l 653 486 l 653 625 l 236 625 z m 653 139 l 792 139 l 792 486 l 653 486 z m 653 625 l 792 625 l 792 833 l 653 833 z "},"9":{"ha":889,"x_min":0,"x_max":0,"o":"m 653 833 l 653 972 l 236 972 l 236 833 z m 97 0 l 653 0 l 653 139 l 97 139 z m 97 486 l 236 486 l 236 833 l 97 833 z m 236 347 l 653 347 l 653 139 l 792 139 l 792 833 l 653 833 l 653 486 l 236 486 z "}," ":{"ha":556,"x_min":0,"x_max":0,"o":""}," ":{"ha":556,"x_min":0,"x_max":0,"o":""},"A":{"ha":917,"x_min":0,"x_max":0,"o":"m 528 833 l 528 972 l 389 972 l 389 833 z m 111 0 l 250 0 l 250 347 l 667 347 l 667 0 l 806 0 l 806 694 l 667 694 l 667 486 l 250 486 l 250 694 l 111 694 z m 250 694 l 389 694 l 389 833 l 250 833 z m 528 694 l 667 694 l 667 833 l 528 833 z "},"Á":{"ha":917,"x_min":0,"x_max":0,"o":"m 597 1250 l 597 1389 l 458 1389 l 458 1250 z m 111 0 l 250 0 l 250 347 l 667 347 l 667 0 l 806 0 l 806 694 l 667 694 l 667 486 l 250 486 l 250 694 l 111 694 z m 250 694 l 389 694 l 389 833 l 250 833 z m 319 1111 l 458 1111 l 458 1250 l 319 1250 z m 389 833 l 528 833 l 528 972 l 389 972 z m 528 694 l 667 694 l 667 833 l 528 833 z "},"Ă":{"ha":917,"x_min":0,"x_max":0,"o":"m 668 1111 l 668 1250 l 251 1250 l 251 1111 z m 111 0 l 250 0 l 250 347 l 667 347 l 667 0 l 806 0 l 806 694 l 667 694 l 667 486 l 250 486 l 250 694 l 111 694 z m 250 694 l 389 694 l 389 833 l 250 833 z m 389 833 l 528 833 l 528 972 l 389 972 z m 528 694 l 667 694 l 667 833 l 528 833 z "},"Â":{"ha":917,"x_min":0,"x_max":0,"o":"m 528 1250 l 528 1389 l 389 1389 l 389 1250 z m 111 0 l 250 0 l 250 347 l 667 347 l 667 0 l 806 0 l 806 694 l 667 694 l 667 486 l 250 486 l 250 694 l 111 694 z m 250 694 l 389 694 l 389 833 l 250 833 z m 250 1111 l 389 1111 l 389 1250 l 250 1250 z m 389 833 l 528 833 l 528 972 l 389 972 z m 528 694 l 667 694 l 667 833 l 528 833 z m 528 1111 l 667 1111 l 667 1250 l 528 1250 z "},"Ä":{"ha":917,"x_min":0,"x_max":0,"o":"m 389 1111 l 389 1250 l 250 1250 l 250 1111 z m 111 0 l 250 0 l 250 347 l 667 347 l 667 0 l 806 0 l 806 694 l 667 694 l 667 486 l 250 486 l 250 694 l 111 694 z m 250 694 l 389 694 l 389 833 l 250 833 z m 389 833 l 528 833 l 528 972 l 389 972 z m 528 694 l 667 694 l 667 833 l 528 833 z m 528 1111 l 667 1111 l 667 1250 l 528 1250 z "},"À":{"ha":917,"x_min":0,"x_max":0,"o":"m 458 1250 l 458 1389 l 319 1389 l 319 1250 z m 111 0 l 250 0 l 250 347 l 667 347 l 667 0 l 806 0 l 806 694 l 667 694 l 667 486 l 250 486 l 250 694 l 111 694 z m 250 694 l 389 694 l 389 833 l 250 833 z m 389 833 l 528 833 l 528 972 l 389 972 z m 458 1111 l 597 1111 l 597 1250 l 458 1250 z m 528 694 l 667 694 l 667 833 l 528 833 z "},"Ā":{"ha":917,"x_min":0,"x_max":0,"o":"m 667 1111 l 667 1250 l 250 1250 l 250 1111 z m 111 0 l 250 0 l 250 347 l 667 347 l 667 0 l 806 0 l 806 694 l 667 694 l 667 486 l 250 486 l 250 694 l 111 694 z m 250 694 l 389 694 l 389 833 l 250 833 z m 389 833 l 528 833 l 528 972 l 389 972 z m 528 694 l 667 694 l 667 833 l 528 833 z "},"Ą":{"ha":917,"x_min":0,"x_max":0,"o":"m 528 833 l 528 972 l 389 972 l 389 833 z m 111 0 l 250 0 l 250 347 l 667 347 l 667 0 l 597 0 l 597 -139 l 736 -139 l 736 0 l 806 0 l 806 694 l 667 694 l 667 486 l 250 486 l 250 694 l 111 694 z m 250 694 l 389 694 l 389 833 l 250 833 z m 458 -278 l 597 -278 l 597 -139 l 458 -139 z m 528 694 l 667 694 l 667 833 l 528 833 z m 597 -417 l 736 -417 l 736 -278 l 597 -278 z "},"Å":{"ha":917,"x_min":0,"x_max":0,"o":"m 597 1111 l 597 1389 l 319 1389 l 319 1111 z m 111 0 l 250 0 l 250 347 l 667 347 l 667 0 l 806 0 l 806 694 l 667 694 l 667 486 l 250 486 l 250 694 l 111 694 z m 250 694 l 389 694 l 389 833 l 250 833 z m 389 833 l 528 833 l 528 972 l 389 972 z m 419 1208 l 419 1289 l 500 1289 l 500 1208 z m 528 694 l 667 694 l 667 833 l 528 833 z "},"Ã":{"ha":917,"x_min":0,"x_max":0,"o":"m 458 1250 l 458 1389 l 319 1389 l 319 1250 z m 111 0 l 250 0 l 250 347 l 667 347 l 667 0 l 806 0 l 806 694 l 667 694 l 667 486 l 250 486 l 250 694 l 111 694 z m 181 1111 l 319 1111 l 319 1250 l 181 1250 z m 250 694 l 389 694 l 389 833 l 250 833 z m 389 833 l 528 833 l 528 972 l 389 972 z m 458 1111 l 597 1111 l 597 1250 l 458 1250 z m 528 694 l 667 694 l 667 833 l 528 833 z m 597 1250 l 736 1250 l 736 1389 l 597 1389 z "},"Æ":{"ha":1458,"x_min":0,"x_max":0,"o":"m 250 486 l 250 694 l 111 694 l 111 0 l 250 0 l 250 347 l 667 347 l 667 0 l 1361 0 l 1361 139 l 806 139 l 806 417 l 1222 417 l 1222 556 l 806 556 l 806 833 l 1361 833 l 1361 972 l 389 972 l 389 833 l 667 833 l 667 486 z m 250 694 l 389 694 l 389 833 l 250 833 z "},"B":{"ha":931,"x_min":0,"x_max":0,"o":"m 694 833 l 694 972 l 139 972 l 139 0 l 694 0 l 694 139 l 278 139 l 278 417 l 694 417 l 694 556 l 278 556 l 278 833 z m 694 139 l 833 139 l 833 417 l 694 417 z m 694 556 l 833 556 l 833 833 l 694 833 z "},"C":{"ha":847,"x_min":0,"x_max":0,"o":"m 792 833 l 792 972 l 236 972 l 236 833 z m 97 139 l 236 139 l 236 833 l 97 833 z m 236 0 l 792 0 l 792 139 l 236 139 z "},"Ć":{"ha":847,"x_min":0,"x_max":0,"o":"m 651 1250 l 651 1389 l 513 1389 l 513 1250 z m 97 139 l 236 139 l 236 833 l 97 833 z m 236 0 l 792 0 l 792 139 l 236 139 z m 236 833 l 792 833 l 792 972 l 236 972 z m 374 1111 l 513 1111 l 513 1250 l 374 1250 z "},"Č":{"ha":847,"x_min":0,"x_max":0,"o":"m 306 1389 l 306 1250 l 444 1250 l 444 1389 z m 97 139 l 236 139 l 236 833 l 97 833 z m 236 0 l 792 0 l 792 139 l 236 139 z m 236 833 l 792 833 l 792 972 l 236 972 z m 444 1111 l 583 1111 l 583 1250 l 444 1250 z m 583 1250 l 722 1250 l 722 1389 l 583 1389 z "},"Ç":{"ha":847,"x_min":0,"x_max":0,"o":"m 792 833 l 792 972 l 236 972 l 236 833 z m 97 139 l 236 139 l 236 833 l 97 833 z m 236 0 l 444 0 l 444 -139 l 583 -139 l 583 0 l 792 0 l 792 139 l 236 139 z m 444 -417 l 583 -417 l 583 -278 l 444 -278 z m 583 -278 l 722 -278 l 722 -139 l 583 -139 z "},"Ċ":{"ha":847,"x_min":0,"x_max":0,"o":"m 581 1111 l 581 1250 l 442 1250 l 442 1111 z m 97 139 l 236 139 l 236 833 l 97 833 z m 236 0 l 792 0 l 792 139 l 236 139 z m 236 833 l 792 833 l 792 972 l 236 972 z "},"D":{"ha":931,"x_min":0,"x_max":0,"o":"m 694 833 l 694 972 l 139 972 l 139 0 l 694 0 l 694 139 l 278 139 l 278 833 z m 694 139 l 833 139 l 833 833 l 694 833 z "},"Ð":{"ha":1056,"x_min":0,"x_max":0,"o":"m 125 556 l 125 417 l 264 417 l 264 0 l 819 0 l 819 139 l 403 139 l 403 417 l 542 417 l 542 556 l 403 556 l 403 833 l 819 833 l 819 972 l 264 972 l 264 556 z m 819 139 l 958 139 l 958 833 l 819 833 z "},"Ď":{"ha":931,"x_min":0,"x_max":0,"o":"m 417 1250 l 417 1389 l 278 1389 l 278 1250 z m 139 0 l 694 0 l 694 139 l 278 139 l 278 833 l 694 833 l 694 972 l 139 972 z m 417 1111 l 556 1111 l 556 1250 l 417 1250 z m 556 1250 l 694 1250 l 694 1389 l 556 1389 z m 694 139 l 833 139 l 833 833 l 694 833 z "},"Đ":{"ha":1056,"x_min":0,"x_max":0,"o":"m 125 556 l 125 417 l 264 417 l 264 0 l 819 0 l 819 139 l 403 139 l 403 417 l 542 417 l 542 556 l 403 556 l 403 833 l 819 833 l 819 972 l 264 972 l 264 556 z m 819 139 l 958 139 l 958 833 l 819 833 z "},"E":{"ha":931,"x_min":0,"x_max":0,"o":"m 833 833 l 833 972 l 139 972 l 139 0 l 833 0 l 833 139 l 278 139 l 278 417 l 694 417 l 694 556 l 278 556 l 278 833 z "},"É":{"ha":931,"x_min":0,"x_max":0,"o":"m 625 1250 l 625 1389 l 486 1389 l 486 1250 z m 139 0 l 833 0 l 833 139 l 278 139 l 278 417 l 694 417 l 694 556 l 278 556 l 278 833 l 833 833 l 833 972 l 139 972 z m 347 1111 l 486 1111 l 486 1250 l 347 1250 z "},"Ě":{"ha":931,"x_min":0,"x_max":0,"o":"m 417 1250 l 417 1389 l 278 1389 l 278 1250 z m 139 0 l 833 0 l 833 139 l 278 139 l 278 417 l 694 417 l 694 556 l 278 556 l 278 833 l 833 833 l 833 972 l 139 972 z m 417 1111 l 556 1111 l 556 1250 l 417 1250 z m 556 1250 l 694 1250 l 694 1389 l 556 1389 z "},"Ê":{"ha":931,"x_min":0,"x_max":0,"o":"m 556 1250 l 556 1389 l 417 1389 l 417 1250 z m 139 0 l 833 0 l 833 139 l 278 139 l 278 417 l 694 417 l 694 556 l 278 556 l 278 833 l 833 833 l 833 972 l 139 972 z m 278 1111 l 417 1111 l 417 1250 l 278 1250 z m 556 1111 l 694 1111 l 694 1250 l 556 1250 z "},"Ë":{"ha":931,"x_min":0,"x_max":0,"o":"m 417 1111 l 417 1250 l 278 1250 l 278 1111 z m 139 0 l 833 0 l 833 139 l 278 139 l 278 417 l 694 417 l 694 556 l 278 556 l 278 833 l 833 833 l 833 972 l 139 972 z m 556 1111 l 694 1111 l 694 1250 l 556 1250 z "},"Ė":{"ha":931,"x_min":0,"x_max":0,"o":"m 556 1111 l 556 1250 l 417 1250 l 417 1111 z m 139 0 l 833 0 l 833 139 l 278 139 l 278 417 l 694 417 l 694 556 l 278 556 l 278 833 l 833 833 l 833 972 l 139 972 z "},"È":{"ha":931,"x_min":0,"x_max":0,"o":"m 486 1250 l 486 1389 l 347 1389 l 347 1250 z m 139 0 l 833 0 l 833 139 l 278 139 l 278 417 l 694 417 l 694 556 l 278 556 l 278 833 l 833 833 l 833 972 l 139 972 z m 486 1111 l 625 1111 l 625 1250 l 486 1250 z "},"Ē":{"ha":931,"x_min":0,"x_max":0,"o":"m 694 1111 l 694 1250 l 278 1250 l 278 1111 z m 139 0 l 833 0 l 833 139 l 278 139 l 278 417 l 694 417 l 694 556 l 278 556 l 278 833 l 833 833 l 833 972 l 139 972 z "},"Ę":{"ha":931,"x_min":0,"x_max":0,"o":"m 139 972 l 139 0 l 694 0 l 694 -139 l 833 -139 l 833 139 l 278 139 l 278 417 l 694 417 l 694 556 l 278 556 l 278 833 l 833 833 l 833 972 z m 556 -278 l 694 -278 l 694 -139 l 556 -139 z m 694 -417 l 833 -417 l 833 -278 l 694 -278 z "},"F":{"ha":931,"x_min":0,"x_max":0,"o":"m 833 833 l 833 972 l 139 972 l 139 0 l 278 0 l 278 417 l 694 417 l 694 556 l 278 556 l 278 833 z "},"G":{"ha":889,"x_min":0,"x_max":0,"o":"m 792 833 l 792 972 l 236 972 l 236 833 z m 97 139 l 236 139 l 236 833 l 97 833 z m 236 0 l 653 0 l 653 139 l 236 139 z m 375 417 l 653 417 l 653 139 l 792 139 l 792 556 l 375 556 z "},"Ğ":{"ha":889,"x_min":0,"x_max":0,"o":"m 396 1250 l 396 1389 l 257 1389 l 257 1250 z m 97 139 l 236 139 l 236 833 l 97 833 z m 236 0 l 653 0 l 653 139 l 236 139 z m 236 833 l 792 833 l 792 972 l 236 972 z m 375 417 l 653 417 l 653 139 l 792 139 l 792 556 l 375 556 z m 396 1111 l 535 1111 l 535 1250 l 396 1250 z m 535 1250 l 674 1250 l 674 1389 l 535 1389 z "},"Ģ":{"ha":889,"x_min":0,"x_max":0,"o":"m 792 833 l 792 972 l 236 972 l 236 833 z m 97 139 l 236 139 l 236 833 l 97 833 z m 236 0 l 653 0 l 653 139 l 236 139 z m 326 -417 l 465 -417 l 465 -278 l 326 -278 z m 375 417 l 653 417 l 653 139 l 792 139 l 792 556 l 375 556 z m 465 -278 l 604 -278 l 604 -139 l 465 -139 z "},"Ġ":{"ha":889,"x_min":0,"x_max":0,"o":"m 535 1111 l 535 1250 l 396 1250 l 396 1111 z m 97 139 l 236 139 l 236 833 l 97 833 z m 236 0 l 653 0 l 653 139 l 236 139 z m 236 833 l 792 833 l 792 972 l 236 972 z m 375 417 l 653 417 l 653 139 l 792 139 l 792 556 l 375 556 z "},"H":{"ha":972,"x_min":0,"x_max":0,"o":"m 278 556 l 278 972 l 139 972 l 139 0 l 278 0 l 278 417 l 694 417 l 694 0 l 833 0 l 833 972 l 694 972 l 694 556 z "},"Ħ":{"ha":1222,"x_min":0,"x_max":0,"o":"m 125 833 l 125 694 l 264 694 l 264 0 l 403 0 l 403 417 l 819 417 l 819 0 l 958 0 l 958 694 l 1097 694 l 1097 833 l 958 833 l 958 972 l 819 972 l 819 833 l 403 833 l 403 972 l 264 972 l 264 833 z m 403 556 l 403 694 l 819 694 l 819 556 z "},"I":{"ha":722,"x_min":0,"x_max":0,"o":"m 292 833 l 292 139 l 153 139 l 153 0 l 569 0 l 569 139 l 431 139 l 431 833 l 569 833 l 569 972 l 153 972 l 153 833 z "},"Í":{"ha":722,"x_min":0,"x_max":0,"o":"m 500 1250 l 500 1389 l 361 1389 l 361 1250 z m 153 0 l 569 0 l 569 139 l 431 139 l 431 833 l 569 833 l 569 972 l 153 972 l 153 833 l 292 833 l 292 139 l 153 139 z m 222 1111 l 361 1111 l 361 1250 l 222 1250 z "},"Î":{"ha":722,"x_min":0,"x_max":0,"o":"m 431 1250 l 431 1389 l 292 1389 l 292 1250 z m 153 0 l 569 0 l 569 139 l 431 139 l 431 833 l 569 833 l 569 972 l 153 972 l 153 833 l 292 833 l 292 139 l 153 139 z m 153 1111 l 292 1111 l 292 1250 l 153 1250 z m 431 1111 l 569 1111 l 569 1250 l 431 1250 z "},"Ï":{"ha":583,"x_min":0,"x_max":0,"o":"m 222 1111 l 222 1250 l 83 1250 l 83 1111 z m 83 0 l 500 0 l 500 139 l 361 139 l 361 833 l 500 833 l 500 972 l 83 972 l 83 833 l 222 833 l 222 139 l 83 139 z m 361 1111 l 500 1111 l 500 1250 l 361 1250 z "},"İ":{"ha":722,"x_min":0,"x_max":0,"o":"m 431 1111 l 431 1250 l 292 1250 l 292 1111 z m 153 0 l 569 0 l 569 139 l 431 139 l 431 833 l 569 833 l 569 972 l 153 972 l 153 833 l 292 833 l 292 139 l 153 139 z "},"Ì":{"ha":722,"x_min":0,"x_max":0,"o":"m 361 1250 l 361 1389 l 222 1389 l 222 1250 z m 153 0 l 569 0 l 569 139 l 431 139 l 431 833 l 569 833 l 569 972 l 153 972 l 153 833 l 292 833 l 292 139 l 153 139 z m 361 1111 l 500 1111 l 500 1250 l 361 1250 z "},"Ī":{"ha":722,"x_min":0,"x_max":0,"o":"m 569 1111 l 569 1250 l 153 1250 l 153 1111 z m 153 0 l 569 0 l 569 139 l 431 139 l 431 833 l 569 833 l 569 972 l 153 972 l 153 833 l 292 833 l 292 139 l 153 139 z "},"Į":{"ha":722,"x_min":0,"x_max":0,"o":"m 153 139 l 153 0 l 292 0 l 292 -139 l 431 -139 l 431 0 l 569 0 l 569 139 l 431 139 l 431 833 l 569 833 l 569 972 l 153 972 l 153 833 l 292 833 l 292 139 z m 153 -278 l 292 -278 l 292 -139 l 153 -139 z m 292 -417 l 431 -417 l 431 -278 l 292 -278 z "},"J":{"ha":1000,"x_min":0,"x_max":0,"o":"m 444 972 l 444 833 l 583 833 l 583 139 l 722 139 l 722 833 l 861 833 l 861 972 z m 28 139 l 167 139 l 167 278 l 28 278 z m 167 0 l 583 0 l 583 139 l 167 139 z "},"K":{"ha":931,"x_min":0,"x_max":0,"o":"m 278 556 l 278 972 l 139 972 l 139 0 l 278 0 l 278 417 l 556 417 l 556 556 z m 556 278 l 694 278 l 694 417 l 556 417 z m 556 556 l 694 556 l 694 694 l 556 694 z m 694 0 l 833 0 l 833 278 l 694 278 z m 694 694 l 833 694 l 833 972 l 694 972 z "},"Ķ":{"ha":931,"x_min":0,"x_max":0,"o":"m 278 556 l 278 972 l 139 972 l 139 0 l 278 0 l 278 417 l 556 417 l 556 556 z m 347 -417 l 486 -417 l 486 -278 l 347 -278 z m 486 -278 l 625 -278 l 625 -139 l 486 -139 z m 556 278 l 694 278 l 694 417 l 556 417 z m 556 556 l 694 556 l 694 694 l 556 694 z m 694 0 l 833 0 l 833 278 l 694 278 z m 694 694 l 833 694 l 833 972 l 694 972 z "},"L":{"ha":931,"x_min":0,"x_max":0,"o":"m 278 139 l 278 972 l 139 972 l 139 0 l 833 0 l 833 139 z "},"Ĺ":{"ha":931,"x_min":0,"x_max":0,"o":"m 347 1250 l 347 1389 l 208 1389 l 208 1250 z m 69 1111 l 208 1111 l 208 1250 l 69 1250 z m 139 0 l 833 0 l 833 139 l 278 139 l 278 972 l 139 972 z "},"Ľ":{"ha":931,"x_min":0,"x_max":0,"o":"m 139 1250 l 139 1389 l 0 1389 l 0 1250 z m 139 0 l 833 0 l 833 139 l 278 139 l 278 972 l 139 972 z m 139 1111 l 278 1111 l 278 1250 l 139 1250 z m 278 1250 l 417 1250 l 417 1389 l 278 1389 z "},"Ļ":{"ha":931,"x_min":0,"x_max":0,"o":"m 278 139 l 278 972 l 139 972 l 139 0 l 833 0 l 833 139 z m 326 -417 l 465 -417 l 465 -278 l 326 -278 z m 465 -278 l 604 -278 l 604 -139 l 465 -139 z "},"Ł":{"ha":1056,"x_min":0,"x_max":0,"o":"m 125 556 l 125 417 l 264 417 l 264 0 l 958 0 l 958 139 l 403 139 l 403 556 l 542 556 l 542 694 l 403 694 l 403 972 l 264 972 l 264 556 z m 542 694 l 681 694 l 681 833 l 542 833 z "},"M":{"ha":1250,"x_min":0,"x_max":0,"o":"m 278 833 l 278 972 l 139 972 l 139 0 l 278 0 l 278 694 l 417 694 l 417 833 z m 417 417 l 556 417 l 556 694 l 417 694 z m 556 139 l 694 139 l 694 417 l 556 417 z m 694 417 l 833 417 l 833 694 l 694 694 z m 833 694 l 972 694 l 972 0 l 1111 0 l 1111 972 l 972 972 l 972 833 l 833 833 z "},"N":{"ha":972,"x_min":0,"x_max":0,"o":"m 278 694 l 278 972 l 139 972 l 139 0 l 278 0 l 278 556 l 417 556 l 417 694 z m 417 417 l 556 417 l 556 556 l 417 556 z m 556 278 l 694 278 l 694 0 l 833 0 l 833 972 l 694 972 l 694 417 l 556 417 z "},"Ń":{"ha":972,"x_min":0,"x_max":0,"o":"m 625 1250 l 625 1389 l 486 1389 l 486 1250 z m 139 0 l 278 0 l 278 556 l 417 556 l 417 694 l 278 694 l 278 972 l 139 972 z m 347 1111 l 486 1111 l 486 1250 l 347 1250 z m 417 417 l 556 417 l 556 556 l 417 556 z m 556 278 l 694 278 l 694 0 l 833 0 l 833 972 l 694 972 l 694 417 l 556 417 z "},"Ň":{"ha":972,"x_min":0,"x_max":0,"o":"m 417 1250 l 417 1389 l 278 1389 l 278 1250 z m 139 0 l 278 0 l 278 556 l 417 556 l 417 694 l 278 694 l 278 972 l 139 972 z m 417 417 l 556 417 l 556 556 l 417 556 z m 417 1111 l 556 1111 l 556 1250 l 417 1250 z m 556 278 l 694 278 l 694 0 l 833 0 l 833 972 l 694 972 l 694 417 l 556 417 z m 556 1250 l 694 1250 l 694 1389 l 556 1389 z "},"Ņ":{"ha":972,"x_min":0,"x_max":0,"o":"m 278 694 l 278 972 l 139 972 l 139 0 l 278 0 l 278 556 l 417 556 l 417 694 z m 347 -417 l 486 -417 l 486 -278 l 347 -278 z m 417 417 l 556 417 l 556 556 l 417 556 z m 486 -278 l 625 -278 l 625 -139 l 486 -139 z m 556 278 l 694 278 l 694 0 l 833 0 l 833 972 l 694 972 l 694 417 l 556 417 z "},"Ŋ":{"ha":972,"x_min":0,"x_max":0,"o":"m 278 694 l 278 972 l 139 972 l 139 0 l 278 0 l 278 556 l 417 556 l 417 694 z m 417 417 l 556 417 l 556 556 l 417 556 z m 556 -278 l 694 -278 l 694 -139 l 556 -139 z m 556 278 l 694 278 l 694 -139 l 833 -139 l 833 972 l 694 972 l 694 417 l 556 417 z "},"Ñ":{"ha":972,"x_min":0,"x_max":0,"o":"m 486 1250 l 486 1389 l 347 1389 l 347 1250 z m 139 0 l 278 0 l 278 556 l 417 556 l 417 694 l 278 694 l 278 972 l 139 972 z m 208 1111 l 347 1111 l 347 1250 l 208 1250 z m 417 417 l 556 417 l 556 556 l 417 556 z m 486 1111 l 625 1111 l 625 1250 l 486 1250 z m 556 278 l 694 278 l 694 0 l 833 0 l 833 972 l 694 972 l 694 417 l 556 417 z m 625 1250 l 764 1250 l 764 1389 l 625 1389 z "},"O":{"ha":889,"x_min":0,"x_max":0,"o":"m 653 833 l 653 972 l 236 972 l 236 833 z m 97 139 l 236 139 l 236 833 l 97 833 z m 236 0 l 653 0 l 653 139 l 236 139 z m 653 139 l 792 139 l 792 833 l 653 833 z "},"Ó":{"ha":889,"x_min":0,"x_max":0,"o":"m 583 1250 l 583 1389 l 444 1389 l 444 1250 z m 97 139 l 236 139 l 236 833 l 97 833 z m 236 0 l 653 0 l 653 139 l 236 139 z m 236 833 l 653 833 l 653 972 l 236 972 z m 306 1111 l 444 1111 l 444 1250 l 306 1250 z m 653 139 l 792 139 l 792 833 l 653 833 z "},"Ô":{"ha":889,"x_min":0,"x_max":0,"o":"m 514 1250 l 514 1389 l 375 1389 l 375 1250 z m 97 139 l 236 139 l 236 833 l 97 833 z m 236 0 l 653 0 l 653 139 l 236 139 z m 236 833 l 653 833 l 653 972 l 236 972 z m 236 1111 l 375 1111 l 375 1250 l 236 1250 z m 514 1111 l 653 1111 l 653 1250 l 514 1250 z m 653 139 l 792 139 l 792 833 l 653 833 z "},"Ö":{"ha":889,"x_min":0,"x_max":0,"o":"m 375 1111 l 375 1250 l 236 1250 l 236 1111 z m 97 139 l 236 139 l 236 833 l 97 833 z m 236 0 l 653 0 l 653 139 l 236 139 z m 236 833 l 653 833 l 653 972 l 236 972 z m 514 1111 l 653 1111 l 653 1250 l 514 1250 z m 653 139 l 792 139 l 792 833 l 653 833 z "},"Ò":{"ha":889,"x_min":0,"x_max":0,"o":"m 444 1250 l 444 1389 l 306 1389 l 306 1250 z m 97 139 l 236 139 l 236 833 l 97 833 z m 236 0 l 653 0 l 653 139 l 236 139 z m 236 833 l 653 833 l 653 972 l 236 972 z m 444 1111 l 583 1111 l 583 1250 l 444 1250 z m 653 139 l 792 139 l 792 833 l 653 833 z "},"Ő":{"ha":889,"x_min":0,"x_max":0,"o":"m 444 1250 l 444 1389 l 306 1389 l 306 1250 z m 97 139 l 236 139 l 236 833 l 97 833 z m 167 1111 l 306 1111 l 306 1250 l 167 1250 z m 236 0 l 653 0 l 653 139 l 236 139 z m 236 833 l 653 833 l 653 972 l 236 972 z m 444 1111 l 583 1111 l 583 1250 l 444 1250 z m 583 1250 l 722 1250 l 722 1389 l 583 1389 z m 653 139 l 792 139 l 792 833 l 653 833 z "},"Ō":{"ha":889,"x_min":0,"x_max":0,"o":"m 653 1111 l 653 1250 l 236 1250 l 236 1111 z m 97 139 l 236 139 l 236 833 l 97 833 z m 236 0 l 653 0 l 653 139 l 236 139 z m 236 833 l 653 833 l 653 972 l 236 972 z m 653 139 l 792 139 l 792 833 l 653 833 z "},"Ø":{"ha":1139,"x_min":0,"x_max":0,"o":"m 778 833 l 778 972 l 361 972 l 361 833 z m 83 278 l 222 278 l 222 139 l 361 139 l 361 278 l 500 278 l 500 417 l 361 417 l 361 833 l 222 833 l 222 417 l 83 417 z m 361 0 l 778 0 l 778 139 l 361 139 z m 500 417 l 639 417 l 639 556 l 500 556 z m 639 556 l 778 556 l 778 139 l 917 139 l 917 556 l 1056 556 l 1056 694 l 917 694 l 917 833 l 778 833 l 778 694 l 639 694 z "},"Õ":{"ha":889,"x_min":0,"x_max":0,"o":"m 444 1250 l 444 1389 l 306 1389 l 306 1250 z m 97 139 l 236 139 l 236 833 l 97 833 z m 167 1111 l 306 1111 l 306 1250 l 167 1250 z m 236 0 l 653 0 l 653 139 l 236 139 z m 236 833 l 653 833 l 653 972 l 236 972 z m 444 1111 l 583 1111 l 583 1250 l 444 1250 z m 583 1250 l 722 1250 l 722 1389 l 583 1389 z m 653 139 l 792 139 l 792 833 l 653 833 z "},"Œ":{"ha":1444,"x_min":0,"x_max":0,"o":"m 653 833 l 653 972 l 236 972 l 236 833 z m 97 139 l 236 139 l 236 833 l 97 833 z m 236 0 l 653 0 l 653 139 l 236 139 z m 653 139 l 792 139 l 792 417 l 1208 417 l 1208 556 l 792 556 l 792 833 l 653 833 z m 792 0 l 1347 0 l 1347 139 l 792 139 z m 792 833 l 1347 833 l 1347 972 l 792 972 z "},"P":{"ha":903,"x_min":0,"x_max":0,"o":"m 694 833 l 694 972 l 139 972 l 139 0 l 278 0 l 278 347 l 694 347 l 694 486 l 278 486 l 278 833 z m 694 486 l 833 486 l 833 833 l 694 833 z "},"Þ":{"ha":931,"x_min":0,"x_max":0,"o":"m 278 835 l 278 972 l 139 972 l 139 0 l 278 0 l 278 210 l 694 210 l 694 349 l 278 349 l 278 696 l 694 696 l 694 835 z m 694 349 l 833 349 l 833 696 l 694 696 z "},"Q":{"ha":889,"x_min":0,"x_max":0,"o":"m 653 833 l 653 972 l 236 972 l 236 833 z m 97 139 l 236 139 l 236 833 l 97 833 z m 236 0 l 653 0 l 653 139 l 514 139 l 514 278 l 375 278 l 375 139 l 236 139 z m 653 -139 l 792 -139 l 792 0 l 653 0 z m 653 139 l 792 139 l 792 833 l 653 833 z "},"R":{"ha":972,"x_min":0,"x_max":0,"o":"m 694 833 l 694 972 l 139 972 l 139 0 l 278 0 l 278 417 l 417 417 l 417 278 l 556 278 l 556 417 l 694 417 l 694 556 l 278 556 l 278 833 z m 556 139 l 694 139 l 694 278 l 556 278 z m 694 0 l 833 0 l 833 139 l 694 139 z m 694 556 l 833 556 l 833 833 l 694 833 z "},"Ŕ":{"ha":972,"x_min":0,"x_max":0,"o":"m 625 1250 l 625 1389 l 486 1389 l 486 1250 z m 139 0 l 278 0 l 278 417 l 417 417 l 417 278 l 556 278 l 556 417 l 694 417 l 694 556 l 278 556 l 278 833 l 694 833 l 694 972 l 139 972 z m 347 1111 l 486 1111 l 486 1250 l 347 1250 z m 556 139 l 694 139 l 694 278 l 556 278 z m 694 0 l 833 0 l 833 139 l 694 139 z m 694 556 l 833 556 l 833 833 l 694 833 z "},"Ř":{"ha":972,"x_min":0,"x_max":0,"o":"m 417 1250 l 417 1389 l 278 1389 l 278 1250 z m 139 0 l 278 0 l 278 417 l 417 417 l 417 278 l 556 278 l 556 417 l 694 417 l 694 556 l 278 556 l 278 833 l 694 833 l 694 972 l 139 972 z m 417 1111 l 556 1111 l 556 1250 l 417 1250 z m 556 139 l 694 139 l 694 278 l 556 278 z m 556 1250 l 694 1250 l 694 1389 l 556 1389 z m 694 0 l 833 0 l 833 139 l 694 139 z m 694 556 l 833 556 l 833 833 l 694 833 z "},"Ŗ":{"ha":972,"x_min":0,"x_max":0,"o":"m 694 833 l 694 972 l 139 972 l 139 0 l 278 0 l 278 417 l 417 417 l 417 278 l 556 278 l 556 417 l 694 417 l 694 556 l 278 556 l 278 833 z m 347 -417 l 486 -417 l 486 -278 l 347 -278 z m 486 -278 l 625 -278 l 625 -139 l 486 -139 z m 556 139 l 694 139 l 694 278 l 556 278 z m 694 0 l 833 0 l 833 139 l 694 139 z m 694 556 l 833 556 l 833 833 l 694 833 z "},"S":{"ha":889,"x_min":0,"x_max":0,"o":"m 792 833 l 792 972 l 236 972 l 236 833 z m 97 0 l 653 0 l 653 139 l 97 139 z m 97 556 l 236 556 l 236 833 l 97 833 z m 236 417 l 653 417 l 653 556 l 236 556 z m 653 139 l 792 139 l 792 417 l 653 417 z "},"Ś":{"ha":889,"x_min":0,"x_max":0,"o":"m 583 1250 l 583 1389 l 444 1389 l 444 1250 z m 97 0 l 653 0 l 653 139 l 97 139 z m 97 556 l 236 556 l 236 833 l 97 833 z m 236 417 l 653 417 l 653 556 l 236 556 z m 236 833 l 792 833 l 792 972 l 236 972 z m 306 1111 l 444 1111 l 444 1250 l 306 1250 z m 653 139 l 792 139 l 792 417 l 653 417 z "},"Š":{"ha":889,"x_min":0,"x_max":0,"o":"m 236 1389 l 236 1250 l 375 1250 l 375 1389 z m 97 0 l 653 0 l 653 139 l 97 139 z m 97 556 l 236 556 l 236 833 l 97 833 z m 236 417 l 653 417 l 653 556 l 236 556 z m 236 833 l 792 833 l 792 972 l 236 972 z m 375 1111 l 514 1111 l 514 1250 l 375 1250 z m 514 1250 l 653 1250 l 653 1389 l 514 1389 z m 653 139 l 792 139 l 792 417 l 653 417 z "},"Ş":{"ha":889,"x_min":0,"x_max":0,"o":"m 792 833 l 792 972 l 236 972 l 236 833 z m 97 0 l 299 0 l 299 -139 l 438 -139 l 438 0 l 653 0 l 653 139 l 97 139 z m 97 556 l 236 556 l 236 833 l 97 833 z m 236 417 l 653 417 l 653 556 l 236 556 z m 299 -417 l 438 -417 l 438 -278 l 299 -278 z m 438 -278 l 576 -278 l 576 -139 l 438 -139 z m 653 139 l 792 139 l 792 417 l 653 417 z "},"Ș":{"ha":889,"x_min":0,"x_max":0,"o":"m 792 833 l 792 972 l 236 972 l 236 833 z m 97 0 l 653 0 l 653 139 l 97 139 z m 97 556 l 236 556 l 236 833 l 97 833 z m 236 -417 l 375 -417 l 375 -278 l 236 -278 z m 236 417 l 653 417 l 653 556 l 236 556 z m 375 -278 l 514 -278 l 514 -139 l 375 -139 z m 653 139 l 792 139 l 792 417 l 653 417 z "},"T":{"ha":889,"x_min":0,"x_max":0,"o":"m 97 972 l 97 833 l 375 833 l 375 0 l 514 0 l 514 833 l 792 833 l 792 972 z "},"Ŧ":{"ha":889,"x_min":0,"x_max":0,"o":"m 236 611 l 236 472 l 375 472 l 375 0 l 514 0 l 514 472 l 653 472 l 653 611 l 514 611 l 514 833 l 792 833 l 792 972 l 97 972 l 97 833 l 375 833 l 375 611 z "},"Ť":{"ha":889,"x_min":0,"x_max":0,"o":"m 375 1250 l 375 1389 l 236 1389 l 236 1250 z m 97 833 l 375 833 l 375 0 l 514 0 l 514 833 l 792 833 l 792 972 l 97 972 z m 375 1111 l 514 1111 l 514 1250 l 375 1250 z m 514 1250 l 653 1250 l 653 1389 l 514 1389 z "},"Ţ":{"ha":889,"x_min":0,"x_max":0,"o":"m 97 972 l 97 833 l 375 833 l 375 -139 l 514 -139 l 514 833 l 792 833 l 792 972 z m 375 -417 l 514 -417 l 514 -278 l 375 -278 z m 514 -278 l 653 -278 l 653 -139 l 514 -139 z "},"Ț":{"ha":889,"x_min":0,"x_max":0,"o":"m 97 972 l 97 833 l 375 833 l 375 0 l 514 0 l 514 833 l 792 833 l 792 972 z m 306 -417 l 444 -417 l 444 -278 l 306 -278 z m 444 -278 l 583 -278 l 583 -139 l 444 -139 z "},"U":{"ha":889,"x_min":0,"x_max":0,"o":"m 236 139 l 236 972 l 97 972 l 97 139 z m 236 0 l 653 0 l 653 139 l 236 139 z m 653 139 l 792 139 l 792 972 l 653 972 z "},"Ú":{"ha":889,"x_min":0,"x_max":0,"o":"m 583 1250 l 583 1389 l 444 1389 l 444 1250 z m 97 139 l 236 139 l 236 972 l 97 972 z m 236 0 l 653 0 l 653 139 l 236 139 z m 306 1111 l 444 1111 l 444 1250 l 306 1250 z m 653 139 l 792 139 l 792 972 l 653 972 z "},"Û":{"ha":889,"x_min":0,"x_max":0,"o":"m 514 1250 l 514 1389 l 375 1389 l 375 1250 z m 97 139 l 236 139 l 236 972 l 97 972 z m 236 0 l 653 0 l 653 139 l 236 139 z m 236 1111 l 375 1111 l 375 1250 l 236 1250 z m 514 1111 l 653 1111 l 653 1250 l 514 1250 z m 653 139 l 792 139 l 792 972 l 653 972 z "},"Ü":{"ha":889,"x_min":0,"x_max":0,"o":"m 375 1111 l 375 1250 l 236 1250 l 236 1111 z m 97 139 l 236 139 l 236 972 l 97 972 z m 236 0 l 653 0 l 653 139 l 236 139 z m 514 1111 l 653 1111 l 653 1250 l 514 1250 z m 653 139 l 792 139 l 792 972 l 653 972 z "},"Ù":{"ha":889,"x_min":0,"x_max":0,"o":"m 444 1250 l 444 1389 l 306 1389 l 306 1250 z m 97 139 l 236 139 l 236 972 l 97 972 z m 236 0 l 653 0 l 653 139 l 236 139 z m 444 1111 l 583 1111 l 583 1250 l 444 1250 z m 653 139 l 792 139 l 792 972 l 653 972 z "},"Ű":{"ha":889,"x_min":0,"x_max":0,"o":"m 444 1250 l 444 1389 l 306 1389 l 306 1250 z m 97 139 l 236 139 l 236 972 l 97 972 z m 167 1111 l 306 1111 l 306 1250 l 167 1250 z m 236 0 l 653 0 l 653 139 l 236 139 z m 444 1111 l 583 1111 l 583 1250 l 444 1250 z m 583 1250 l 722 1250 l 722 1389 l 583 1389 z m 653 139 l 792 139 l 792 972 l 653 972 z "},"Ū":{"ha":889,"x_min":0,"x_max":0,"o":"m 653 1111 l 653 1250 l 236 1250 l 236 1111 z m 97 139 l 236 139 l 236 972 l 97 972 z m 236 0 l 653 0 l 653 139 l 236 139 z m 653 139 l 792 139 l 792 972 l 653 972 z "},"Ų":{"ha":889,"x_min":0,"x_max":0,"o":"m 236 139 l 236 972 l 97 972 l 97 139 z m 236 0 l 514 0 l 514 -139 l 653 -139 l 653 139 l 236 139 z m 375 -278 l 514 -278 l 514 -139 l 375 -139 z m 514 -417 l 653 -417 l 653 -278 l 514 -278 z m 653 139 l 792 139 l 792 972 l 653 972 z "},"Ů":{"ha":889,"x_min":0,"x_max":0,"o":"m 583 1111 l 583 1389 l 306 1389 l 306 1111 z m 97 139 l 236 139 l 236 972 l 97 972 z m 236 0 l 653 0 l 653 139 l 236 139 z m 406 1208 l 406 1289 l 486 1289 l 486 1208 z m 653 139 l 792 139 l 792 972 l 653 972 z "},"V":{"ha":889,"x_min":0,"x_max":0,"o":"m 236 278 l 236 972 l 97 972 l 97 278 z m 236 139 l 375 139 l 375 278 l 236 278 z m 375 0 l 514 0 l 514 139 l 375 139 z m 514 139 l 653 139 l 653 278 l 514 278 z m 653 278 l 792 278 l 792 972 l 653 972 z "},"W":{"ha":1167,"x_min":0,"x_max":0,"o":"m 236 139 l 236 972 l 97 972 l 97 139 z m 236 0 l 514 0 l 514 139 l 236 139 z m 514 139 l 653 139 l 653 833 l 514 833 z m 653 0 l 931 0 l 931 139 l 653 139 z m 931 139 l 1069 139 l 1069 972 l 931 972 z "},"Ẃ":{"ha":1167,"x_min":0,"x_max":0,"o":"m 722 1250 l 722 1389 l 583 1389 l 583 1250 z m 97 139 l 236 139 l 236 972 l 97 972 z m 236 0 l 514 0 l 514 139 l 236 139 z m 444 1111 l 583 1111 l 583 1250 l 444 1250 z m 514 139 l 653 139 l 653 833 l 514 833 z m 653 0 l 931 0 l 931 139 l 653 139 z m 931 139 l 1069 139 l 1069 972 l 931 972 z "},"Ŵ":{"ha":1167,"x_min":0,"x_max":0,"o":"m 653 1250 l 653 1389 l 514 1389 l 514 1250 z m 97 139 l 236 139 l 236 972 l 97 972 z m 236 0 l 514 0 l 514 139 l 236 139 z m 375 1111 l 514 1111 l 514 1250 l 375 1250 z m 514 139 l 653 139 l 653 833 l 514 833 z m 653 0 l 931 0 l 931 139 l 653 139 z m 653 1111 l 792 1111 l 792 1250 l 653 1250 z m 931 139 l 1069 139 l 1069 972 l 931 972 z "},"Ẅ":{"ha":1167,"x_min":0,"x_max":0,"o":"m 514 1111 l 514 1250 l 375 1250 l 375 1111 z m 97 139 l 236 139 l 236 972 l 97 972 z m 236 0 l 514 0 l 514 139 l 236 139 z m 514 139 l 653 139 l 653 833 l 514 833 z m 653 0 l 931 0 l 931 139 l 653 139 z m 653 1111 l 792 1111 l 792 1250 l 653 1250 z m 931 139 l 1069 139 l 1069 972 l 931 972 z "},"Ẁ":{"ha":1167,"x_min":0,"x_max":0,"o":"m 583 1250 l 583 1389 l 444 1389 l 444 1250 z m 97 139 l 236 139 l 236 972 l 97 972 z m 236 0 l 514 0 l 514 139 l 236 139 z m 514 139 l 653 139 l 653 833 l 514 833 z m 583 1111 l 722 1111 l 722 1250 l 583 1250 z m 653 0 l 931 0 l 931 139 l 653 139 z m 931 139 l 1069 139 l 1069 972 l 931 972 z "},"X":{"ha":889,"x_min":0,"x_max":0,"o":"m 236 694 l 236 972 l 97 972 l 97 694 z m 97 0 l 236 0 l 236 278 l 97 278 z m 236 278 l 375 278 l 375 417 l 236 417 z m 236 556 l 375 556 l 375 694 l 236 694 z m 375 417 l 514 417 l 514 556 l 375 556 z m 514 278 l 653 278 l 653 417 l 514 417 z m 514 556 l 653 556 l 653 694 l 514 694 z m 653 0 l 792 0 l 792 278 l 653 278 z m 653 694 l 792 694 l 792 972 l 653 972 z "},"Y":{"ha":889,"x_min":0,"x_max":0,"o":"m 236 556 l 236 972 l 97 972 l 97 556 z m 236 417 l 375 417 l 375 0 l 514 0 l 514 417 l 653 417 l 653 556 l 236 556 z m 653 556 l 792 556 l 792 972 l 653 972 z "},"Ý":{"ha":889,"x_min":0,"x_max":0,"o":"m 583 1250 l 583 1389 l 444 1389 l 444 1250 z m 97 556 l 236 556 l 236 972 l 97 972 z m 236 417 l 375 417 l 375 0 l 514 0 l 514 417 l 653 417 l 653 556 l 236 556 z m 306 1111 l 444 1111 l 444 1250 l 306 1250 z m 653 556 l 792 556 l 792 972 l 653 972 z "},"Ŷ":{"ha":889,"x_min":0,"x_max":0,"o":"m 514 1250 l 514 1389 l 375 1389 l 375 1250 z m 97 556 l 236 556 l 236 972 l 97 972 z m 236 417 l 375 417 l 375 0 l 514 0 l 514 417 l 653 417 l 653 556 l 236 556 z m 236 1111 l 375 1111 l 375 1250 l 236 1250 z m 514 1111 l 653 1111 l 653 1250 l 514 1250 z m 653 556 l 792 556 l 792 972 l 653 972 z "},"Ÿ":{"ha":889,"x_min":0,"x_max":0,"o":"m 375 1111 l 375 1250 l 236 1250 l 236 1111 z m 97 556 l 236 556 l 236 972 l 97 972 z m 236 417 l 375 417 l 375 0 l 514 0 l 514 417 l 653 417 l 653 556 l 236 556 z m 514 1111 l 653 1111 l 653 1250 l 514 1250 z m 653 556 l 792 556 l 792 972 l 653 972 z "},"Ỳ":{"ha":889,"x_min":0,"x_max":0,"o":"m 444 1250 l 444 1389 l 306 1389 l 306 1250 z m 97 556 l 236 556 l 236 972 l 97 972 z m 236 417 l 375 417 l 375 0 l 514 0 l 514 417 l 653 417 l 653 556 l 236 556 z m 444 1111 l 583 1111 l 583 1250 l 444 1250 z m 653 556 l 792 556 l 792 972 l 653 972 z "},"Z":{"ha":833,"x_min":0,"x_max":0,"o":"m 69 972 l 69 833 l 625 833 l 625 694 l 764 694 l 764 972 z m 69 0 l 764 0 l 764 139 l 208 139 l 208 278 l 69 278 z m 208 278 l 347 278 l 347 417 l 208 417 z m 347 417 l 486 417 l 486 556 l 347 556 z m 486 556 l 625 556 l 625 694 l 486 694 z "},"Ź":{"ha":833,"x_min":0,"x_max":0,"o":"m 556 1250 l 556 1389 l 417 1389 l 417 1250 z m 69 0 l 764 0 l 764 139 l 208 139 l 208 278 l 69 278 z m 69 833 l 625 833 l 625 694 l 764 694 l 764 972 l 69 972 z m 208 278 l 347 278 l 347 417 l 208 417 z m 278 1111 l 417 1111 l 417 1250 l 278 1250 z m 347 417 l 486 417 l 486 556 l 347 556 z m 486 556 l 625 556 l 625 694 l 486 694 z "},"Ž":{"ha":833,"x_min":0,"x_max":0,"o":"m 347 1250 l 347 1389 l 208 1389 l 208 1250 z m 69 0 l 764 0 l 764 139 l 208 139 l 208 278 l 69 278 z m 69 833 l 625 833 l 625 694 l 764 694 l 764 972 l 69 972 z m 208 278 l 347 278 l 347 417 l 208 417 z m 347 417 l 486 417 l 486 556 l 347 556 z m 347 1111 l 486 1111 l 486 1250 l 347 1250 z m 486 556 l 625 556 l 625 694 l 486 694 z m 486 1250 l 625 1250 l 625 1389 l 486 1389 z "},"Ż":{"ha":833,"x_min":0,"x_max":0,"o":"m 486 1111 l 486 1250 l 347 1250 l 347 1111 z m 69 0 l 764 0 l 764 139 l 208 139 l 208 278 l 69 278 z m 69 833 l 625 833 l 625 694 l 764 694 l 764 972 l 69 972 z m 208 278 l 347 278 l 347 417 l 208 417 z m 347 417 l 486 417 l 486 556 l 347 556 z m 486 556 l 625 556 l 625 694 l 486 694 z "},"a":{"ha":833,"x_min":0,"x_max":0,"o":"m 625 556 l 625 694 l 69 694 l 69 556 z m 69 139 l 208 139 l 208 276 l 69 278 z m 208 0 l 764 0 l 764 556 l 625 556 l 625 417 l 208 415 l 208 278 l 625 278 l 625 139 l 208 139 z "},"á":{"ha":833,"x_min":0,"x_max":0,"o":"m 556 972 l 556 1111 l 417 1111 l 417 972 z m 69 139 l 208 139 l 208 276 l 69 278 z m 69 556 l 625 556 l 625 694 l 69 694 z m 208 0 l 764 0 l 764 556 l 625 556 l 625 417 l 208 415 l 208 278 l 625 278 l 625 139 l 208 139 z m 278 833 l 417 833 l 417 972 l 278 972 z "},"ă":{"ha":833,"x_min":0,"x_max":0,"o":"m 626 833 l 626 972 l 210 972 l 210 833 z m 69 139 l 208 139 l 208 276 l 69 278 z m 69 556 l 625 556 l 625 694 l 69 694 z m 208 0 l 764 0 l 764 556 l 625 556 l 625 417 l 208 415 l 208 278 l 625 278 l 625 139 l 208 139 z "},"â":{"ha":833,"x_min":0,"x_max":0,"o":"m 486 972 l 486 1111 l 347 1111 l 347 972 z m 69 139 l 208 139 l 208 276 l 69 278 z m 69 556 l 625 556 l 625 694 l 69 694 z m 208 0 l 764 0 l 764 556 l 625 556 l 625 417 l 208 415 l 208 278 l 625 278 l 625 139 l 208 139 z m 208 833 l 347 833 l 347 972 l 208 972 z m 486 833 l 625 833 l 625 972 l 486 972 z "},"ä":{"ha":833,"x_min":0,"x_max":0,"o":"m 347 833 l 347 972 l 208 972 l 208 833 z m 69 139 l 208 139 l 208 276 l 69 278 z m 69 556 l 625 556 l 625 694 l 69 694 z m 208 0 l 764 0 l 764 556 l 625 556 l 625 417 l 208 415 l 208 278 l 625 278 l 625 139 l 208 139 z m 486 833 l 625 833 l 625 972 l 486 972 z "},"à":{"ha":833,"x_min":0,"x_max":0,"o":"m 417 972 l 417 1111 l 278 1111 l 278 972 z m 69 139 l 208 139 l 208 276 l 69 278 z m 69 556 l 625 556 l 625 694 l 69 694 z m 208 0 l 764 0 l 764 556 l 625 556 l 625 417 l 208 415 l 208 278 l 625 278 l 625 139 l 208 139 z m 417 833 l 556 833 l 556 972 l 417 972 z "},"ā":{"ha":833,"x_min":0,"x_max":0,"o":"m 625 833 l 625 972 l 208 972 l 208 833 z m 69 139 l 208 139 l 208 276 l 69 278 z m 69 556 l 625 556 l 625 694 l 69 694 z m 208 0 l 764 0 l 764 556 l 625 556 l 625 417 l 208 415 l 208 278 l 625 278 l 625 139 l 208 139 z "},"ą":{"ha":833,"x_min":0,"x_max":0,"o":"m 625 556 l 625 694 l 69 694 l 69 556 z m 69 139 l 208 139 l 208 276 l 69 278 z m 208 0 l 625 0 l 625 -139 l 764 -139 l 764 556 l 625 556 l 625 417 l 208 415 l 208 278 l 625 278 l 625 139 l 208 139 z m 486 -278 l 625 -278 l 625 -139 l 486 -139 z m 625 -417 l 764 -417 l 764 -278 l 625 -278 z "},"å":{"ha":833,"x_min":0,"x_max":0,"o":"m 556 833 l 556 1111 l 278 1111 l 278 833 z m 69 139 l 208 139 l 208 276 l 69 278 z m 69 556 l 625 556 l 625 694 l 69 694 z m 208 0 l 764 0 l 764 556 l 625 556 l 625 417 l 208 415 l 208 278 l 625 278 l 625 139 l 208 139 z m 378 931 l 378 1011 l 458 1011 l 458 931 z "},"ã":{"ha":833,"x_min":0,"x_max":0,"o":"m 417 972 l 417 1111 l 278 1111 l 278 972 z m 69 139 l 208 139 l 208 276 l 69 278 z m 69 556 l 625 556 l 625 694 l 69 694 z m 139 833 l 278 833 l 278 972 l 139 972 z m 208 0 l 764 0 l 764 556 l 625 556 l 625 417 l 208 415 l 208 278 l 625 278 l 625 139 l 208 139 z m 417 833 l 556 833 l 556 972 l 417 972 z m 556 972 l 694 972 l 694 1111 l 556 1111 z "},"æ":{"ha":1389,"x_min":0,"x_max":0,"o":"m 625 556 l 625 694 l 69 694 l 69 556 z m 69 139 l 208 139 l 208 276 l 69 278 z m 208 0 l 1319 0 l 1319 139 l 764 139 l 764 278 l 1319 278 l 1319 556 l 1181 556 l 1181 417 l 764 417 l 764 556 l 625 556 l 625 417 l 208 415 l 208 278 l 625 278 l 625 139 l 208 139 z m 764 556 l 1181 556 l 1181 694 l 764 694 z "},"b":{"ha":833,"x_min":0,"x_max":0,"o":"m 208 694 l 208 972 l 69 972 l 69 -1 l 625 -1 l 625 138 l 208 138 l 208 557 l 625 557 l 625 694 z m 625 138 l 764 138 l 764 557 l 625 557 z "},"c":{"ha":819,"x_min":0,"x_max":0,"o":"m 69 139 l 208 139 l 208 557 l 69 557 z m 208 0 l 764 0 l 764 139 l 208 139 z m 208 557 l 764 556 l 764 694 l 208 696 z "},"ć":{"ha":819,"x_min":0,"x_max":0,"o":"m 569 972 l 569 1111 l 431 1111 l 431 972 z m 69 139 l 208 139 l 208 557 l 69 557 z m 208 0 l 764 0 l 764 139 l 208 139 z m 208 557 l 764 556 l 764 694 l 208 696 z m 292 833 l 431 833 l 431 972 l 292 972 z "},"č":{"ha":819,"x_min":0,"x_max":0,"o":"m 222 1111 l 222 972 l 361 972 l 361 1111 z m 69 139 l 208 139 l 208 557 l 69 557 z m 208 0 l 764 0 l 764 139 l 208 139 z m 208 557 l 764 556 l 764 694 l 208 696 z m 361 833 l 500 833 l 500 972 l 361 972 z m 500 972 l 639 972 l 639 1111 l 500 1111 z "},"ç":{"ha":819,"x_min":0,"x_max":0,"o":"m 69 139 l 208 139 l 208 557 l 69 557 z m 208 0 l 417 0 l 417 -139 l 556 -139 l 556 0 l 764 0 l 764 139 l 208 139 z m 208 557 l 764 556 l 764 694 l 208 696 z m 417 -417 l 556 -417 l 556 -278 l 417 -278 z m 556 -278 l 694 -278 l 694 -139 l 556 -139 z "},"ċ":{"ha":819,"x_min":0,"x_max":0,"o":"m 500 833 l 500 972 l 361 972 l 361 833 z m 69 139 l 208 139 l 208 557 l 69 557 z m 208 0 l 764 0 l 764 139 l 208 139 z m 208 557 l 764 556 l 764 694 l 208 696 z "},"d":{"ha":833,"x_min":0,"x_max":0,"o":"m 69 556 l 69 139 l 208 139 l 208 556 z m 208 0 l 764 0 l 764 972 l 625 972 l 625 694 l 208 694 l 208 556 l 625 556 l 625 139 l 208 139 z "},"ð":{"ha":833,"x_min":0,"x_max":0,"o":"m 347 903 l 347 1042 l 208 1042 l 208 903 z m 69 139 l 208 139 l 208 417 l 69 417 z m 208 0 l 625 0 l 625 139 l 208 139 z m 208 417 l 486 417 l 486 556 l 208 556 z m 208 625 l 347 625 l 347 764 l 208 764 z m 347 764 l 486 764 l 486 903 l 347 903 z m 486 556 l 625 556 l 625 764 l 486 764 z m 486 903 l 625 903 l 625 1042 l 486 1042 z m 625 139 l 764 139 l 764 556 l 625 556 z "},"ď":{"ha":833,"x_min":0,"x_max":0,"o":"m 625 1250 l 625 1389 l 486 1389 l 486 1250 z m 69 139 l 208 139 l 208 556 l 69 556 z m 208 0 l 764 0 l 764 972 l 625 972 l 625 694 l 208 694 l 208 556 l 625 556 l 625 139 l 208 139 z m 625 1111 l 764 1111 l 764 1250 l 625 1250 z m 764 1250 l 903 1250 l 903 1389 l 764 1389 z "},"đ":{"ha":958,"x_min":0,"x_max":0,"o":"m 69 556 l 69 139 l 208 139 l 208 556 z m 208 0 l 764 0 l 764 764 l 903 764 l 903 903 l 764 903 l 764 972 l 625 972 l 625 903 l 347 903 l 347 764 l 625 764 l 625 694 l 208 694 l 208 556 l 625 556 l 625 139 l 208 139 z "},"e":{"ha":833,"x_min":0,"x_max":0,"o":"m 625 556 l 625 694 l 208 694 l 208 556 z m 69 139 l 208 139 l 208 278 l 764 278 l 764 556 l 625 556 l 625 417 l 208 417 l 208 556 l 69 556 z m 208 0 l 764 0 l 764 139 l 208 139 z "},"é":{"ha":833,"x_min":0,"x_max":0,"o":"m 556 972 l 556 1111 l 417 1111 l 417 972 z m 69 139 l 208 139 l 208 278 l 764 278 l 764 556 l 625 556 l 625 417 l 208 417 l 208 556 l 69 556 z m 208 0 l 764 0 l 764 139 l 208 139 z m 208 556 l 625 556 l 625 694 l 208 694 z m 278 833 l 417 833 l 417 972 l 278 972 z "},"ě":{"ha":833,"x_min":0,"x_max":0,"o":"m 347 972 l 347 1111 l 208 1111 l 208 972 z m 69 139 l 208 139 l 208 278 l 764 278 l 764 556 l 625 556 l 625 417 l 208 417 l 208 556 l 69 556 z m 208 0 l 764 0 l 764 139 l 208 139 z m 208 556 l 625 556 l 625 694 l 208 694 z m 347 833 l 486 833 l 486 972 l 347 972 z m 486 972 l 625 972 l 625 1111 l 486 1111 z "},"ê":{"ha":833,"x_min":0,"x_max":0,"o":"m 486 972 l 486 1111 l 347 1111 l 347 972 z m 69 139 l 208 139 l 208 278 l 764 278 l 764 556 l 625 556 l 625 417 l 208 417 l 208 556 l 69 556 z m 208 0 l 764 0 l 764 139 l 208 139 z m 208 556 l 625 556 l 625 694 l 208 694 z m 208 833 l 347 833 l 347 972 l 208 972 z m 486 833 l 625 833 l 625 972 l 486 972 z "},"ë":{"ha":833,"x_min":0,"x_max":0,"o":"m 347 833 l 347 972 l 208 972 l 208 833 z m 69 139 l 208 139 l 208 278 l 764 278 l 764 556 l 625 556 l 625 417 l 208 417 l 208 556 l 69 556 z m 208 0 l 764 0 l 764 139 l 208 139 z m 208 556 l 625 556 l 625 694 l 208 694 z m 486 833 l 625 833 l 625 972 l 486 972 z "},"ė":{"ha":833,"x_min":0,"x_max":0,"o":"m 486 833 l 486 972 l 347 972 l 347 833 z m 69 139 l 208 139 l 208 278 l 764 278 l 764 556 l 625 556 l 625 417 l 208 417 l 208 556 l 69 556 z m 208 0 l 764 0 l 764 139 l 208 139 z m 208 556 l 625 556 l 625 694 l 208 694 z "},"è":{"ha":833,"x_min":0,"x_max":0,"o":"m 417 972 l 417 1111 l 278 1111 l 278 972 z m 69 139 l 208 139 l 208 278 l 764 278 l 764 556 l 625 556 l 625 417 l 208 417 l 208 556 l 69 556 z m 208 0 l 764 0 l 764 139 l 208 139 z m 208 556 l 625 556 l 625 694 l 208 694 z m 417 833 l 556 833 l 556 972 l 417 972 z "},"ē":{"ha":833,"x_min":0,"x_max":0,"o":"m 625 833 l 625 972 l 208 972 l 208 833 z m 69 139 l 208 139 l 208 278 l 764 278 l 764 556 l 625 556 l 625 417 l 208 417 l 208 556 l 69 556 z m 208 0 l 764 0 l 764 139 l 208 139 z m 208 556 l 625 556 l 625 694 l 208 694 z "},"ę":{"ha":833,"x_min":0,"x_max":0,"o":"m 625 556 l 625 694 l 208 694 l 208 556 z m 69 139 l 208 139 l 208 278 l 764 278 l 764 556 l 625 556 l 625 417 l 208 417 l 208 556 l 69 556 z m 208 0 l 625 0 l 625 -139 l 764 -139 l 764 139 l 208 139 z m 486 -278 l 625 -278 l 625 -139 l 486 -139 z m 625 -417 l 764 -417 l 764 -278 l 625 -278 z "},"f":{"ha":819,"x_min":0,"x_max":0,"o":"m 764 833 l 764 972 l 347 972 l 347 833 z m 69 556 l 208 556 l 208 0 l 347 0 l 347 556 l 625 556 l 625 694 l 347 694 l 347 833 l 208 833 l 208 694 l 69 694 z "},"g":{"ha":833,"x_min":0,"x_max":0,"o":"m 208 139 l 208 556 l 69 556 l 69 139 z m 69 -278 l 625 -278 l 625 -139 l 69 -139 z m 208 0 l 625 0 l 625 -139 l 764 -139 l 764 694 l 208 694 l 208 556 l 625 556 l 625 139 l 208 139 z "},"ğ":{"ha":833,"x_min":0,"x_max":0,"o":"m 347 972 l 347 1111 l 208 1111 l 208 972 z m 69 -278 l 625 -278 l 625 -139 l 69 -139 z m 69 139 l 208 139 l 208 556 l 69 556 z m 208 0 l 625 0 l 625 -139 l 764 -139 l 764 694 l 208 694 l 208 556 l 625 556 l 625 139 l 208 139 z m 347 833 l 486 833 l 486 972 l 347 972 z m 486 972 l 625 972 l 625 1111 l 486 1111 z "},"ģ":{"ha":833,"x_min":0,"x_max":0,"o":"m 556 972 l 556 1111 l 417 1111 l 417 972 z m 69 -278 l 625 -278 l 625 -139 l 69 -139 z m 69 139 l 208 139 l 208 556 l 69 556 z m 208 0 l 625 0 l 625 -139 l 764 -139 l 764 694 l 208 694 l 208 556 l 625 556 l 625 139 l 208 139 z m 278 833 l 417 833 l 417 972 l 278 972 z "},"ġ":{"ha":833,"x_min":0,"x_max":0,"o":"m 486 833 l 486 972 l 347 972 l 347 833 z m 69 -278 l 625 -278 l 625 -139 l 69 -139 z m 69 139 l 208 139 l 208 556 l 69 556 z m 208 0 l 625 0 l 625 -139 l 764 -139 l 764 694 l 208 694 l 208 556 l 625 556 l 625 139 l 208 139 z "},"h":{"ha":833,"x_min":0,"x_max":0,"o":"m 208 694 l 208 972 l 69 972 l 69 0 l 208 0 l 208 556 l 625 556 l 625 694 z m 625 0 l 764 0 l 764 556 l 625 556 z "},"ħ":{"ha":958,"x_min":0,"x_max":0,"o":"m 56 899 l 56 760 l 194 760 l 194 0 l 333 0 l 333 556 l 750 556 l 750 694 l 333 694 l 333 760 l 611 760 l 611 899 l 333 899 l 333 972 l 194 972 l 194 899 z m 750 0 l 889 0 l 889 556 l 750 556 z "},"i":{"ha":306,"x_min":0,"x_max":0,"o":"m 222 833 l 222 972 l 83 972 l 83 833 z m 83 0 l 222 0 l 222 694 l 83 694 z "},"ı":{"ha":306,"x_min":0,"x_max":0,"o":"m 222 0 l 222 694 l 83 694 l 83 0 z "},"í":{"ha":306,"x_min":0,"x_max":0,"o":"m 292 972 l 292 1111 l 153 1111 l 153 972 z m 14 833 l 153 833 l 153 972 l 14 972 z m 83 0 l 222 0 l 222 694 l 83 694 z "},"î":{"ha":306,"x_min":0,"x_max":0,"o":"m 222 972 l 222 1111 l 83 1111 l 83 972 z m -56 833 l 83 833 l 83 972 l -56 972 z m 83 0 l 222 0 l 222 694 l 83 694 z m 222 833 l 361 833 l 361 972 l 222 972 z "},"ï":{"ha":528,"x_min":0,"x_max":0,"o":"m 194 833 l 194 972 l 56 972 l 56 833 z m 194 0 l 333 0 l 333 694 l 194 694 z m 333 833 l 472 833 l 472 972 l 333 972 z "},"ì":{"ha":306,"x_min":0,"x_max":0,"o":"m 153 972 l 153 1111 l 14 1111 l 14 972 z m 83 0 l 222 0 l 222 694 l 83 694 z m 153 833 l 292 833 l 292 972 l 153 972 z "},"ī":{"ha":306,"x_min":0,"x_max":0,"o":"m 361 833 l 361 972 l -56 972 l -56 833 z m 83 0 l 222 0 l 222 694 l 83 694 z "},"į":{"ha":306,"x_min":0,"x_max":0,"o":"m 222 833 l 222 972 l 83 972 l 83 833 z m -56 -278 l 83 -278 l 83 -139 l -56 -139 z m 83 -417 l 222 -417 l 222 -278 l 83 -278 z m 83 -139 l 222 -139 l 222 694 l 83 694 z "},"j":{"ha":681,"x_min":0,"x_max":0,"o":"m 611 833 l 611 972 l 472 972 l 472 833 z m 56 -278 l 472 -278 l 472 -139 l 56 -139 z m 472 -139 l 611 -139 l 611 694 l 472 694 z "},"ȷ":{"ha":681,"x_min":0,"x_max":0,"o":"m 611 -139 l 611 694 l 472 694 l 472 -139 z m 56 -278 l 472 -278 l 472 -139 l 56 -139 z "},"k":{"ha":833,"x_min":0,"x_max":0,"o":"m 208 417 l 208 972 l 69 972 l 69 0 l 208 0 l 208 278 l 486 278 l 486 417 z m 486 139 l 625 139 l 625 278 l 486 278 z m 486 417 l 625 417 l 625 556 l 486 556 z m 625 0 l 764 0 l 764 139 l 625 139 z m 625 556 l 764 556 l 764 694 l 625 694 z "},"ķ":{"ha":833,"x_min":0,"x_max":0,"o":"m 208 417 l 208 972 l 69 972 l 69 0 l 208 0 l 208 278 l 486 278 l 486 417 z m 278 -417 l 417 -417 l 417 -278 l 278 -278 z m 417 -278 l 556 -278 l 556 -139 l 417 -139 z m 486 139 l 625 139 l 625 278 l 486 278 z m 486 417 l 625 417 l 625 556 l 486 556 z m 625 0 l 764 0 l 764 139 l 625 139 z m 625 556 l 764 556 l 764 694 l 625 694 z "},"l":{"ha":306,"x_min":0,"x_max":0,"o":"m 222 0 l 222 972 l 83 972 l 83 0 z "},"ĺ":{"ha":306,"x_min":0,"x_max":0,"o":"m 292 1250 l 292 1389 l 153 1389 l 153 1250 z m 14 1111 l 153 1111 l 153 1250 l 14 1250 z m 83 0 l 222 0 l 222 972 l 83 972 z "},"ľ":{"ha":306,"x_min":0,"x_max":0,"o":"m 83 1250 l 83 1389 l -56 1389 l -56 1250 z m 83 0 l 222 0 l 222 972 l 83 972 z m 83 1111 l 222 1111 l 222 1250 l 83 1250 z m 222 1250 l 361 1250 l 361 1389 l 222 1389 z "},"ļ":{"ha":444,"x_min":0,"x_max":0,"o":"m 292 0 l 292 972 l 153 972 l 153 0 z m 83 -417 l 222 -417 l 222 -278 l 83 -278 z m 222 -278 l 361 -278 l 361 -139 l 222 -139 z "},"ł":{"ha":583,"x_min":0,"x_max":0,"o":"m 83 554 l 83 415 l 222 415 l 222 0 l 361 0 l 361 554 l 500 554 l 500 693 l 361 693 l 361 972 l 222 972 l 222 554 z "},"m":{"ha":1111,"x_min":0,"x_max":0,"o":"m 486 556 l 486 694 l 69 694 l 69 0 l 208 0 l 208 556 z m 486 0 l 625 0 l 625 556 l 486 556 z m 625 556 l 903 556 l 903 694 l 625 694 z m 903 0 l 1042 0 l 1042 556 l 903 556 z "},"n":{"ha":833,"x_min":0,"x_max":0,"o":"m 625 556 l 625 694 l 69 694 l 69 0 l 208 0 l 208 557 z m 625 0 l 764 0 l 764 556 l 625 556 z "},"ń":{"ha":833,"x_min":0,"x_max":0,"o":"m 556 972 l 556 1111 l 417 1111 l 417 972 z m 69 0 l 208 0 l 208 557 l 625 556 l 625 694 l 69 694 z m 278 833 l 417 833 l 417 972 l 278 972 z m 625 0 l 764 0 l 764 556 l 625 556 z "},"ň":{"ha":833,"x_min":0,"x_max":0,"o":"m 347 972 l 347 1111 l 208 1111 l 208 972 z m 69 0 l 208 0 l 208 557 l 625 556 l 625 694 l 69 694 z m 347 833 l 486 833 l 486 972 l 347 972 z m 486 972 l 625 972 l 625 1111 l 486 1111 z m 625 0 l 764 0 l 764 556 l 625 556 z "},"ņ":{"ha":833,"x_min":0,"x_max":0,"o":"m 625 556 l 625 694 l 69 694 l 69 0 l 208 0 l 208 557 z m 278 -417 l 417 -417 l 417 -278 l 278 -278 z m 417 -278 l 556 -278 l 556 -139 l 417 -139 z m 625 0 l 764 0 l 764 556 l 625 556 z "},"ŋ":{"ha":833,"x_min":0,"x_max":0,"o":"m 625 556 l 625 694 l 69 694 l 69 0 l 208 0 l 208 557 z m 486 -278 l 625 -278 l 625 -139 l 486 -139 z m 625 -139 l 764 -139 l 764 556 l 625 556 z "},"ñ":{"ha":833,"x_min":0,"x_max":0,"o":"m 417 972 l 417 1111 l 278 1111 l 278 972 z m 69 0 l 208 0 l 208 557 l 625 556 l 625 694 l 69 694 z m 139 833 l 278 833 l 278 972 l 139 972 z m 417 833 l 556 833 l 556 972 l 417 972 z m 556 972 l 694 972 l 694 1111 l 556 1111 z m 625 0 l 764 0 l 764 556 l 625 556 z "},"o":{"ha":833,"x_min":0,"x_max":0,"o":"m 625 556 l 625 694 l 208 694 l 208 556 z m 69 139 l 208 139 l 208 556 l 69 556 z m 208 0 l 625 0 l 625 139 l 208 139 z m 625 139 l 764 139 l 764 556 l 625 556 z "},"ó":{"ha":833,"x_min":0,"x_max":0,"o":"m 556 972 l 556 1111 l 417 1111 l 417 972 z m 69 139 l 208 139 l 208 556 l 69 556 z m 208 0 l 625 0 l 625 139 l 208 139 z m 208 556 l 625 556 l 625 694 l 208 694 z m 278 833 l 417 833 l 417 972 l 278 972 z m 625 139 l 764 139 l 764 556 l 625 556 z "},"ô":{"ha":833,"x_min":0,"x_max":0,"o":"m 486 972 l 486 1111 l 347 1111 l 347 972 z m 69 139 l 208 139 l 208 556 l 69 556 z m 208 0 l 625 0 l 625 139 l 208 139 z m 208 556 l 625 556 l 625 694 l 208 694 z m 208 833 l 347 833 l 347 972 l 208 972 z m 486 833 l 625 833 l 625 972 l 486 972 z m 625 139 l 764 139 l 764 556 l 625 556 z "},"ö":{"ha":833,"x_min":0,"x_max":0,"o":"m 347 833 l 347 972 l 208 972 l 208 833 z m 69 139 l 208 139 l 208 556 l 69 556 z m 208 0 l 625 0 l 625 139 l 208 139 z m 208 556 l 625 556 l 625 694 l 208 694 z m 486 833 l 625 833 l 625 972 l 486 972 z m 625 139 l 764 139 l 764 556 l 625 556 z "},"ò":{"ha":833,"x_min":0,"x_max":0,"o":"m 417 972 l 417 1111 l 278 1111 l 278 972 z m 69 139 l 208 139 l 208 556 l 69 556 z m 208 0 l 625 0 l 625 139 l 208 139 z m 208 556 l 625 556 l 625 694 l 208 694 z m 417 833 l 556 833 l 556 972 l 417 972 z m 625 139 l 764 139 l 764 556 l 625 556 z "},"ő":{"ha":833,"x_min":0,"x_max":0,"o":"m 417 972 l 417 1111 l 278 1111 l 278 972 z m 69 139 l 208 139 l 208 556 l 69 556 z m 139 833 l 278 833 l 278 972 l 139 972 z m 208 0 l 625 0 l 625 139 l 208 139 z m 208 556 l 625 556 l 625 694 l 208 694 z m 417 833 l 556 833 l 556 972 l 417 972 z m 556 972 l 694 972 l 694 1111 l 556 1111 z m 625 139 l 764 139 l 764 556 l 625 556 z "},"ō":{"ha":833,"x_min":0,"x_max":0,"o":"m 625 833 l 625 972 l 208 972 l 208 833 z m 69 139 l 208 139 l 208 556 l 69 556 z m 208 0 l 625 0 l 625 139 l 208 139 z m 208 556 l 625 556 l 625 694 l 208 694 z m 625 139 l 764 139 l 764 556 l 625 556 z "},"ø":{"ha":1083,"x_min":0,"x_max":0,"o":"m 611 278 l 611 417 l 472 417 l 472 278 z m 56 139 l 333 139 l 333 0 l 750 0 l 750 139 l 472 139 l 472 278 l 333 278 l 333 556 l 194 556 l 194 278 l 56 278 z m 333 556 l 611 556 l 611 417 l 750 417 l 750 139 l 889 139 l 889 418 l 1028 418 l 1028 557 l 889 557 l 889 556 l 750 556 l 750 694 l 333 694 z "},"õ":{"ha":833,"x_min":0,"x_max":0,"o":"m 417 972 l 417 1111 l 278 1111 l 278 972 z m 69 139 l 208 139 l 208 556 l 69 556 z m 139 833 l 278 833 l 278 972 l 139 972 z m 208 0 l 625 0 l 625 139 l 208 139 z m 208 556 l 625 556 l 625 694 l 208 694 z m 417 833 l 556 833 l 556 972 l 417 972 z m 556 972 l 694 972 l 694 1111 l 556 1111 z m 625 139 l 764 139 l 764 556 l 625 556 z "},"œ":{"ha":1389,"x_min":0,"x_max":0,"o":"m 625 556 l 625 694 l 208 694 l 208 556 z m 69 139 l 208 139 l 208 556 l 69 556 z m 208 0 l 625 0 l 625 139 l 208 139 z m 625 139 l 764 139 l 764 278 l 1319 278 l 1319 556 l 1181 556 l 1181 417 l 764 417 l 764 556 l 625 556 z m 764 0 l 1319 0 l 1319 139 l 764 139 z m 764 556 l 1181 556 l 1181 694 l 764 694 z "},"p":{"ha":833,"x_min":0,"x_max":0,"o":"m 625 556 l 625 694 l 69 694 l 69 -278 l 208 -278 l 208 0 l 625 0 l 625 139 l 208 139 l 208 556 z m 625 139 l 764 139 l 764 556 l 625 556 z "},"þ":{"ha":833,"x_min":0,"x_max":0,"o":"m 208 694 l 208 972 l 69 972 l 69 -208 l 208 -208 l 208 0 l 625 0 l 625 139 l 208 139 l 208 556 l 625 556 l 625 694 z m 625 139 l 764 139 l 764 556 l 625 556 z "},"q":{"ha":833,"x_min":0,"x_max":0,"o":"m 208 139 l 208 556 l 69 556 l 69 139 z m 208 0 l 625 0 l 625 -278 l 764 -278 l 764 694 l 208 694 l 208 556 l 625 556 l 625 139 l 208 139 z "},"r":{"ha":819,"x_min":0,"x_max":0,"o":"m 764 556 l 764 694 l 208 694 l 208 556 z m 69 0 l 208 0 l 208 556 l 69 556 z "},"ŕ":{"ha":819,"x_min":0,"x_max":0,"o":"m 549 972 l 549 1111 l 410 1111 l 410 972 z m 69 0 l 208 0 l 208 556 l 69 556 z m 208 556 l 764 556 l 764 694 l 208 694 z m 271 833 l 410 833 l 410 972 l 271 972 z "},"ř":{"ha":819,"x_min":0,"x_max":0,"o":"m 201 1111 l 201 972 l 340 972 l 340 1111 z m 69 0 l 208 0 l 208 556 l 69 556 z m 208 556 l 764 556 l 764 694 l 208 694 z m 340 833 l 479 833 l 479 972 l 340 972 z m 479 972 l 618 972 l 618 1111 l 479 1111 z "},"ŗ":{"ha":819,"x_min":0,"x_max":0,"o":"m 764 556 l 764 694 l 208 694 l 208 556 z m 69 -417 l 208 -417 l 208 -278 l 69 -278 z m 69 0 l 208 0 l 208 556 l 69 556 z m 208 -278 l 347 -278 l 347 -139 l 208 -139 z "},"s":{"ha":833,"x_min":0,"x_max":0,"o":"m 764 556 l 764 694 l 208 694 l 208 556 z m 69 0 l 625 0 l 625 139 l 69 139 z m 69 417 l 208 417 l 208 556 l 69 556 z m 208 278 l 625 278 l 625 417 l 208 417 z m 625 139 l 764 139 l 764 278 l 625 278 z "},"ś":{"ha":833,"x_min":0,"x_max":0,"o":"m 556 972 l 556 1111 l 417 1111 l 417 972 z m 69 0 l 625 0 l 625 139 l 69 139 z m 69 417 l 208 417 l 208 556 l 69 556 z m 208 278 l 625 278 l 625 417 l 208 417 z m 208 556 l 764 556 l 764 694 l 208 694 z m 278 833 l 417 833 l 417 972 l 278 972 z m 625 139 l 764 139 l 764 278 l 625 278 z "},"š":{"ha":833,"x_min":0,"x_max":0,"o":"m 208 1111 l 208 972 l 347 972 l 347 1111 z m 69 0 l 625 0 l 625 139 l 69 139 z m 69 417 l 208 417 l 208 556 l 69 556 z m 208 278 l 625 278 l 625 417 l 208 417 z m 208 556 l 764 556 l 764 694 l 208 694 z m 347 833 l 486 833 l 486 972 l 347 972 z m 486 972 l 625 972 l 625 1111 l 486 1111 z m 625 139 l 764 139 l 764 278 l 625 278 z "},"ş":{"ha":833,"x_min":0,"x_max":0,"o":"m 764 556 l 764 694 l 208 694 l 208 556 z m 69 0 l 347 0 l 347 -139 l 486 -139 l 486 0 l 625 0 l 625 139 l 69 139 z m 69 417 l 208 417 l 208 556 l 69 556 z m 208 278 l 625 278 l 625 417 l 208 417 z m 347 -417 l 486 -417 l 486 -278 l 347 -278 z m 486 -278 l 625 -278 l 625 -139 l 486 -139 z m 625 139 l 764 139 l 764 278 l 625 278 z "},"ș":{"ha":833,"x_min":0,"x_max":0,"o":"m 764 556 l 764 694 l 208 694 l 208 556 z m 69 0 l 625 0 l 625 139 l 69 139 z m 69 417 l 208 417 l 208 556 l 69 556 z m 208 278 l 625 278 l 625 417 l 208 417 z m 278 -417 l 417 -417 l 417 -278 l 278 -278 z m 417 -278 l 556 -278 l 556 -139 l 417 -139 z m 625 139 l 764 139 l 764 278 l 625 278 z "},"ß":{"ha":931,"x_min":0,"x_max":0,"o":"m 694 833 l 694 972 l 278 972 l 278 833 z m 139 0 l 278 0 l 278 833 l 139 833 z m 417 0 l 689 0 l 689 139 l 417 139 z m 417 417 l 689 417 l 689 556 l 417 556 z m 694 139 l 833 139 l 833 417 l 694 417 z m 694 556 l 833 556 l 833 833 l 694 833 z "},"t":{"ha":806,"x_min":0,"x_max":0,"o":"m 56 696 l 56 557 l 194 557 l 194 139 l 333 139 l 333 557 l 611 557 l 611 696 l 333 696 l 333 833 l 194 833 l 194 696 z m 333 0 l 750 0 l 750 139 l 333 139 z "},"ŧ":{"ha":806,"x_min":0,"x_max":0,"o":"m 56 417 l 56 279 l 194 279 l 194 139 l 333 139 l 333 279 l 611 278 l 611 415 l 333 417 l 333 557 l 611 557 l 611 696 l 333 696 l 333 833 l 194 833 l 194 696 l 56 696 l 56 557 l 194 557 l 194 417 z m 333 0 l 750 0 l 750 139 l 333 139 z "},"ť":{"ha":806,"x_min":0,"x_max":0,"o":"m 194 1111 l 194 1250 l 56 1250 l 56 1111 z m 56 557 l 194 557 l 194 139 l 333 139 l 333 557 l 611 557 l 611 696 l 333 696 l 333 833 l 194 833 l 194 696 l 56 696 z m 194 972 l 333 972 l 333 1111 l 194 1111 z m 333 0 l 750 0 l 750 139 l 333 139 z m 333 1111 l 472 1111 l 472 1250 l 333 1250 z "},"ţ":{"ha":806,"x_min":0,"x_max":0,"o":"m 56 696 l 56 557 l 194 557 l 194 139 l 333 139 l 333 557 l 611 557 l 611 696 l 333 696 l 333 833 l 194 833 l 194 696 z m 333 0 l 472 0 l 472 -139 l 611 -139 l 611 0 l 750 0 l 750 139 l 333 139 z m 472 -417 l 611 -417 l 611 -278 l 472 -278 z m 611 -278 l 750 -278 l 750 -139 l 611 -139 z "},"ț":{"ha":806,"x_min":0,"x_max":0,"o":"m 56 696 l 56 557 l 194 557 l 194 139 l 333 139 l 333 557 l 611 557 l 611 696 l 333 696 l 333 833 l 194 833 l 194 696 z m 333 0 l 750 0 l 750 139 l 333 139 z m 403 -417 l 542 -417 l 542 -278 l 403 -278 z m 542 -278 l 681 -278 l 681 -139 l 542 -139 z "},"u":{"ha":833,"x_min":0,"x_max":0,"o":"m 208 139 l 208 694 l 69 694 l 69 139 z m 208 1 l 764 0 l 764 694 l 625 694 l 625 138 l 208 139 z "},"ú":{"ha":833,"x_min":0,"x_max":0,"o":"m 556 972 l 556 1111 l 417 1111 l 417 972 z m 69 139 l 208 139 l 208 694 l 69 694 z m 208 1 l 764 0 l 764 694 l 625 694 l 625 138 l 208 139 z m 278 833 l 417 833 l 417 972 l 278 972 z "},"û":{"ha":833,"x_min":0,"x_max":0,"o":"m 486 972 l 486 1111 l 347 1111 l 347 972 z m 69 139 l 208 139 l 208 694 l 69 694 z m 208 1 l 764 0 l 764 694 l 625 694 l 625 138 l 208 139 z m 208 833 l 347 833 l 347 972 l 208 972 z m 486 833 l 625 833 l 625 972 l 486 972 z "},"ü":{"ha":833,"x_min":0,"x_max":0,"o":"m 347 833 l 347 972 l 208 972 l 208 833 z m 69 139 l 208 139 l 208 694 l 69 694 z m 208 1 l 764 0 l 764 694 l 625 694 l 625 138 l 208 139 z m 486 833 l 625 833 l 625 972 l 486 972 z "},"ù":{"ha":833,"x_min":0,"x_max":0,"o":"m 417 972 l 417 1111 l 278 1111 l 278 972 z m 69 139 l 208 139 l 208 694 l 69 694 z m 208 1 l 764 0 l 764 694 l 625 694 l 625 138 l 208 139 z m 417 833 l 556 833 l 556 972 l 417 972 z "},"ű":{"ha":833,"x_min":0,"x_max":0,"o":"m 417 972 l 417 1111 l 278 1111 l 278 972 z m 69 139 l 208 139 l 208 694 l 69 694 z m 139 833 l 278 833 l 278 972 l 139 972 z m 208 1 l 764 0 l 764 694 l 625 694 l 625 138 l 208 139 z m 417 833 l 556 833 l 556 972 l 417 972 z m 556 972 l 694 972 l 694 1111 l 556 1111 z "},"ū":{"ha":833,"x_min":0,"x_max":0,"o":"m 625 833 l 625 972 l 208 972 l 208 833 z m 69 139 l 208 139 l 208 694 l 69 694 z m 208 1 l 764 0 l 764 694 l 625 694 l 625 138 l 208 139 z "},"ų":{"ha":833,"x_min":0,"x_max":0,"o":"m 208 139 l 208 694 l 69 694 l 69 139 z m 208 1 l 625 0 l 625 -139 l 764 -139 l 764 694 l 625 694 l 625 138 l 208 139 z m 486 -278 l 625 -278 l 625 -139 l 486 -139 z m 625 -417 l 764 -417 l 764 -278 l 625 -278 z "},"ů":{"ha":833,"x_min":0,"x_max":0,"o":"m 556 833 l 556 1111 l 278 1111 l 278 833 z m 69 139 l 208 139 l 208 694 l 69 694 z m 208 1 l 764 0 l 764 694 l 625 694 l 625 138 l 208 139 z m 378 931 l 378 1011 l 458 1011 l 458 931 z "},"v":{"ha":806,"x_min":0,"x_max":0,"o":"m 194 278 l 194 694 l 56 694 l 56 278 z m 194 139 l 333 139 l 333 278 l 194 278 z m 333 0 l 472 0 l 472 139 l 333 139 z m 472 139 l 611 139 l 611 278 l 472 278 z m 611 278 l 750 278 l 750 694 l 611 694 z "},"w":{"ha":1111,"x_min":0,"x_max":0,"o":"m 208 138 l 208 694 l 69 694 l 69 138 z m 208 -1 l 486 0 l 486 139 l 208 138 z m 486 139 l 625 139 l 625 556 l 486 556 z m 625 0 l 903 0 l 903 139 l 625 139 z m 903 139 l 1042 139 l 1042 694 l 903 694 z "},"ẃ":{"ha":1111,"x_min":0,"x_max":0,"o":"m 694 972 l 694 1111 l 556 1111 l 556 972 z m 69 138 l 208 138 l 208 694 l 69 694 z m 208 -1 l 486 0 l 486 139 l 208 138 z m 417 833 l 556 833 l 556 972 l 417 972 z m 486 139 l 625 139 l 625 556 l 486 556 z m 625 0 l 903 0 l 903 139 l 625 139 z m 903 139 l 1042 139 l 1042 694 l 903 694 z "},"ŵ":{"ha":1111,"x_min":0,"x_max":0,"o":"m 625 972 l 625 1111 l 486 1111 l 486 972 z m 69 138 l 208 138 l 208 694 l 69 694 z m 208 -1 l 486 0 l 486 139 l 208 138 z m 347 833 l 486 833 l 486 972 l 347 972 z m 486 139 l 625 139 l 625 556 l 486 556 z m 625 0 l 903 0 l 903 139 l 625 139 z m 625 833 l 764 833 l 764 972 l 625 972 z m 903 139 l 1042 139 l 1042 694 l 903 694 z "},"ẅ":{"ha":1111,"x_min":0,"x_max":0,"o":"m 486 833 l 486 972 l 347 972 l 347 833 z m 69 138 l 208 138 l 208 694 l 69 694 z m 208 -1 l 486 0 l 486 139 l 208 138 z m 486 139 l 625 139 l 625 556 l 486 556 z m 625 0 l 903 0 l 903 139 l 625 139 z m 625 833 l 764 833 l 764 972 l 625 972 z m 903 139 l 1042 139 l 1042 694 l 903 694 z "},"ẁ":{"ha":1111,"x_min":0,"x_max":0,"o":"m 556 972 l 556 1111 l 417 1111 l 417 972 z m 69 138 l 208 138 l 208 694 l 69 694 z m 208 -1 l 486 0 l 486 139 l 208 138 z m 486 139 l 625 139 l 625 556 l 486 556 z m 556 833 l 694 833 l 694 972 l 556 972 z m 625 0 l 903 0 l 903 139 l 625 139 z m 903 139 l 1042 139 l 1042 694 l 903 694 z "},"x":{"ha":833,"x_min":0,"x_max":0,"o":"m 208 556 l 208 694 l 69 694 l 69 556 z m 69 0 l 208 0 l 208 139 l 69 139 z m 208 139 l 347 139 l 347 278 l 208 278 z m 208 417 l 347 417 l 347 556 l 208 556 z m 347 278 l 486 278 l 486 417 l 347 417 z m 486 139 l 625 139 l 625 278 l 486 278 z m 486 417 l 625 417 l 625 556 l 486 556 z m 625 0 l 764 0 l 764 139 l 625 139 z m 625 556 l 764 556 l 764 694 l 625 694 z "},"y":{"ha":819,"x_min":0,"x_max":0,"o":"m 194 139 l 194 694 l 56 694 l 56 139 z m 56 -278 l 333 -278 l 333 -139 l 56 -139 z m 194 0 l 333 0 l 333 139 l 194 139 z m 333 -139 l 472 -139 l 472 0 l 333 0 z m 472 0 l 611 0 l 611 139 l 472 139 z m 611 139 l 750 139 l 750 694 l 611 694 z "},"ý":{"ha":819,"x_min":0,"x_max":0,"o":"m 549 972 l 549 1111 l 410 1111 l 410 972 z m 56 -278 l 333 -278 l 333 -139 l 56 -139 z m 56 139 l 194 139 l 194 694 l 56 694 z m 194 0 l 333 0 l 333 139 l 194 139 z m 271 833 l 410 833 l 410 972 l 271 972 z m 333 -139 l 472 -139 l 472 0 l 333 0 z m 472 0 l 611 0 l 611 139 l 472 139 z m 611 139 l 750 139 l 750 694 l 611 694 z "},"ŷ":{"ha":819,"x_min":0,"x_max":0,"o":"m 479 972 l 479 1111 l 340 1111 l 340 972 z m 56 -278 l 333 -278 l 333 -139 l 56 -139 z m 56 139 l 194 139 l 194 694 l 56 694 z m 194 0 l 333 0 l 333 139 l 194 139 z m 201 833 l 340 833 l 340 972 l 201 972 z m 333 -139 l 472 -139 l 472 0 l 333 0 z m 472 0 l 611 0 l 611 139 l 472 139 z m 479 833 l 618 833 l 618 972 l 479 972 z m 611 139 l 750 139 l 750 694 l 611 694 z "},"ÿ":{"ha":819,"x_min":0,"x_max":0,"o":"m 340 833 l 340 972 l 201 972 l 201 833 z m 56 -278 l 333 -278 l 333 -139 l 56 -139 z m 56 139 l 194 139 l 194 694 l 56 694 z m 194 0 l 333 0 l 333 139 l 194 139 z m 333 -139 l 472 -139 l 472 0 l 333 0 z m 472 0 l 611 0 l 611 139 l 472 139 z m 479 833 l 618 833 l 618 972 l 479 972 z m 611 139 l 750 139 l 750 694 l 611 694 z "},"ỳ":{"ha":819,"x_min":0,"x_max":0,"o":"m 410 972 l 410 1111 l 271 1111 l 271 972 z m 56 -278 l 333 -278 l 333 -139 l 56 -139 z m 56 139 l 194 139 l 194 694 l 56 694 z m 194 0 l 333 0 l 333 139 l 194 139 z m 333 -139 l 472 -139 l 472 0 l 333 0 z m 410 833 l 549 833 l 549 972 l 410 972 z m 472 0 l 611 0 l 611 139 l 472 139 z m 611 139 l 750 139 l 750 694 l 611 694 z "},"z":{"ha":833,"x_min":0,"x_max":0,"o":"m 69 694 l 69 556 l 625 556 l 625 451 l 764 451 l 764 694 z m 69 0 l 764 0 l 764 139 l 196 139 l 196 244 l 69 244 z m 196 244 l 417 244 l 417 346 l 196 346 z m 417 346 l 625 346 l 625 451 l 417 451 z "},"ź":{"ha":833,"x_min":0,"x_max":0,"o":"m 556 972 l 556 1111 l 417 1111 l 417 972 z m 69 0 l 764 0 l 764 139 l 196 139 l 196 244 l 69 244 z m 69 556 l 625 556 l 625 451 l 764 451 l 764 694 l 69 694 z m 196 244 l 417 244 l 417 346 l 196 346 z m 278 833 l 417 833 l 417 972 l 278 972 z m 417 346 l 625 346 l 625 451 l 417 451 z "},"ž":{"ha":833,"x_min":0,"x_max":0,"o":"m 347 972 l 347 1111 l 208 1111 l 208 972 z m 69 0 l 764 0 l 764 139 l 196 139 l 196 244 l 69 244 z m 69 556 l 625 556 l 625 451 l 764 451 l 764 694 l 69 694 z m 196 244 l 417 244 l 417 346 l 196 346 z m 347 833 l 486 833 l 486 972 l 347 972 z m 417 346 l 625 346 l 625 451 l 417 451 z m 486 972 l 625 972 l 625 1111 l 486 1111 z "},"ż":{"ha":833,"x_min":0,"x_max":0,"o":"m 486 833 l 486 972 l 347 972 l 347 833 z m 69 0 l 764 0 l 764 139 l 196 139 l 196 244 l 69 244 z m 69 556 l 625 556 l 625 451 l 764 451 l 764 694 l 69 694 z m 196 244 l 417 244 l 417 346 l 196 346 z m 417 346 l 625 346 l 625 451 l 417 451 z "},"А":{"ha":917,"x_min":0,"x_max":0,"o":"m 528 833 l 528 972 l 389 972 l 389 833 z m 111 0 l 250 0 l 250 347 l 667 347 l 667 0 l 806 0 l 806 694 l 667 694 l 667 486 l 250 486 l 250 694 l 111 694 z m 250 694 l 389 694 l 389 833 l 250 833 z m 528 694 l 667 694 l 667 833 l 528 833 z "},"Б":{"ha":931,"x_min":0,"x_max":0,"o":"m 833 833 l 833 972 l 139 972 l 139 0 l 694 0 l 694 139 l 278 139 l 278 486 l 694 486 l 694 625 l 278 625 l 278 833 z m 694 139 l 833 139 l 833 486 l 694 486 z "},"В":{"ha":931,"x_min":0,"x_max":0,"o":"m 694 833 l 694 972 l 139 972 l 139 0 l 694 0 l 694 139 l 278 139 l 278 417 l 694 417 l 694 556 l 278 556 l 278 833 z m 694 139 l 833 139 l 833 417 l 694 417 z m 694 556 l 833 556 l 833 833 l 694 833 z "},"Г":{"ha":903,"x_min":0,"x_max":0,"o":"m 833 833 l 833 972 l 139 972 l 139 0 l 278 0 l 278 833 z "},"Ѓ":{"ha":903,"x_min":0,"x_max":0,"o":"m 590 1250 l 590 1389 l 451 1389 l 451 1250 z m 139 0 l 278 0 l 278 833 l 833 833 l 833 972 l 139 972 z m 313 1111 l 451 1111 l 451 1250 l 313 1250 z "},"Ґ":{"ha":931,"x_min":0,"x_max":0,"o":"m 694 1111 l 694 972 l 139 972 l 139 0 l 278 0 l 278 833 l 833 833 l 833 1111 z "},"Д":{"ha":833,"x_min":0,"x_max":0,"o":"m 139 833 l 139 139 l 0 139 l 0 -139 l 139 -139 l 139 0 l 694 0 l 694 -139 l 833 -139 l 833 139 l 694 139 l 694 972 l 278 972 l 278 833 l 556 833 l 556 139 l 278 139 l 278 833 z "},"Е":{"ha":931,"x_min":0,"x_max":0,"o":"m 833 833 l 833 972 l 139 972 l 139 0 l 833 0 l 833 139 l 278 139 l 278 417 l 694 417 l 694 556 l 278 556 l 278 833 z "},"Ѐ":{"ha":931,"x_min":0,"x_max":0,"o":"m 486 1250 l 486 1389 l 347 1389 l 347 1250 z m 139 0 l 833 0 l 833 139 l 278 139 l 278 417 l 694 417 l 694 556 l 278 556 l 278 833 l 833 833 l 833 972 l 139 972 z m 486 1111 l 625 1111 l 625 1250 l 486 1250 z "},"Ё":{"ha":972,"x_min":0,"x_max":0,"o":"m 417 1111 l 417 1250 l 278 1250 l 278 1111 z m 139 0 l 833 0 l 833 139 l 278 139 l 278 417 l 694 417 l 694 556 l 278 556 l 278 833 l 833 833 l 833 972 l 139 972 z m 556 1111 l 694 1111 l 694 1250 l 556 1250 z "},"Ж":{"ha":1167,"x_min":0,"x_max":0,"o":"m 236 694 l 236 972 l 97 972 l 97 694 z m 97 0 l 236 0 l 236 278 l 97 278 z m 236 278 l 375 278 l 375 417 l 236 417 z m 236 556 l 375 556 l 375 694 l 236 694 z m 375 417 l 514 417 l 514 0 l 653 0 l 653 417 l 792 417 l 792 556 l 653 556 l 653 972 l 514 972 l 514 556 l 375 556 z m 792 278 l 931 278 l 931 417 l 792 417 z m 792 556 l 931 556 l 931 694 l 792 694 z m 931 0 l 1069 0 l 1069 278 l 931 278 z m 931 694 l 1069 694 l 1069 972 l 931 972 z "},"З":{"ha":889,"x_min":0,"x_max":0,"o":"m 653 833 l 653 972 l 97 972 l 97 833 z m 97 0 l 653 0 l 653 139 l 97 139 z m 236 417 l 653 417 l 653 556 l 236 556 z m 653 139 l 792 139 l 792 417 l 653 417 z m 653 556 l 792 556 l 792 833 l 653 833 z "},"И":{"ha":972,"x_min":0,"x_max":0,"o":"m 278 417 l 278 972 l 139 972 l 139 0 l 278 0 l 278 278 l 417 278 l 417 417 z m 417 417 l 556 417 l 556 556 l 417 556 z m 556 556 l 694 556 l 694 0 l 833 0 l 833 972 l 694 972 l 694 694 l 556 694 z "},"Й":{"ha":972,"x_min":0,"x_max":0,"o":"m 694 1111 l 694 1250 l 278 1250 l 278 1111 z m 139 0 l 278 0 l 278 278 l 417 278 l 417 417 l 278 417 l 278 972 l 139 972 z m 417 417 l 556 417 l 556 556 l 417 556 z m 556 556 l 694 556 l 694 0 l 833 0 l 833 972 l 694 972 l 694 694 l 556 694 z "},"Ѝ":{"ha":972,"x_min":0,"x_max":0,"o":"m 486 1250 l 486 1389 l 347 1389 l 347 1250 z m 139 0 l 278 0 l 278 278 l 417 278 l 417 417 l 278 417 l 278 972 l 139 972 z m 417 417 l 556 417 l 556 556 l 417 556 z m 486 1111 l 625 1111 l 625 1250 l 486 1250 z m 556 556 l 694 556 l 694 0 l 833 0 l 833 972 l 694 972 l 694 694 l 556 694 z "},"К":{"ha":931,"x_min":0,"x_max":0,"o":"m 278 556 l 278 972 l 139 972 l 139 0 l 278 0 l 278 417 l 556 417 l 556 556 z m 556 278 l 694 278 l 694 417 l 556 417 z m 556 556 l 694 556 l 694 694 l 556 694 z m 694 0 l 833 0 l 833 278 l 694 278 z m 694 694 l 833 694 l 833 972 l 694 972 z "},"Ќ":{"ha":931,"x_min":0,"x_max":0,"o":"m 625 1250 l 625 1389 l 486 1389 l 486 1250 z m 139 0 l 278 0 l 278 417 l 556 417 l 556 556 l 278 556 l 278 972 l 139 972 z m 347 1111 l 486 1111 l 486 1250 l 347 1250 z m 556 278 l 694 278 l 694 417 l 556 417 z m 556 556 l 694 556 l 694 694 l 556 694 z m 694 0 l 833 0 l 833 278 l 694 278 z m 694 694 l 833 694 l 833 972 l 694 972 z "},"Л":{"ha":931,"x_min":0,"x_max":0,"o":"m 375 139 l 375 833 l 236 833 l 236 139 z m 97 0 l 236 0 l 236 139 l 97 139 z m 375 833 l 653 833 l 653 0 l 792 0 l 792 972 l 375 972 z "},"М":{"ha":1250,"x_min":0,"x_max":0,"o":"m 278 833 l 278 972 l 139 972 l 139 0 l 278 0 l 278 694 l 417 694 l 417 833 z m 417 417 l 556 417 l 556 694 l 417 694 z m 556 139 l 694 139 l 694 417 l 556 417 z m 694 417 l 833 417 l 833 694 l 694 694 z m 833 694 l 972 694 l 972 0 l 1111 0 l 1111 972 l 972 972 l 972 833 l 833 833 z "},"Н":{"ha":972,"x_min":0,"x_max":0,"o":"m 278 556 l 278 972 l 139 972 l 139 0 l 278 0 l 278 417 l 694 417 l 694 0 l 833 0 l 833 972 l 694 972 l 694 556 z "},"О":{"ha":889,"x_min":0,"x_max":0,"o":"m 653 833 l 653 972 l 236 972 l 236 833 z m 97 139 l 236 139 l 236 833 l 97 833 z m 236 0 l 653 0 l 653 139 l 236 139 z m 653 139 l 792 139 l 792 833 l 653 833 z "},"П":{"ha":972,"x_min":0,"x_max":0,"o":"m 833 0 l 833 972 l 139 972 l 139 0 l 278 0 l 278 833 l 694 833 l 694 0 z "},"Р":{"ha":903,"x_min":0,"x_max":0,"o":"m 694 833 l 694 972 l 139 972 l 139 0 l 278 0 l 278 347 l 694 347 l 694 486 l 278 486 l 278 833 z m 694 486 l 833 486 l 833 833 l 694 833 z "},"С":{"ha":847,"x_min":0,"x_max":0,"o":"m 792 833 l 792 972 l 236 972 l 236 833 z m 97 139 l 236 139 l 236 833 l 97 833 z m 236 0 l 792 0 l 792 139 l 236 139 z "},"Т":{"ha":889,"x_min":0,"x_max":0,"o":"m 97 972 l 97 833 l 375 833 l 375 0 l 514 0 l 514 833 l 792 833 l 792 972 z "},"У":{"ha":903,"x_min":0,"x_max":0,"o":"m 278 556 l 278 972 l 139 972 l 139 556 z m 139 0 l 417 0 l 417 139 l 139 139 z m 278 278 l 417 278 l 417 139 l 556 139 l 556 278 l 694 278 l 694 556 l 556 556 l 556 417 l 417 417 l 417 556 l 278 556 z m 694 556 l 833 556 l 833 972 l 694 972 z "},"Ў":{"ha":903,"x_min":0,"x_max":0,"o":"m 417 1250 l 417 1389 l 278 1389 l 278 1250 z m 139 0 l 417 0 l 417 139 l 139 139 z m 139 556 l 278 556 l 278 972 l 139 972 z m 278 278 l 417 278 l 417 139 l 556 139 l 556 278 l 694 278 l 694 556 l 556 556 l 556 417 l 417 417 l 417 556 l 278 556 z m 417 1111 l 556 1111 l 556 1250 l 417 1250 z m 556 1250 l 694 1250 l 694 1389 l 556 1389 z m 694 556 l 833 556 l 833 972 l 694 972 z "},"Ф":{"ha":1167,"x_min":0,"x_max":0,"o":"m 236 278 l 236 694 l 97 694 l 97 278 z m 236 139 l 514 139 l 514 0 l 653 0 l 653 139 l 931 139 l 931 278 l 653 278 l 653 694 l 931 694 l 931 833 l 653 833 l 653 972 l 514 972 l 514 833 l 236 833 l 236 694 l 514 694 l 514 278 l 236 278 z m 931 278 l 1069 278 l 1069 694 l 931 694 z "},"Х":{"ha":889,"x_min":0,"x_max":0,"o":"m 236 694 l 236 972 l 97 972 l 97 694 z m 97 0 l 236 0 l 236 278 l 97 278 z m 236 278 l 375 278 l 375 417 l 236 417 z m 236 556 l 375 556 l 375 694 l 236 694 z m 375 417 l 514 417 l 514 556 l 375 556 z m 514 278 l 653 278 l 653 417 l 514 417 z m 514 556 l 653 556 l 653 694 l 514 694 z m 653 0 l 792 0 l 792 278 l 653 278 z m 653 694 l 792 694 l 792 972 l 653 972 z "},"Ч":{"ha":972,"x_min":0,"x_max":0,"o":"m 278 556 l 278 972 l 139 972 l 139 556 z m 278 417 l 694 417 l 694 0 l 833 0 l 833 972 l 694 972 l 694 556 l 278 556 z "},"Ц":{"ha":972,"x_min":0,"x_max":0,"o":"m 139 972 l 139 0 l 833 0 l 833 -139 l 972 -139 l 972 139 l 833 139 l 833 972 l 694 972 l 694 139 l 278 139 l 278 972 z "},"Ш":{"ha":1250,"x_min":0,"x_max":0,"o":"m 278 139 l 278 972 l 139 972 l 139 0 l 1111 0 l 1111 972 l 972 972 l 972 139 l 694 139 l 694 972 l 556 972 l 556 139 z "},"Щ":{"ha":1319,"x_min":0,"x_max":0,"o":"m 139 972 l 139 0 l 1111 0 l 1111 -139 l 1250 -139 l 1250 139 l 1111 139 l 1111 972 l 972 972 l 972 139 l 694 139 l 694 972 l 556 972 l 556 139 l 278 139 l 278 972 z "},"Џ":{"ha":972,"x_min":0,"x_max":0,"o":"m 139 972 l 139 0 l 415 0 l 415 -139 l 554 -139 l 554 0 l 833 0 l 833 972 l 694 972 l 694 139 l 278 139 l 278 972 z "},"Ь":{"ha":903,"x_min":0,"x_max":0,"o":"m 278 625 l 278 972 l 139 972 l 139 0 l 694 0 l 694 139 l 278 139 l 278 486 l 694 486 l 694 625 z m 694 139 l 833 139 l 833 486 l 694 486 z "},"Ъ":{"ha":972,"x_min":0,"x_max":0,"o":"m 69 972 l 69 833 l 208 833 l 208 0 l 764 0 l 764 139 l 347 139 l 347 486 l 764 486 l 764 625 l 347 625 l 347 972 z m 764 139 l 903 139 l 903 486 l 764 486 z "},"Ы":{"ha":1250,"x_min":0,"x_max":0,"o":"m 278 625 l 278 972 l 139 972 l 139 0 l 694 0 l 694 139 l 278 139 l 278 486 l 694 486 l 694 625 z m 694 139 l 833 139 l 833 486 l 694 486 z m 972 0 l 1111 0 l 1111 972 l 972 972 z "},"Љ":{"ha":1472,"x_min":0,"x_max":0,"o":"m 403 139 l 403 833 l 264 833 l 264 139 z m 125 0 l 264 0 l 264 139 l 125 139 z m 403 833 l 681 833 l 681 0 l 1236 0 l 1236 139 l 819 139 l 819 486 l 1236 486 l 1236 625 l 819 625 l 819 972 l 403 972 z m 1236 139 l 1375 139 l 1375 486 l 1236 486 z "},"Њ":{"ha":1486,"x_min":0,"x_max":0,"o":"m 278 556 l 278 972 l 139 972 l 139 0 l 278 0 l 278 417 l 694 417 l 694 0 l 1250 0 l 1250 139 l 833 139 l 833 486 l 1250 486 l 1250 625 l 833 625 l 833 972 l 694 972 l 694 556 z m 1250 139 l 1389 139 l 1389 486 l 1250 486 z "},"Ѕ":{"ha":889,"x_min":0,"x_max":0,"o":"m 792 833 l 792 972 l 236 972 l 236 833 z m 97 0 l 653 0 l 653 139 l 97 139 z m 97 556 l 236 556 l 236 833 l 97 833 z m 236 417 l 653 417 l 653 556 l 236 556 z m 653 139 l 792 139 l 792 417 l 653 417 z "},"Є":{"ha":875,"x_min":0,"x_max":0,"o":"m 792 833 l 792 972 l 236 972 l 236 833 z m 97 139 l 236 139 l 236 417 l 653 417 l 653 556 l 236 556 l 236 833 l 97 833 z m 236 0 l 792 0 l 792 139 l 236 139 z "},"Э":{"ha":889,"x_min":0,"x_max":0,"o":"m 653 833 l 653 972 l 97 972 l 97 833 z m 97 0 l 653 0 l 653 139 l 97 139 z m 236 417 l 653 417 l 653 139 l 792 139 l 792 833 l 653 833 l 653 556 l 236 556 z "},"І":{"ha":722,"x_min":0,"x_max":0,"o":"m 292 833 l 292 139 l 153 139 l 153 0 l 569 0 l 569 139 l 431 139 l 431 833 l 569 833 l 569 972 l 153 972 l 153 833 z "},"Ї":{"ha":722,"x_min":0,"x_max":0,"o":"m 292 1111 l 292 1250 l 153 1250 l 153 1111 z m 153 0 l 569 0 l 569 139 l 431 139 l 431 833 l 569 833 l 569 972 l 153 972 l 153 833 l 292 833 l 292 139 l 153 139 z m 431 1111 l 569 1111 l 569 1250 l 431 1250 z "},"Ј":{"ha":1000,"x_min":0,"x_max":0,"o":"m 444 972 l 444 833 l 583 833 l 583 139 l 722 139 l 722 833 l 861 833 l 861 972 z m 28 139 l 167 139 l 167 278 l 28 278 z m 167 0 l 583 0 l 583 139 l 167 139 z "},"Ћ":{"ha":1056,"x_min":0,"x_max":0,"o":"m 125 972 l 125 833 l 264 833 l 264 0 l 403 0 l 403 556 l 819 556 l 819 694 l 403 694 l 403 833 l 681 833 l 681 972 z m 819 0 l 958 0 l 958 556 l 819 556 z "},"Ю":{"ha":1208,"x_min":0,"x_max":0,"o":"m 972 833 l 972 972 l 556 972 l 556 833 z m 139 -1 l 278 -1 l 278 415 l 417 415 l 417 139 l 556 139 l 556 833 l 417 833 l 417 554 l 278 554 l 278 971 l 139 971 z m 556 0 l 972 0 l 972 139 l 556 139 z m 972 139 l 1111 139 l 1111 833 l 972 833 z "},"Я":{"ha":972,"x_min":0,"x_max":0,"o":"m 556 278 l 556 417 l 694 417 l 694 0 l 833 0 l 833 972 l 278 972 l 278 833 l 694 833 l 694 556 l 278 556 l 278 417 l 417 417 l 417 278 z m 139 0 l 278 0 l 278 139 l 139 139 z m 139 556 l 278 556 l 278 833 l 139 833 z m 278 139 l 417 139 l 417 278 l 278 278 z "},"Ђ":{"ha":1056,"x_min":0,"x_max":0,"o":"m 125 972 l 125 833 l 264 833 l 264 0 l 403 0 l 403 556 l 819 556 l 819 694 l 403 694 l 403 833 l 681 833 l 681 972 z m 542 0 l 819 0 l 819 139 l 542 139 z m 819 147 l 958 147 l 958 556 l 819 556 z "},"Ѣ":{"ha":1056,"x_min":0,"x_max":0,"o":"m 125 903 l 125 764 l 264 764 l 264 0 l 819 0 l 819 139 l 403 139 l 403 556 l 819 556 l 819 694 l 403 694 l 403 764 l 681 764 l 681 903 l 403 903 l 403 972 l 264 972 l 264 903 z m 819 139 l 958 139 l 958 556 l 819 556 z "},"Ѳ":{"ha":889,"x_min":0,"x_max":0,"o":"m 653 833 l 653 972 l 236 972 l 236 833 z m 97 139 l 236 139 l 236 333 l 340 333 l 340 472 l 236 472 l 236 833 l 97 833 z m 236 0 l 653 0 l 653 139 l 236 139 z m 340 472 l 446 472 l 446 611 l 340 611 z m 446 333 l 549 333 l 549 472 l 446 472 z m 549 472 l 653 472 l 653 139 l 792 139 l 792 833 l 653 833 l 653 611 l 549 611 z "},"Ѵ":{"ha":1014,"x_min":0,"x_max":0,"o":"m 236 278 l 236 972 l 97 972 l 97 278 z m 236 139 l 375 139 l 375 278 l 236 278 z m 375 0 l 514 0 l 514 139 l 375 139 z m 514 139 l 653 139 l 653 278 l 514 278 z m 653 278 l 792 278 l 792 833 l 931 833 l 931 972 l 653 972 z "},"Ғ":{"ha":1056,"x_min":0,"x_max":0,"o":"m 125 556 l 125 417 l 264 417 l 264 0 l 403 0 l 403 417 l 819 417 l 819 556 l 403 556 l 403 833 l 958 833 l 958 972 l 264 972 l 264 556 z "},"Ҕ":{"ha":931,"x_min":0,"x_max":0,"o":"m 694 833 l 694 972 l 139 972 l 139 0 l 278 0 l 278 347 l 417 347 l 417 483 l 278 483 l 278 833 z m 417 0 l 696 0 l 696 139 l 833 139 l 833 486 l 694 486 l 694 139 l 417 139 z m 417 486 l 694 486 l 694 625 l 417 625 z "},"Җ":{"ha":1292,"x_min":0,"x_max":0,"o":"m 236 694 l 236 972 l 97 972 l 97 694 z m 97 0 l 236 0 l 236 278 l 97 278 z m 236 278 l 375 278 l 375 417 l 236 417 z m 236 556 l 375 556 l 375 694 l 236 694 z m 375 417 l 514 417 l 514 0 l 653 0 l 653 417 l 792 417 l 792 556 l 653 556 l 653 972 l 514 972 l 514 556 l 375 556 z m 792 278 l 931 278 l 931 417 l 792 417 z m 792 556 l 931 556 l 931 694 l 792 694 z m 931 0 l 1069 0 l 1069 -139 l 1208 -139 l 1208 139 l 1069 139 l 1069 278 l 931 278 z m 931 694 l 1069 694 l 1069 972 l 931 972 z "},"Ҙ":{"ha":889,"x_min":0,"x_max":0,"o":"m 653 833 l 653 972 l 97 972 l 97 833 z m 97 0 l 375 0 l 375 -139 l 514 -139 l 514 0 l 653 0 l 653 139 l 97 139 z m 236 417 l 653 417 l 653 556 l 236 556 z m 375 -417 l 514 -417 l 514 -278 l 375 -278 z m 514 -278 l 653 -278 l 653 -139 l 514 -139 z m 653 139 l 792 139 l 792 417 l 653 417 z m 653 556 l 792 556 l 792 833 l 653 833 z "},"Қ":{"ha":1056,"x_min":0,"x_max":0,"o":"m 278 556 l 278 972 l 139 972 l 139 0 l 278 0 l 278 417 l 556 417 l 556 556 z m 556 278 l 694 278 l 694 417 l 556 417 z m 556 556 l 694 556 l 694 694 l 556 694 z m 694 0 l 833 0 l 833 -139 l 972 -139 l 972 139 l 833 139 l 833 278 l 694 278 z m 694 694 l 833 694 l 833 972 l 694 972 z "},"Ҝ":{"ha":931,"x_min":0,"x_max":0,"o":"m 278 556 l 278 972 l 139 972 l 139 0 l 278 0 l 278 417 l 347 417 l 347 278 l 486 278 l 486 417 l 556 417 l 556 556 l 486 556 l 486 694 l 347 694 l 347 556 z m 556 278 l 694 278 l 694 417 l 556 417 z m 556 556 l 694 556 l 694 694 l 556 694 z m 694 0 l 833 0 l 833 278 l 694 278 z m 694 694 l 833 694 l 833 972 l 694 972 z "},"Ҟ":{"ha":1056,"x_min":0,"x_max":0,"o":"m 125 833 l 125 694 l 264 694 l 264 0 l 403 0 l 403 417 l 681 417 l 681 556 l 403 556 l 403 694 l 542 694 l 542 833 l 403 833 l 403 972 l 264 972 l 264 833 z m 681 278 l 819 278 l 819 417 l 681 417 z m 681 556 l 819 556 l 819 694 l 681 694 z m 819 0 l 958 0 l 958 278 l 819 278 z m 819 694 l 958 694 l 958 972 l 819 972 z "},"Ҡ":{"ha":1056,"x_min":0,"x_max":0,"o":"m 125 972 l 125 833 l 264 833 l 264 0 l 403 0 l 403 417 l 681 417 l 681 556 l 403 556 l 403 972 z m 681 278 l 819 278 l 819 417 l 681 417 z m 681 556 l 819 556 l 819 694 l 681 694 z m 819 0 l 958 0 l 958 278 l 819 278 z m 819 694 l 958 694 l 958 972 l 819 972 z "},"Ң":{"ha":1097,"x_min":0,"x_max":0,"o":"m 694 417 l 694 0 l 833 0 l 833 -139 l 972 -139 l 972 139 l 833 139 l 833 972 l 694 972 l 694 556 l 278 556 l 278 972 l 139 972 l 139 0 l 278 0 l 278 417 z "},"Ҥ":{"ha":1486,"x_min":0,"x_max":0,"o":"m 278 556 l 278 972 l 139 972 l 139 0 l 278 0 l 278 417 l 694 417 l 694 0 l 833 0 l 833 833 l 1389 833 l 1389 972 l 694 972 l 694 556 z "},"Ҧ":{"ha":1486,"x_min":0,"x_max":0,"o":"m 833 483 l 833 972 l 139 972 l 139 0 l 278 0 l 278 833 l 694 833 l 694 0 l 833 0 l 833 347 l 972 347 l 972 483 z m 972 0 l 1251 0 l 1251 139 l 1389 139 l 1389 486 l 1250 486 l 1250 139 l 972 139 z m 972 486 l 1250 486 l 1250 625 l 972 625 z "},"Ԥ":{"ha":1097,"x_min":0,"x_max":0,"o":"m 694 833 l 694 0 l 833 0 l 833 -139 l 972 -139 l 972 139 l 833 139 l 833 972 l 139 972 l 139 0 l 278 0 l 278 833 z "},"Ҩ":{"ha":1014,"x_min":0,"x_max":0,"o":"m 514 833 l 514 972 l 236 972 l 236 833 z m 97 139 l 236 139 l 236 833 l 97 833 z m 236 0 l 583 0 l 583 139 l 236 139 z m 375 417 l 514 417 l 514 556 l 375 556 z m 514 278 l 583 278 l 583 139 l 722 139 l 722 278 l 792 278 l 792 417 l 514 417 z m 514 556 l 792 556 l 792 694 l 514 694 z m 722 0 l 861 0 l 861 139 l 722 139 z m 792 417 l 931 417 l 931 556 l 792 556 z "},"Ҫ":{"ha":847,"x_min":0,"x_max":0,"o":"m 792 833 l 792 972 l 236 972 l 236 833 z m 97 139 l 236 139 l 236 833 l 97 833 z m 236 0 l 444 0 l 444 -139 l 583 -139 l 583 0 l 792 0 l 792 139 l 236 139 z m 444 -417 l 583 -417 l 583 -278 l 444 -278 z m 583 -278 l 722 -278 l 722 -139 l 583 -139 z "},"Ҭ":{"ha":889,"x_min":0,"x_max":0,"o":"m 375 833 l 375 0 l 514 0 l 514 -139 l 653 -139 l 653 139 l 514 139 l 514 833 l 792 833 l 792 972 l 97 972 l 97 833 z "},"Ү":{"ha":889,"x_min":0,"x_max":0,"o":"m 236 556 l 236 972 l 97 972 l 97 556 z m 236 417 l 375 417 l 375 0 l 514 0 l 514 417 l 653 417 l 653 556 l 236 556 z m 653 556 l 792 556 l 792 972 l 653 972 z "},"Ұ":{"ha":889,"x_min":0,"x_max":0,"o":"m 236 556 l 236 972 l 97 972 l 97 556 z m 236 208 l 375 208 l 375 0 l 514 0 l 514 208 l 653 208 l 653 347 l 514 347 l 514 417 l 653 417 l 653 556 l 236 556 l 236 417 l 375 417 l 375 347 l 236 347 z m 653 556 l 792 556 l 792 972 l 653 972 z "},"Ҳ":{"ha":1056,"x_min":0,"x_max":0,"o":"m 236 694 l 236 972 l 97 972 l 97 694 z m 97 0 l 236 0 l 236 278 l 97 278 z m 236 278 l 375 278 l 375 417 l 236 417 z m 236 556 l 375 556 l 375 694 l 236 694 z m 375 417 l 514 417 l 514 556 l 375 556 z m 514 278 l 653 278 l 653 417 l 514 417 z m 514 556 l 653 556 l 653 694 l 514 694 z m 653 0 l 833 0 l 833 -139 l 972 -139 l 972 139 l 792 139 l 792 278 l 653 278 z m 653 694 l 792 694 l 792 972 l 653 972 z "},"Ҵ":{"ha":1333,"x_min":0,"x_max":0,"o":"m 375 833 l 375 0 l 1069 0 l 1069 -139 l 1208 -139 l 1208 139 l 1069 139 l 1069 972 l 931 972 l 931 139 l 514 139 l 514 833 l 792 833 l 792 972 l 97 972 l 97 833 z "},"Ҷ":{"ha":1097,"x_min":0,"x_max":0,"o":"m 278 556 l 278 972 l 139 972 l 139 556 z m 278 417 l 694 417 l 694 0 l 833 0 l 833 -139 l 972 -139 l 972 139 l 833 139 l 833 972 l 694 972 l 694 556 l 278 556 z "},"Ҹ":{"ha":958,"x_min":0,"x_max":0,"o":"m 264 556 l 264 972 l 125 972 l 125 556 z m 264 417 l 403 417 l 403 278 l 542 278 l 542 417 l 681 417 l 681 0 l 819 0 l 819 972 l 681 972 l 681 556 l 542 556 l 542 694 l 403 694 l 403 556 l 264 556 z "},"Һ":{"ha":972,"x_min":0,"x_max":0,"o":"m 278 556 l 278 972 l 139 972 l 139 0 l 278 0 l 278 417 l 694 417 l 694 556 z m 694 0 l 833 0 l 833 417 l 694 417 z "},"Ԧ":{"ha":1097,"x_min":0,"x_max":0,"o":"m 278 551 l 278 968 l 139 968 l 139 -4 l 278 -4 l 278 413 l 694 413 l 694 551 z m 694 -4 l 833 -4 l 833 -139 l 972 -139 l 972 139 l 833 139 l 833 413 l 694 413 z "},"Ҽ":{"ha":1083,"x_min":0,"x_max":0,"o":"m 847 833 l 847 972 l 431 972 l 431 833 z m 83 417 l 292 417 l 292 139 l 431 139 l 431 417 l 847 417 l 847 556 l 431 556 l 431 833 l 292 833 l 292 556 l 222 556 l 222 694 l 83 694 z m 431 0 l 986 0 l 986 139 l 431 139 z m 847 556 l 986 556 l 986 833 l 847 833 z "},"Ҿ":{"ha":1083,"x_min":0,"x_max":0,"o":"m 847 833 l 847 972 l 431 972 l 431 833 z m 83 417 l 292 417 l 292 139 l 431 139 l 431 417 l 847 417 l 847 556 l 431 556 l 431 833 l 292 833 l 292 556 l 222 556 l 222 694 l 83 694 z m 431 0 l 646 0 l 646 -139 l 785 -139 l 785 0 l 986 0 l 986 139 l 431 139 z m 847 556 l 986 556 l 986 833 l 847 833 z "},"Ӏ":{"ha":722,"x_min":0,"x_max":0,"o":"m 292 833 l 292 139 l 153 139 l 153 0 l 569 0 l 569 139 l 431 139 l 431 833 l 569 833 l 569 972 l 153 972 l 153 833 z "},"Ӂ":{"ha":1167,"x_min":0,"x_max":0,"o":"m 514 1250 l 514 1389 l 375 1389 l 375 1250 z m 97 0 l 236 0 l 236 278 l 97 278 z m 97 694 l 236 694 l 236 972 l 97 972 z m 236 278 l 375 278 l 375 417 l 236 417 z m 236 556 l 375 556 l 375 694 l 236 694 z m 375 417 l 514 417 l 514 0 l 653 0 l 653 417 l 792 417 l 792 556 l 653 556 l 653 972 l 514 972 l 514 556 l 375 556 z m 514 1111 l 653 1111 l 653 1250 l 514 1250 z m 653 1250 l 792 1250 l 792 1389 l 653 1389 z m 792 278 l 931 278 l 931 417 l 792 417 z m 792 556 l 931 556 l 931 694 l 792 694 z m 931 0 l 1069 0 l 1069 278 l 931 278 z m 931 694 l 1069 694 l 1069 972 l 931 972 z "},"Ӄ":{"ha":931,"x_min":0,"x_max":0,"o":"m 278 556 l 278 972 l 139 972 l 139 0 l 278 0 l 278 417 l 694 417 l 694 556 l 556 556 l 556 694 l 417 694 l 417 556 z m 417 -139 l 696 -139 l 696 0 l 833 0 l 833 417 l 694 417 l 694 0 l 417 0 z m 556 694 l 694 694 l 694 972 l 556 972 z "},"Ӆ":{"ha":1083,"x_min":0,"x_max":0,"o":"m 403 139 l 403 833 l 264 833 l 264 139 z m 125 0 l 264 0 l 264 139 l 125 139 z m 403 833 l 681 833 l 681 -139 l 819 -137 l 819 1 l 958 1 l 958 139 l 819 139 l 819 972 l 403 972 z "},"Ӈ":{"ha":972,"x_min":0,"x_max":0,"o":"m 278 417 l 694 417 l 694 0 l 693 -278 l 832 -278 l 832 0 l 833 0 l 833 972 l 694 972 l 694 556 l 278 556 l 278 972 l 139 972 l 139 0 l 278 0 z m 554 -278 l 693 -278 l 693 -139 l 556 -139 z "},"Ӊ":{"ha":1097,"x_min":0,"x_max":0,"o":"m 278 0 l 278 417 l 694 417 l 694 -139 l 833 -137 l 833 1 l 972 1 l 972 139 l 833 139 l 833 972 l 694 972 l 694 556 l 278 556 l 278 972 l 139 972 l 139 0 z "},"Ӌ":{"ha":972,"x_min":0,"x_max":0,"o":"m 278 556 l 278 972 l 139 972 l 139 556 z m 278 417 l 694 417 l 694 139 l 556 139 l 556 -139 l 694 -139 l 694 0 l 833 0 l 833 972 l 694 972 l 694 556 l 278 556 z "},"Ӎ":{"ha":1389,"x_min":0,"x_max":0,"o":"m 278 833 l 278 972 l 139 972 l 139 0 l 278 0 l 278 694 l 417 694 l 417 833 z m 417 417 l 556 417 l 556 694 l 417 694 z m 556 139 l 694 139 l 694 417 l 556 417 z m 694 417 l 833 417 l 833 694 l 694 694 z m 833 694 l 972 694 l 972 -139 l 1111 -137 l 1111 1 l 1250 1 l 1250 139 l 1111 139 l 1111 972 l 972 972 l 972 833 l 833 833 z "},"Ӑ":{"ha":917,"x_min":0,"x_max":0,"o":"m 389 1250 l 389 1389 l 250 1389 l 250 1250 z m 111 0 l 250 0 l 250 347 l 667 347 l 667 0 l 806 0 l 806 694 l 667 694 l 667 486 l 250 486 l 250 694 l 111 694 z m 250 694 l 389 694 l 389 833 l 250 833 z m 389 833 l 528 833 l 528 972 l 389 972 z m 389 1111 l 528 1111 l 528 1250 l 389 1250 z m 528 694 l 667 694 l 667 833 l 528 833 z m 528 1250 l 667 1250 l 667 1389 l 528 1389 z "},"Ӓ":{"ha":917,"x_min":0,"x_max":0,"o":"m 389 1111 l 389 1250 l 250 1250 l 250 1111 z m 111 0 l 250 0 l 250 347 l 667 347 l 667 0 l 806 0 l 806 694 l 667 694 l 667 486 l 250 486 l 250 694 l 111 694 z m 250 694 l 389 694 l 389 833 l 250 833 z m 389 833 l 528 833 l 528 972 l 389 972 z m 528 694 l 667 694 l 667 833 l 528 833 z m 528 1111 l 667 1111 l 667 1250 l 528 1250 z "},"Ӕ":{"ha":1458,"x_min":0,"x_max":0,"o":"m 250 486 l 250 694 l 111 694 l 111 0 l 250 0 l 250 347 l 667 347 l 667 0 l 1361 0 l 1361 139 l 806 139 l 806 417 l 1222 417 l 1222 556 l 806 556 l 806 833 l 1361 833 l 1361 972 l 389 972 l 389 833 l 667 833 l 667 486 z m 250 694 l 389 694 l 389 833 l 250 833 z "},"Ӗ":{"ha":931,"x_min":0,"x_max":0,"o":"m 417 1250 l 417 1389 l 278 1389 l 278 1250 z m 139 0 l 833 0 l 833 139 l 278 139 l 278 417 l 694 417 l 694 556 l 278 556 l 278 833 l 833 833 l 833 972 l 139 972 z m 417 1111 l 556 1111 l 556 1250 l 417 1250 z m 556 1250 l 694 1250 l 694 1389 l 556 1389 z "},"Ә":{"ha":889,"x_min":0,"x_max":0,"o":"m 653 833 l 653 972 l 97 972 l 97 833 z m 97 139 l 236 139 l 236 556 l 653 556 l 653 139 l 792 139 l 792 833 l 653 833 l 653 694 l 97 694 z m 236 0 l 653 0 l 653 139 l 236 139 z "},"Ӛ":{"ha":889,"x_min":0,"x_max":0,"o":"m 653 833 l 653 972 l 97 972 l 97 833 z m 97 139 l 236 139 l 236 556 l 653 556 l 653 139 l 792 139 l 792 833 l 653 833 l 653 694 l 97 694 z m 236 0 l 653 0 l 653 139 l 236 139 z "},"Ӝ":{"ha":1167,"x_min":0,"x_max":0,"o":"m 514 1111 l 514 1250 l 375 1250 l 375 1111 z m 97 0 l 236 0 l 236 278 l 97 278 z m 97 694 l 236 694 l 236 972 l 97 972 z m 236 278 l 375 278 l 375 417 l 236 417 z m 236 556 l 375 556 l 375 694 l 236 694 z m 375 417 l 514 417 l 514 0 l 653 0 l 653 417 l 792 417 l 792 556 l 653 556 l 653 972 l 514 972 l 514 556 l 375 556 z m 653 1111 l 792 1111 l 792 1250 l 653 1250 z m 792 278 l 931 278 l 931 417 l 792 417 z m 792 556 l 931 556 l 931 694 l 792 694 z m 931 0 l 1069 0 l 1069 278 l 931 278 z m 931 694 l 1069 694 l 1069 972 l 931 972 z "},"Ӟ":{"ha":889,"x_min":0,"x_max":0,"o":"m 375 1111 l 375 1250 l 236 1250 l 236 1111 z m 97 0 l 653 0 l 653 139 l 97 139 z m 97 833 l 653 833 l 653 972 l 97 972 z m 236 417 l 653 417 l 653 556 l 236 556 z m 514 1111 l 653 1111 l 653 1250 l 514 1250 z m 653 139 l 792 139 l 792 417 l 653 417 z m 653 556 l 792 556 l 792 833 l 653 833 z "},"Ӡ":{"ha":917,"x_min":0,"x_max":0,"o":"m 125 972 l 125 833 l 681 833 l 681 740 l 819 740 l 819 972 z m 125 0 l 681 0 l 681 139 l 125 139 z m 264 417 l 681 417 l 681 556 l 403 556 l 403 649 l 264 649 z m 403 649 l 681 649 l 681 740 l 403 740 z m 681 139 l 819 139 l 819 417 l 681 417 z "},"Ӣ":{"ha":972,"x_min":0,"x_max":0,"o":"m 694 1111 l 694 1250 l 278 1250 l 278 1111 z m 139 0 l 278 0 l 278 278 l 417 278 l 417 417 l 278 417 l 278 972 l 139 972 z m 417 417 l 556 417 l 556 556 l 417 556 z m 556 556 l 694 556 l 694 0 l 833 0 l 833 972 l 694 972 l 694 694 l 556 694 z "},"Ӥ":{"ha":972,"x_min":0,"x_max":0,"o":"m 417 1111 l 417 1250 l 278 1250 l 278 1111 z m 139 0 l 278 0 l 278 278 l 417 278 l 417 417 l 278 417 l 278 972 l 139 972 z m 417 417 l 556 417 l 556 556 l 417 556 z m 556 556 l 694 556 l 694 0 l 833 0 l 833 972 l 694 972 l 694 694 l 556 694 z m 556 1111 l 694 1111 l 694 1250 l 556 1250 z "},"Ӧ":{"ha":889,"x_min":0,"x_max":0,"o":"m 375 1111 l 375 1250 l 236 1250 l 236 1111 z m 97 139 l 236 139 l 236 833 l 97 833 z m 236 0 l 653 0 l 653 139 l 236 139 z m 236 833 l 653 833 l 653 972 l 236 972 z m 514 1111 l 653 1111 l 653 1250 l 514 1250 z m 653 139 l 792 139 l 792 833 l 653 833 z "},"Ө":{"ha":889,"x_min":0,"x_max":0,"o":"m 653 833 l 653 972 l 236 972 l 236 833 z m 97 139 l 236 139 l 236 417 l 653 417 l 653 139 l 792 139 l 792 833 l 653 833 l 653 556 l 236 556 l 236 833 l 97 833 z m 236 0 l 653 0 l 653 139 l 236 139 z "},"Ӫ":{"ha":889,"x_min":0,"x_max":0,"o":"m 375 1111 l 375 1250 l 236 1250 l 236 1111 z m 97 139 l 236 139 l 236 417 l 653 417 l 653 139 l 792 139 l 792 833 l 653 833 l 653 556 l 236 556 l 236 833 l 97 833 z m 236 0 l 653 0 l 653 139 l 236 139 z m 236 833 l 653 833 l 653 972 l 236 972 z m 514 1111 l 653 1111 l 653 1250 l 514 1250 z "},"Ӭ":{"ha":889,"x_min":0,"x_max":0,"o":"m 375 1111 l 375 1250 l 236 1250 l 236 1111 z m 97 0 l 653 0 l 653 139 l 97 139 z m 97 833 l 653 833 l 653 972 l 97 972 z m 236 417 l 653 417 l 653 139 l 792 139 l 792 833 l 653 833 l 653 556 l 236 556 z m 514 1111 l 653 1111 l 653 1250 l 514 1250 z "},"Ӯ":{"ha":903,"x_min":0,"x_max":0,"o":"m 694 1111 l 694 1250 l 278 1250 l 278 1111 z m 139 0 l 417 0 l 417 139 l 139 139 z m 139 556 l 278 556 l 278 972 l 139 972 z m 278 278 l 417 278 l 417 139 l 556 139 l 556 278 l 694 278 l 694 556 l 556 556 l 556 417 l 417 417 l 417 556 l 278 556 z m 694 556 l 833 556 l 833 972 l 694 972 z "},"Ӱ":{"ha":903,"x_min":0,"x_max":0,"o":"m 417 1111 l 417 1250 l 278 1250 l 278 1111 z m 139 0 l 417 0 l 417 139 l 139 139 z m 139 556 l 278 556 l 278 972 l 139 972 z m 278 278 l 417 278 l 417 139 l 556 139 l 556 278 l 694 278 l 694 556 l 556 556 l 556 417 l 417 417 l 417 556 l 278 556 z m 556 1111 l 694 1111 l 694 1250 l 556 1250 z m 694 556 l 833 556 l 833 972 l 694 972 z "},"Ӳ":{"ha":903,"x_min":0,"x_max":0,"o":"m 486 1250 l 486 1389 l 347 1389 l 347 1250 z m 139 0 l 417 0 l 417 139 l 139 139 z m 139 556 l 278 556 l 278 972 l 139 972 z m 208 1111 l 347 1111 l 347 1250 l 208 1250 z m 278 278 l 417 278 l 417 139 l 556 139 l 556 278 l 694 278 l 694 556 l 556 556 l 556 417 l 417 417 l 417 556 l 278 556 z m 486 1111 l 625 1111 l 625 1250 l 486 1250 z m 625 1250 l 764 1250 l 764 1389 l 625 1389 z m 694 556 l 833 556 l 833 972 l 694 972 z "},"Ӵ":{"ha":972,"x_min":0,"x_max":0,"o":"m 417 1111 l 417 1250 l 278 1250 l 278 1111 z m 139 556 l 278 556 l 278 972 l 139 972 z m 278 417 l 694 417 l 694 0 l 833 0 l 833 972 l 694 972 l 694 556 l 278 556 z m 556 1111 l 694 1111 l 694 1250 l 556 1250 z "},"Ӷ":{"ha":931,"x_min":0,"x_max":0,"o":"m 139 972 l 139 0 l 278 0 l 278 -139 l 417 -139 l 417 139 l 278 139 l 278 833 l 833 833 l 833 972 z "},"Ӹ":{"ha":1250,"x_min":0,"x_max":0,"o":"m 556 1111 l 556 1250 l 417 1250 l 417 1111 z m 139 0 l 694 0 l 694 139 l 278 139 l 278 486 l 694 486 l 694 625 l 278 625 l 278 972 l 139 972 z m 694 139 l 833 139 l 833 486 l 694 486 z m 694 1111 l 833 1111 l 833 1250 l 694 1250 z m 972 0 l 1111 0 l 1111 972 l 972 972 z "},"Ӽ":{"ha":889,"x_min":0,"x_max":0,"o":"m 236 694 l 236 972 l 97 972 l 97 694 z m 97 0 l 236 0 l 236 278 l 97 278 z m 236 278 l 375 278 l 375 417 l 236 417 z m 236 556 l 375 556 l 375 694 l 236 694 z m 375 417 l 514 417 l 514 556 l 375 556 z m 514 -278 l 792 -278 l 792 278 l 653 278 l 653 -139 l 514 -139 z m 514 278 l 653 278 l 653 417 l 514 417 z m 514 556 l 653 556 l 653 694 l 514 694 z m 653 694 l 792 694 l 792 972 l 653 972 z "},"Ԑ":{"ha":889,"x_min":0,"x_max":0,"o":"m 792 833 l 792 972 l 236 972 l 236 833 z m 97 139 l 236 139 l 236 417 l 97 417 z m 97 556 l 236 556 l 236 833 l 97 833 z m 236 0 l 792 0 l 792 139 l 236 139 z m 236 417 l 653 417 l 653 556 l 236 556 z "},"Ԓ":{"ha":958,"x_min":0,"x_max":0,"o":"m 681 833 l 681 -139 l 542 -139 l 542 -278 l 819 -278 l 819 972 l 403 972 l 403 833 z m 125 0 l 264 0 l 264 139 l 125 139 z m 264 139 l 403 139 l 403 833 l 264 833 z "},"Ԝ":{"ha":1167,"x_min":0,"x_max":0,"o":"m 236 139 l 236 972 l 97 972 l 97 139 z m 236 0 l 514 0 l 514 139 l 236 139 z m 514 139 l 653 139 l 653 833 l 514 833 z m 653 0 l 931 0 l 931 139 l 653 139 z m 931 139 l 1069 139 l 1069 972 l 931 972 z "},"а":{"ha":833,"x_min":0,"x_max":0,"o":"m 625 556 l 625 694 l 69 694 l 69 556 z m 69 139 l 208 139 l 208 276 l 69 278 z m 208 0 l 764 0 l 764 556 l 625 556 l 625 417 l 208 415 l 208 278 l 625 278 l 625 139 l 208 139 z "},"б":{"ha":833,"x_min":0,"x_max":0,"o":"m 764 833 l 764 972 l 208 972 l 208 833 z m 69 139 l 208 139 l 208 556 l 625 556 l 625 694 l 208 694 l 208 833 l 69 833 z m 208 0 l 625 0 l 625 139 l 208 139 z m 625 139 l 764 139 l 764 556 l 625 556 z "},"в":{"ha":833,"x_min":0,"x_max":0,"o":"m 625 556 l 625 694 l 69 696 l 69 0 l 625 0 l 625 139 l 208 139 l 208 278 l 625 278 l 625 417 l 208 417 l 208 557 z m 625 139 l 764 139 l 764 278 l 625 278 z m 625 417 l 764 417 l 764 556 l 625 556 z "},"г":{"ha":819,"x_min":0,"x_max":0,"o":"m 764 556 l 764 694 l 69 696 l 69 0 l 208 0 l 208 557 z "},"ѓ":{"ha":819,"x_min":0,"x_max":0,"o":"m 549 972 l 549 1111 l 410 1111 l 410 972 z m 69 0 l 208 0 l 208 557 l 764 556 l 764 694 l 69 696 z m 271 833 l 410 833 l 410 972 l 271 972 z "},"ґ":{"ha":819,"x_min":0,"x_max":0,"o":"m 625 833 l 625 694 l 69 696 l 69 0 l 208 0 l 208 557 l 764 556 l 764 833 z "},"д":{"ha":944,"x_min":0,"x_max":0,"o":"m 194 556 l 194 142 l 56 142 l 56 -136 l 194 -136 l 194 3 l 750 3 l 750 -136 l 889 -136 l 889 142 l 750 142 l 750 694 l 333 694 l 333 556 l 611 556 l 611 142 l 333 142 l 333 556 z "},"е":{"ha":833,"x_min":0,"x_max":0,"o":"m 625 556 l 625 694 l 208 694 l 208 556 z m 69 139 l 208 139 l 208 278 l 764 278 l 764 556 l 625 556 l 625 417 l 208 417 l 208 556 l 69 556 z m 208 0 l 764 0 l 764 139 l 208 139 z "},"ѐ":{"ha":833,"x_min":0,"x_max":0,"o":"m 417 972 l 417 1111 l 278 1111 l 278 972 z m 69 139 l 208 139 l 208 278 l 764 278 l 764 556 l 625 556 l 625 417 l 208 417 l 208 556 l 69 556 z m 208 0 l 764 0 l 764 139 l 208 139 z m 208 556 l 625 556 l 625 694 l 208 694 z m 417 833 l 556 833 l 556 972 l 417 972 z "},"ё":{"ha":833,"x_min":0,"x_max":0,"o":"m 347 833 l 347 972 l 208 972 l 208 833 z m 69 139 l 208 139 l 208 278 l 764 278 l 764 556 l 625 556 l 625 417 l 208 417 l 208 556 l 69 556 z m 208 0 l 764 0 l 764 139 l 208 139 z m 208 556 l 625 556 l 625 694 l 208 694 z m 486 833 l 625 833 l 625 972 l 486 972 z "},"ж":{"ha":1111,"x_min":0,"x_max":0,"o":"m 208 556 l 208 694 l 69 694 l 69 556 z m 69 0 l 208 0 l 208 139 l 69 139 z m 208 139 l 347 139 l 347 278 l 208 278 z m 208 417 l 347 417 l 347 556 l 208 556 z m 347 278 l 486 278 l 486 0 l 625 0 l 625 278 l 764 278 l 764 417 l 625 417 l 625 694 l 486 694 l 486 417 l 347 417 z m 764 139 l 903 139 l 903 278 l 764 278 z m 764 417 l 903 417 l 903 556 l 764 556 z m 903 0 l 1042 0 l 1042 139 l 903 139 z m 903 556 l 1042 556 l 1042 694 l 903 694 z "},"з":{"ha":833,"x_min":0,"x_max":0,"o":"m 625 556 l 625 694 l 69 694 l 69 556 z m 69 0 l 625 0 l 625 139 l 69 139 z m 208 278 l 625 278 l 625 417 l 208 417 z m 625 139 l 764 139 l 764 278 l 625 278 z m 625 417 l 764 417 l 764 556 l 625 556 z "},"и":{"ha":833,"x_min":0,"x_max":0,"o":"m 208 278 l 208 694 l 69 694 l 69 0 l 208 0 l 208 139 l 347 139 l 347 278 z m 347 278 l 486 278 l 486 417 l 347 417 z m 486 417 l 625 417 l 625 0 l 764 0 l 764 694 l 625 694 l 625 556 l 486 556 z "},"й":{"ha":833,"x_min":0,"x_max":0,"o":"m 626 833 l 626 972 l 210 972 l 210 833 z m 69 0 l 208 0 l 208 139 l 347 139 l 347 278 l 208 278 l 208 694 l 69 694 z m 347 278 l 486 278 l 486 417 l 347 417 z m 486 417 l 625 417 l 625 0 l 764 0 l 764 694 l 625 694 l 625 556 l 486 556 z "},"ѝ":{"ha":833,"x_min":0,"x_max":0,"o":"m 417 972 l 417 1111 l 278 1111 l 278 972 z m 69 0 l 208 0 l 208 139 l 347 139 l 347 278 l 208 278 l 208 694 l 69 694 z m 347 278 l 486 278 l 486 417 l 347 417 z m 417 833 l 556 833 l 556 972 l 417 972 z m 486 417 l 625 417 l 625 0 l 764 0 l 764 694 l 625 694 l 625 556 l 486 556 z "},"к":{"ha":833,"x_min":0,"x_max":0,"o":"m 208 417 l 208 694 l 69 694 l 69 0 l 208 0 l 208 278 l 486 278 l 486 417 z m 486 139 l 625 139 l 625 278 l 486 278 z m 486 417 l 625 417 l 625 556 l 486 556 z m 625 0 l 764 0 l 764 139 l 625 139 z m 625 556 l 764 556 l 764 694 l 625 694 z "},"ќ":{"ha":833,"x_min":0,"x_max":0,"o":"m 556 972 l 556 1111 l 417 1111 l 417 972 z m 69 0 l 208 0 l 208 278 l 486 278 l 486 417 l 208 417 l 208 694 l 69 694 z m 278 833 l 417 833 l 417 972 l 278 972 z m 486 139 l 625 139 l 625 278 l 486 278 z m 486 417 l 625 417 l 625 556 l 486 556 z m 625 0 l 764 0 l 764 139 l 625 139 z m 625 556 l 764 556 l 764 694 l 625 694 z "},"л":{"ha":819,"x_min":0,"x_max":0,"o":"m 333 142 l 333 556 l 194 556 l 194 142 z m 56 3 l 194 3 l 194 142 l 56 142 z m 333 556 l 611 556 l 611 0 l 750 0 l 750 694 l 333 694 z "},"м":{"ha":1111,"x_min":0,"x_max":0,"o":"m 208 556 l 208 694 l 69 694 l 69 0 l 208 0 l 208 417 l 347 417 l 347 556 z m 347 278 l 486 278 l 486 417 l 347 417 z m 486 0 l 625 0 l 625 278 l 486 278 z m 625 278 l 764 278 l 764 417 l 625 417 z m 764 417 l 903 417 l 903 0 l 1042 0 l 1042 694 l 903 694 l 903 556 l 764 556 z "},"н":{"ha":889,"x_min":0,"x_max":0,"o":"m 236 417 l 236 694 l 97 694 l 97 0 l 236 0 l 236 278 l 653 278 l 653 0 l 792 0 l 792 694 l 653 694 l 653 417 z "},"о":{"ha":833,"x_min":0,"x_max":0,"o":"m 625 556 l 625 694 l 208 694 l 208 556 z m 69 139 l 208 139 l 208 556 l 69 556 z m 208 0 l 625 0 l 625 139 l 208 139 z m 625 139 l 764 139 l 764 556 l 625 556 z "},"п":{"ha":833,"x_min":0,"x_max":0,"o":"m 764 0 l 764 694 l 69 694 l 69 0 l 208 0 l 208 556 l 625 556 l 625 0 z "},"р":{"ha":833,"x_min":0,"x_max":0,"o":"m 625 556 l 625 694 l 69 694 l 69 -278 l 208 -278 l 208 0 l 625 0 l 625 139 l 208 139 l 208 556 z m 625 139 l 764 139 l 764 556 l 625 556 z "},"с":{"ha":819,"x_min":0,"x_max":0,"o":"m 69 139 l 208 139 l 208 557 l 69 557 z m 208 0 l 764 0 l 764 139 l 208 139 z m 208 557 l 764 556 l 764 694 l 208 696 z "},"т":{"ha":806,"x_min":0,"x_max":0,"o":"m 56 696 l 56 557 l 333 557 l 333 0 l 472 0 l 472 556 l 750 556 l 750 694 z "},"у":{"ha":819,"x_min":0,"x_max":0,"o":"m 194 139 l 194 694 l 56 694 l 56 139 z m 56 -278 l 333 -278 l 333 -139 l 56 -139 z m 194 0 l 333 0 l 333 139 l 194 139 z m 333 -139 l 472 -139 l 472 0 l 333 0 z m 472 0 l 611 0 l 611 139 l 472 139 z m 611 139 l 750 139 l 750 694 l 611 694 z "},"ў":{"ha":819,"x_min":0,"x_max":0,"o":"m 340 972 l 340 1111 l 201 1111 l 201 972 z m 56 -278 l 333 -278 l 333 -139 l 56 -139 z m 56 139 l 194 139 l 194 694 l 56 694 z m 194 0 l 333 0 l 333 139 l 194 139 z m 333 -139 l 472 -139 l 472 0 l 333 0 z m 340 833 l 479 833 l 479 972 l 340 972 z m 472 0 l 611 0 l 611 139 l 472 139 z m 479 972 l 618 972 l 618 1111 l 479 1111 z m 611 139 l 750 139 l 750 694 l 611 694 z "},"ф":{"ha":1111,"x_min":0,"x_max":0,"o":"m 208 139 l 208 556 l 69 556 l 69 139 z m 208 0 l 486 0 l 486 -278 l 625 -278 l 625 0 l 903 0 l 903 139 l 625 139 l 625 556 l 903 556 l 903 694 l 625 694 l 625 972 l 486 972 l 486 694 l 208 694 l 208 556 l 486 556 l 486 139 l 208 139 z m 903 139 l 1042 139 l 1042 556 l 903 556 z "},"х":{"ha":833,"x_min":0,"x_max":0,"o":"m 208 556 l 208 694 l 69 694 l 69 556 z m 69 0 l 208 0 l 208 139 l 69 139 z m 208 139 l 347 139 l 347 278 l 208 278 z m 208 417 l 347 417 l 347 556 l 208 556 z m 347 278 l 486 278 l 486 417 l 347 417 z m 486 139 l 625 139 l 625 278 l 486 278 z m 486 417 l 625 417 l 625 556 l 486 556 z m 625 0 l 764 0 l 764 139 l 625 139 z m 625 556 l 764 556 l 764 694 l 625 694 z "},"ч":{"ha":833,"x_min":0,"x_max":0,"o":"m 208 347 l 208 694 l 69 694 l 69 347 z m 208 208 l 625 208 l 625 0 l 764 0 l 764 694 l 625 694 l 625 347 l 208 347 z "},"ц":{"ha":958,"x_min":0,"x_max":0,"o":"m 69 694 l 69 3 l 764 3 l 764 -136 l 903 -136 l 903 142 l 764 142 l 764 694 l 625 694 l 625 142 l 208 142 l 208 694 z "},"ш":{"ha":1111,"x_min":0,"x_max":0,"o":"m 208 142 l 208 694 l 69 694 l 69 3 l 1042 3 l 1042 694 l 903 694 l 903 142 l 625 142 l 625 694 l 486 694 l 486 142 z "},"щ":{"ha":1236,"x_min":0,"x_max":0,"o":"m 69 694 l 69 3 l 1042 3 l 1042 -136 l 1181 -136 l 1181 142 l 1042 142 l 1042 694 l 903 694 l 903 142 l 625 142 l 625 694 l 486 694 l 486 142 l 208 142 l 208 694 z "},"џ":{"ha":833,"x_min":0,"x_max":0,"o":"m 69 694 l 69 3 l 347 3 l 347 -136 l 486 -136 l 486 3 l 764 3 l 764 694 l 625 694 l 625 142 l 208 142 l 208 694 z "},"ь":{"ha":833,"x_min":0,"x_max":0,"o":"m 208 486 l 208 694 l 69 694 l 69 0 l 625 0 l 625 139 l 208 139 l 208 347 l 625 347 l 625 486 z m 625 139 l 764 139 l 764 347 l 625 347 z "},"ъ":{"ha":819,"x_min":0,"x_max":0,"o":"m 56 694 l 56 556 l 194 556 l 194 0 l 611 0 l 611 139 l 333 139 l 333 347 l 611 347 l 611 486 l 333 486 l 333 694 z m 611 139 l 750 139 l 750 347 l 611 347 z "},"ы":{"ha":972,"x_min":0,"x_max":0,"o":"m 208 486 l 208 694 l 69 694 l 69 0 l 486 0 l 486 139 l 208 139 l 208 347 l 486 347 l 486 486 z m 486 139 l 625 139 l 625 347 l 486 347 z m 764 0 l 903 0 l 903 694 l 764 694 z "},"љ":{"ha":1389,"x_min":0,"x_max":0,"o":"m 347 142 l 347 556 l 208 556 l 208 142 z m 69 3 l 208 3 l 208 142 l 69 142 z m 347 556 l 625 556 l 625 0 l 1181 0 l 1181 139 l 764 139 l 764 347 l 1181 347 l 1181 486 l 764 486 l 764 694 l 347 694 z m 1181 139 l 1319 139 l 1319 347 l 1181 347 z "},"њ":{"ha":1389,"x_min":0,"x_max":0,"o":"m 208 417 l 208 694 l 69 694 l 69 0 l 208 0 l 208 278 l 625 278 l 625 0 l 1181 0 l 1181 139 l 764 139 l 764 347 l 1181 347 l 1181 486 l 764 486 l 764 694 l 625 694 l 625 417 z m 1181 139 l 1319 139 l 1319 347 l 1181 347 z "},"ѕ":{"ha":833,"x_min":0,"x_max":0,"o":"m 764 556 l 764 694 l 208 694 l 208 556 z m 69 0 l 625 0 l 625 139 l 69 139 z m 69 417 l 208 417 l 208 556 l 69 556 z m 208 278 l 625 278 l 625 417 l 208 417 z m 625 139 l 764 139 l 764 278 l 625 278 z "},"є":{"ha":833,"x_min":0,"x_max":0,"o":"m 625 417 l 208 418 l 208 556 l 69 556 l 69 139 l 208 139 l 208 279 l 625 278 z m 208 0 l 764 0 l 764 139 l 208 139 z m 208 556 l 764 554 l 764 693 l 208 694 z "},"э":{"ha":833,"x_min":0,"x_max":0,"o":"m 625 556 l 625 694 l 69 693 l 69 554 z m 69 0 l 625 0 l 625 139 l 69 139 z m 208 278 l 625 279 l 625 139 l 764 139 l 764 556 l 625 556 l 625 418 l 208 417 z "},"і":{"ha":306,"x_min":0,"x_max":0,"o":"m 222 833 l 222 972 l 83 972 l 83 833 z m 83 0 l 222 0 l 222 694 l 83 694 z "},"ї":{"ha":417,"x_min":0,"x_max":0,"o":"m 139 833 l 139 972 l 0 972 l 0 833 z m 139 0 l 278 0 l 278 694 l 139 694 z m 278 833 l 417 833 l 417 972 l 278 972 z "},"ј":{"ha":681,"x_min":0,"x_max":0,"o":"m 611 833 l 611 972 l 472 972 l 472 833 z m 56 -278 l 472 -278 l 472 -139 l 56 -139 z m 472 -139 l 611 -139 l 611 694 l 472 694 z "},"ћ":{"ha":958,"x_min":0,"x_max":0,"o":"m 56 899 l 56 760 l 194 760 l 194 0 l 333 0 l 333 482 l 750 482 l 750 621 l 333 621 l 333 760 l 611 760 l 611 899 l 333 899 l 333 972 l 194 972 l 194 899 z m 750 0 l 889 0 l 889 482 l 750 482 z "},"ю":{"ha":972,"x_min":0,"x_max":0,"o":"m 208 417 l 208 694 l 69 694 l 69 0 l 208 0 l 208 278 l 347 278 l 347 139 l 486 139 l 486 556 l 347 556 l 347 417 z m 486 0 l 764 0 l 764 139 l 486 139 z m 486 556 l 764 556 l 764 694 l 486 694 z m 764 139 l 903 139 l 903 556 l 764 556 z "},"я":{"ha":833,"x_min":0,"x_max":0,"o":"m 208 0 l 208 208 l 69 208 l 69 0 z m 69 347 l 208 347 l 208 556 l 69 556 z m 208 208 l 625 208 l 625 0 l 764 0 l 764 694 l 208 694 l 208 556 l 625 556 l 625 347 l 208 347 z "},"ђ":{"ha":958,"x_min":0,"x_max":0,"o":"m 56 899 l 56 760 l 194 760 l 194 0 l 333 0 l 333 482 l 750 482 l 750 621 l 333 621 l 333 760 l 611 760 l 611 899 l 333 899 l 333 972 l 194 972 l 194 899 z m 611 -278 l 889 -278 l 889 482 l 750 482 l 750 -139 l 611 -139 z "},"ѣ":{"ha":958,"x_min":0,"x_max":0,"o":"m 56 764 l 56 625 l 194 625 l 194 0 l 750 0 l 750 139 l 333 139 l 333 347 l 750 347 l 750 486 l 333 486 l 333 625 l 611 625 l 611 764 l 333 764 l 333 972 l 194 972 l 194 764 z m 750 139 l 889 139 l 889 347 l 750 347 z "},"ѳ":{"ha":833,"x_min":0,"x_max":0,"o":"m 625 556 l 625 694 l 208 694 l 208 556 z m 69 139 l 208 139 l 208 347 l 347 347 l 347 444 l 208 444 l 208 556 l 69 556 z m 208 0 l 625 0 l 625 139 l 208 139 z m 347 250 l 486 250 l 486 347 l 347 347 z m 486 347 l 625 347 l 625 139 l 764 139 l 764 556 l 625 556 l 625 444 l 486 444 z "},"ѵ":{"ha":931,"x_min":0,"x_max":0,"o":"m 194 278 l 194 694 l 56 694 l 56 278 z m 194 139 l 333 139 l 333 278 l 194 278 z m 333 0 l 472 0 l 472 139 l 333 139 z m 472 139 l 611 139 l 611 278 l 472 278 z m 611 278 l 750 278 l 750 556 l 889 556 l 889 694 l 611 694 z "},"ғ":{"ha":944,"x_min":0,"x_max":0,"o":"m 56 418 l 56 279 l 194 279 l 194 0 l 333 0 l 333 279 l 750 278 l 750 417 l 333 418 l 333 557 l 889 556 l 889 694 l 194 696 l 194 418 z "},"ҕ":{"ha":833,"x_min":0,"x_max":0,"o":"m 625 833 l 625 972 l 69 972 l 69 0 l 208 0 l 208 343 l 347 343 l 347 482 l 208 482 l 208 833 z m 347 482 l 625 482 l 625 621 l 347 621 z m 486 -278 l 764 -278 l 764 482 l 625 482 l 625 -139 l 486 -139 z "},"җ":{"ha":1236,"x_min":0,"x_max":0,"o":"m 208 556 l 208 694 l 69 694 l 69 556 z m 69 0 l 208 0 l 208 139 l 69 139 z m 208 139 l 347 139 l 347 278 l 208 278 z m 208 417 l 347 417 l 347 556 l 208 556 z m 347 278 l 486 278 l 486 0 l 625 0 l 625 278 l 764 278 l 764 417 l 625 417 l 625 694 l 486 694 l 486 417 l 347 417 z m 764 139 l 903 139 l 903 278 l 764 278 z m 764 417 l 903 417 l 903 556 l 764 556 z m 903 0 l 1042 0 l 1042 -139 l 1181 -139 l 1181 139 l 903 139 z m 903 556 l 1042 556 l 1042 694 l 903 694 z "},"ҙ":{"ha":833,"x_min":0,"x_max":0,"o":"m 625 556 l 625 694 l 69 694 l 69 556 z m 69 0 l 347 0 l 347 -139 l 486 -139 l 486 0 l 625 0 l 625 139 l 69 139 z m 208 278 l 625 278 l 625 417 l 208 417 z m 347 -417 l 486 -417 l 486 -278 l 347 -278 z m 486 -278 l 625 -278 l 625 -139 l 486 -139 z m 625 139 l 764 139 l 764 278 l 625 278 z m 625 417 l 764 417 l 764 556 l 625 556 z "},"қ":{"ha":972,"x_min":0,"x_max":0,"o":"m 208 417 l 208 694 l 69 694 l 69 0 l 208 0 l 208 278 l 486 278 l 486 417 z m 486 139 l 625 139 l 625 278 l 486 278 z m 486 417 l 625 417 l 625 556 l 486 556 z m 625 0 l 764 0 l 764 -139 l 903 -139 l 903 139 l 625 139 z m 625 556 l 764 556 l 764 694 l 625 694 z "},"ҝ":{"ha":833,"x_min":0,"x_max":0,"o":"m 208 417 l 208 694 l 69 694 l 69 0 l 208 0 l 208 278 l 278 278 l 278 139 l 417 139 l 417 278 l 486 278 l 486 417 l 417 417 l 417 556 l 278 556 l 278 417 z m 486 139 l 625 139 l 625 278 l 486 278 z m 486 417 l 625 417 l 625 556 l 486 556 z m 625 0 l 764 0 l 764 139 l 625 139 z m 625 556 l 764 556 l 764 694 l 625 694 z "},"ҟ":{"ha":958,"x_min":0,"x_max":0,"o":"m 56 833 l 56 694 l 194 694 l 194 0 l 333 0 l 333 278 l 611 278 l 611 417 l 333 417 l 333 694 l 472 694 l 472 833 l 333 833 l 333 972 l 194 972 l 194 833 z m 611 139 l 750 139 l 750 278 l 611 278 z m 611 417 l 750 417 l 750 556 l 611 556 z m 750 0 l 889 0 l 889 139 l 750 139 z m 750 556 l 889 556 l 889 694 l 750 694 z "},"ҡ":{"ha":972,"x_min":0,"x_max":0,"o":"m 69 694 l 69 556 l 208 556 l 208 0 l 347 0 l 347 278 l 625 278 l 625 417 l 347 417 l 347 694 z m 625 139 l 764 139 l 764 278 l 625 278 z m 625 417 l 764 417 l 764 556 l 625 556 z m 764 0 l 903 0 l 903 139 l 764 139 z m 764 556 l 903 556 l 903 694 l 764 694 z "},"ң":{"ha":958,"x_min":0,"x_max":0,"o":"m 625 278 l 625 0 l 764 0 l 764 -139 l 903 -139 l 903 139 l 764 139 l 764 694 l 625 694 l 625 417 l 208 417 l 208 694 l 69 694 l 69 0 l 208 0 l 208 278 z "},"ҥ":{"ha":1375,"x_min":0,"x_max":0,"o":"m 208 417 l 208 694 l 69 694 l 69 0 l 208 0 l 208 278 l 625 278 l 625 0 l 764 0 l 764 556 l 1319 554 l 1319 693 l 625 694 l 625 417 z "},"ԥ":{"ha":958,"x_min":0,"x_max":0,"o":"m 625 556 l 625 0 l 764 0 l 764 -139 l 903 -139 l 903 139 l 764 139 l 764 694 l 69 694 l 69 0 l 208 0 l 208 556 z "},"ҧ":{"ha":1389,"x_min":0,"x_max":0,"o":"m 764 343 l 764 694 l 69 694 l 69 0 l 208 0 l 208 556 l 625 556 l 625 0 l 764 0 l 764 204 l 903 204 l 903 343 z m 903 343 l 1181 343 l 1181 482 l 903 482 z m 1042 -278 l 1319 -278 l 1319 343 l 1181 343 l 1181 -139 l 1042 -139 z "},"ҩ":{"ha":1181,"x_min":0,"x_max":0,"o":"m 625 556 l 625 694 l 208 694 l 208 556 z m 69 139 l 208 139 l 208 556 l 69 556 z m 208 0 l 764 0 l 764 139 l 208 139 z m 556 313 l 694 313 l 694 208 l 764 208 l 764 139 l 903 139 l 903 208 l 972 208 l 972 313 l 1111 313 l 1111 451 l 972 451 l 972 556 l 694 556 l 694 451 l 556 451 z m 694 344 l 694 417 l 972 417 l 972 344 z m 903 0 l 1042 0 l 1042 139 l 903 139 z "},"ҫ":{"ha":819,"x_min":0,"x_max":0,"o":"m 69 139 l 208 139 l 208 557 l 69 557 z m 208 0 l 418 0 l 418 -139 l 557 -139 l 557 0 l 764 0 l 764 139 l 208 139 z m 208 557 l 764 556 l 764 694 l 208 696 z m 418 -417 l 557 -417 l 557 -278 l 418 -278 z m 557 -278 l 696 -278 l 696 -139 l 557 -139 z "},"ҭ":{"ha":806,"x_min":0,"x_max":0,"o":"m 333 557 l 333 0 l 472 0 l 472 -139 l 611 -139 l 611 139 l 472 139 l 472 556 l 750 556 l 750 694 l 56 696 l 56 557 z "},"ү":{"ha":806,"x_min":0,"x_max":0,"o":"m 194 139 l 194 694 l 56 694 l 56 139 z m 194 0 l 333 0 l 333 139 l 194 139 z m 333 -278 l 472 -278 l 472 0 l 333 0 z m 472 0 l 611 0 l 611 139 l 472 139 z m 611 139 l 750 139 l 750 694 l 611 694 z "},"ұ":{"ha":806,"x_min":0,"x_max":0,"o":"m 194 139 l 194 694 l 56 694 l 56 139 z m 194 -208 l 333 -208 l 333 -278 l 472 -278 l 472 -208 l 611 -208 l 611 -69 l 472 -69 l 472 0 l 333 0 l 333 -69 l 194 -69 z m 194 0 l 333 0 l 333 139 l 194 139 z m 472 0 l 611 0 l 611 139 l 472 139 z m 611 139 l 750 139 l 750 694 l 611 694 z "},"ҳ":{"ha":972,"x_min":0,"x_max":0,"o":"m 208 556 l 208 694 l 69 694 l 69 556 z m 69 0 l 208 0 l 208 139 l 69 139 z m 208 139 l 347 139 l 347 278 l 208 278 z m 208 417 l 347 417 l 347 556 l 208 556 z m 347 278 l 486 278 l 486 417 l 347 417 z m 486 139 l 625 139 l 625 278 l 486 278 z m 486 417 l 625 417 l 625 556 l 486 556 z m 625 0 l 764 0 l 764 -139 l 903 -139 l 903 139 l 625 139 z m 625 556 l 764 556 l 764 694 l 625 694 z "},"ҵ":{"ha":1222,"x_min":0,"x_max":0,"o":"m 333 557 l 333 3 l 1028 3 l 1028 -136 l 1167 -136 l 1167 142 l 1028 142 l 1028 694 l 889 694 l 889 142 l 472 142 l 472 556 l 750 556 l 750 694 l 56 696 l 56 557 z "},"ҷ":{"ha":958,"x_min":0,"x_max":0,"o":"m 208 347 l 208 694 l 69 694 l 69 347 z m 208 208 l 625 208 l 625 0 l 764 0 l 764 -139 l 903 -139 l 903 139 l 764 139 l 764 694 l 625 694 l 625 347 l 208 347 z "},"ҹ":{"ha":833,"x_min":0,"x_max":0,"o":"m 208 347 l 208 694 l 69 694 l 69 347 z m 208 208 l 347 208 l 347 69 l 486 69 l 486 208 l 625 208 l 625 0 l 764 0 l 764 694 l 625 694 l 625 347 l 486 347 l 486 486 l 347 486 l 347 347 l 208 347 z "},"һ":{"ha":833,"x_min":0,"x_max":0,"o":"m 208 694 l 208 972 l 69 972 l 69 0 l 208 0 l 208 556 l 625 556 l 625 694 z m 625 0 l 764 0 l 764 556 l 625 556 z "},"ԧ":{"ha":958,"x_min":0,"x_max":0,"o":"m 208 694 l 208 972 l 69 972 l 69 0 l 208 0 l 208 556 l 625 556 l 625 694 z m 625 0 l 764 0 l 764 -139 l 903 -139 l 903 139 l 764 139 l 764 556 l 625 556 z "},"ҽ":{"ha":1028,"x_min":0,"x_max":0,"o":"m 819 556 l 819 694 l 403 694 l 403 556 z m 56 278 l 264 278 l 264 139 l 403 139 l 403 278 l 958 278 l 958 556 l 819 556 l 819 417 l 403 417 l 403 556 l 264 556 l 264 417 l 194 417 l 194 556 l 56 556 z m 403 0 l 958 0 l 958 139 l 403 139 z "},"ҿ":{"ha":1028,"x_min":0,"x_max":0,"o":"m 819 556 l 819 694 l 403 694 l 403 556 z m 56 278 l 264 278 l 264 139 l 403 139 l 403 278 l 958 278 l 958 556 l 819 556 l 819 417 l 403 417 l 403 556 l 264 556 l 264 417 l 194 417 l 194 556 l 56 556 z m 403 0 l 625 0 l 625 -139 l 764 -139 l 764 0 l 958 0 l 958 139 l 403 139 z "},"ӏ":{"ha":722,"x_min":0,"x_max":0,"o":"m 292 833 l 292 139 l 153 139 l 153 0 l 569 0 l 569 139 l 431 139 l 431 833 l 569 833 l 569 972 l 153 972 l 153 833 z "},"ӂ":{"ha":1111,"x_min":0,"x_max":0,"o":"m 486 972 l 486 1111 l 347 1111 l 347 972 z m 69 0 l 208 0 l 208 139 l 69 139 z m 69 556 l 208 556 l 208 694 l 69 694 z m 208 139 l 347 139 l 347 278 l 208 278 z m 208 417 l 347 417 l 347 556 l 208 556 z m 347 278 l 486 278 l 486 0 l 625 0 l 625 278 l 764 278 l 764 417 l 625 417 l 625 694 l 486 694 l 486 417 l 347 417 z m 486 833 l 625 833 l 625 972 l 486 972 z m 625 972 l 764 972 l 764 1111 l 625 1111 z m 764 139 l 903 139 l 903 278 l 764 278 z m 764 417 l 903 417 l 903 556 l 764 556 z m 903 0 l 1042 0 l 1042 139 l 903 139 z m 903 556 l 1042 556 l 1042 694 l 903 694 z "},"ӄ":{"ha":833,"x_min":0,"x_max":0,"o":"m 208 417 l 208 694 l 69 694 l 69 0 l 208 0 l 208 278 l 625 278 l 625 417 l 486 417 l 486 556 l 347 556 l 347 417 z m 486 -278 l 764 -278 l 764 278 l 625 278 l 625 -139 l 486 -139 z m 486 556 l 625 556 l 625 694 l 486 694 z "},"ӆ":{"ha":944,"x_min":0,"x_max":0,"o":"m 333 142 l 333 556 l 194 556 l 194 142 z m 56 3 l 194 3 l 194 142 l 56 142 z m 333 556 l 611 556 l 611 -139 l 750 -139 l 750 0 l 889 0 l 889 139 l 750 139 l 750 694 l 333 694 z "},"ӈ":{"ha":833,"x_min":0,"x_max":0,"o":"m 208 0 l 208 278 l 625 278 l 625 -139 l 764 -139 l 764 694 l 625 694 l 625 417 l 208 417 l 208 694 l 69 694 l 69 0 z m 486 -278 l 625 -278 l 625 -139 l 486 -139 z "},"ӊ":{"ha":972,"x_min":0,"x_max":0,"o":"m 208 0 l 208 278 l 625 278 l 625 -139 l 764 -139 l 764 0 l 903 0 l 903 139 l 764 139 l 764 694 l 625 694 l 625 417 l 208 417 l 208 694 l 69 694 l 69 0 z "},"ӌ":{"ha":833,"x_min":0,"x_max":0,"o":"m 208 347 l 208 694 l 69 694 l 69 347 z m 208 208 l 625 208 l 625 139 l 486 139 l 486 -139 l 625 -139 l 625 0 l 764 0 l 764 694 l 625 694 l 625 347 l 208 347 z "},"ӎ":{"ha":1236,"x_min":0,"x_max":0,"o":"m 208 556 l 208 694 l 69 694 l 69 0 l 208 0 l 208 417 l 347 417 l 347 556 z m 347 278 l 486 278 l 486 417 l 347 417 z m 486 0 l 625 0 l 625 278 l 486 278 z m 625 278 l 764 278 l 764 417 l 625 417 z m 764 417 l 903 417 l 903 -139 l 1042 -139 l 1042 0 l 1181 0 l 1181 139 l 1042 139 l 1042 694 l 903 694 l 903 556 l 764 556 z "},"ӑ":{"ha":833,"x_min":0,"x_max":0,"o":"m 347 1042 l 347 1181 l 208 1181 l 208 1042 z m 69 139 l 208 139 l 208 276 l 69 278 z m 69 556 l 625 556 l 625 694 l 69 694 z m 208 0 l 764 0 l 764 556 l 625 556 l 625 417 l 208 415 l 208 278 l 625 278 l 625 139 l 208 139 z m 347 903 l 486 903 l 486 1042 l 347 1042 z m 486 1042 l 625 1042 l 625 1181 l 486 1181 z "},"ӓ":{"ha":833,"x_min":0,"x_max":0,"o":"m 347 903 l 347 1042 l 208 1042 l 208 903 z m 69 139 l 208 139 l 208 276 l 69 278 z m 69 556 l 625 556 l 625 694 l 69 694 z m 208 0 l 764 0 l 764 556 l 625 556 l 625 417 l 208 415 l 208 278 l 625 278 l 625 139 l 208 139 z m 486 903 l 625 903 l 625 1042 l 486 1042 z "},"ӕ":{"ha":1389,"x_min":0,"x_max":0,"o":"m 625 556 l 625 694 l 69 694 l 69 556 z m 69 139 l 208 139 l 208 276 l 69 278 z m 208 0 l 1319 0 l 1319 139 l 764 139 l 764 278 l 1319 278 l 1319 556 l 1181 556 l 1181 417 l 764 417 l 764 556 l 625 556 l 625 417 l 208 415 l 208 278 l 625 278 l 625 139 l 208 139 z m 764 556 l 1181 556 l 1181 694 l 764 694 z "},"ӗ":{"ha":833,"x_min":0,"x_max":0,"o":"m 347 972 l 347 1111 l 208 1111 l 208 972 z m 69 139 l 208 139 l 208 278 l 764 278 l 764 556 l 625 556 l 625 417 l 208 417 l 208 556 l 69 556 z m 208 0 l 764 0 l 764 139 l 208 139 z m 208 556 l 625 556 l 625 694 l 208 694 z m 347 833 l 486 833 l 486 972 l 347 972 z m 486 972 l 625 972 l 625 1111 l 486 1111 z "},"ә":{"ha":833,"x_min":0,"x_max":0,"o":"m 625 556 l 625 694 l 69 694 l 69 556 z m 69 139 l 208 139 l 208 278 l 625 278 l 625 139 l 764 139 l 764 556 l 625 556 l 625 417 l 69 417 z m 208 0 l 625 0 l 625 139 l 208 139 z "},"ӛ":{"ha":833,"x_min":0,"x_max":0,"o":"m 347 833 l 347 972 l 208 972 l 208 833 z m 69 139 l 208 139 l 208 278 l 625 278 l 625 139 l 764 139 l 764 556 l 625 556 l 625 417 l 69 417 z m 69 556 l 625 556 l 625 694 l 69 694 z m 208 0 l 625 0 l 625 139 l 208 139 z m 486 833 l 625 833 l 625 972 l 486 972 z "},"ӝ":{"ha":1111,"x_min":0,"x_max":0,"o":"m 486 833 l 486 972 l 347 972 l 347 833 z m 69 0 l 208 0 l 208 139 l 69 139 z m 69 556 l 208 556 l 208 694 l 69 694 z m 208 139 l 347 139 l 347 278 l 208 278 z m 208 417 l 347 417 l 347 556 l 208 556 z m 347 278 l 486 278 l 486 0 l 625 0 l 625 278 l 764 278 l 764 417 l 625 417 l 625 694 l 486 694 l 486 417 l 347 417 z m 625 833 l 764 833 l 764 972 l 625 972 z m 764 139 l 903 139 l 903 278 l 764 278 z m 764 417 l 903 417 l 903 556 l 764 556 z m 903 0 l 1042 0 l 1042 139 l 903 139 z m 903 556 l 1042 556 l 1042 694 l 903 694 z "},"ӟ":{"ha":833,"x_min":0,"x_max":0,"o":"m 347 833 l 347 972 l 208 972 l 208 833 z m 69 0 l 625 0 l 625 139 l 69 139 z m 69 556 l 625 556 l 625 694 l 69 694 z m 208 278 l 625 278 l 625 417 l 208 417 z m 486 833 l 625 833 l 625 972 l 486 972 z m 625 139 l 764 139 l 764 278 l 625 278 z m 625 417 l 764 417 l 764 556 l 625 556 z "},"ӡ":{"ha":833,"x_min":0,"x_max":0,"o":"m 69 694 l 69 556 l 625 556 l 625 417 l 764 417 l 764 694 z m 69 -278 l 625 -278 l 625 -139 l 69 -139 z m 208 278 l 625 278 l 625 417 l 208 417 z m 625 -139 l 764 -139 l 764 278 l 625 278 z "},"ӣ":{"ha":833,"x_min":0,"x_max":0,"o":"m 625 833 l 625 972 l 208 972 l 208 833 z m 69 0 l 208 0 l 208 139 l 347 139 l 347 278 l 208 278 l 208 694 l 69 694 z m 347 278 l 486 278 l 486 417 l 347 417 z m 486 417 l 625 417 l 625 0 l 764 0 l 764 694 l 625 694 l 625 556 l 486 556 z "},"ӥ":{"ha":833,"x_min":0,"x_max":0,"o":"m 347 833 l 347 972 l 208 972 l 208 833 z m 69 0 l 208 0 l 208 139 l 347 139 l 347 278 l 208 278 l 208 694 l 69 694 z m 347 278 l 486 278 l 486 417 l 347 417 z m 486 417 l 625 417 l 625 0 l 764 0 l 764 694 l 625 694 l 625 556 l 486 556 z m 486 833 l 625 833 l 625 972 l 486 972 z "},"ӧ":{"ha":833,"x_min":0,"x_max":0,"o":"m 347 833 l 347 972 l 208 972 l 208 833 z m 69 139 l 208 139 l 208 556 l 69 556 z m 208 0 l 625 0 l 625 139 l 208 139 z m 208 556 l 625 556 l 625 694 l 208 694 z m 486 833 l 625 833 l 625 972 l 486 972 z m 625 139 l 764 139 l 764 556 l 625 556 z "},"ө":{"ha":833,"x_min":0,"x_max":0,"o":"m 625 556 l 625 694 l 208 694 l 208 556 z m 69 139 l 208 139 l 208 278 l 625 278 l 625 139 l 764 139 l 764 556 l 625 556 l 625 417 l 208 417 l 208 556 l 69 556 z m 208 0 l 625 0 l 625 139 l 208 139 z "},"ӫ":{"ha":833,"x_min":0,"x_max":0,"o":"m 347 833 l 347 972 l 208 972 l 208 833 z m 69 139 l 208 139 l 208 278 l 625 278 l 625 139 l 764 139 l 764 556 l 625 556 l 625 417 l 208 417 l 208 556 l 69 556 z m 208 0 l 625 0 l 625 139 l 208 139 z m 208 556 l 625 556 l 625 694 l 208 694 z m 486 833 l 625 833 l 625 972 l 486 972 z "},"ӭ":{"ha":833,"x_min":0,"x_max":0,"o":"m 347 833 l 347 972 l 208 972 l 208 833 z m 69 0 l 625 0 l 625 139 l 69 139 z m 69 554 l 625 556 l 625 694 l 69 693 z m 208 278 l 625 279 l 625 139 l 764 139 l 764 556 l 625 556 l 625 418 l 208 417 z m 486 833 l 625 833 l 625 972 l 486 972 z "},"ӯ":{"ha":819,"x_min":0,"x_max":0,"o":"m 618 833 l 618 972 l 201 972 l 201 833 z m 56 -278 l 333 -278 l 333 -139 l 56 -139 z m 56 139 l 194 139 l 194 694 l 56 694 z m 194 0 l 333 0 l 333 139 l 194 139 z m 333 -139 l 472 -139 l 472 0 l 333 0 z m 472 0 l 611 0 l 611 139 l 472 139 z m 611 139 l 750 139 l 750 694 l 611 694 z "},"ӱ":{"ha":819,"x_min":0,"x_max":0,"o":"m 340 833 l 340 972 l 201 972 l 201 833 z m 56 -278 l 333 -278 l 333 -139 l 56 -139 z m 56 139 l 194 139 l 194 694 l 56 694 z m 194 0 l 333 0 l 333 139 l 194 139 z m 333 -139 l 472 -139 l 472 0 l 333 0 z m 472 0 l 611 0 l 611 139 l 472 139 z m 479 833 l 618 833 l 618 972 l 479 972 z m 611 139 l 750 139 l 750 694 l 611 694 z "},"ӳ":{"ha":819,"x_min":0,"x_max":0,"o":"m 410 972 l 410 1111 l 271 1111 l 271 972 z m 56 -278 l 333 -278 l 333 -139 l 56 -139 z m 56 139 l 194 139 l 194 694 l 56 694 z m 132 833 l 271 833 l 271 972 l 132 972 z m 194 0 l 333 0 l 333 139 l 194 139 z m 333 -139 l 472 -139 l 472 0 l 333 0 z m 410 833 l 549 833 l 549 972 l 410 972 z m 472 0 l 611 0 l 611 139 l 472 139 z m 549 972 l 688 972 l 688 1111 l 549 1111 z m 611 139 l 750 139 l 750 694 l 611 694 z "},"ӵ":{"ha":833,"x_min":0,"x_max":0,"o":"m 347 833 l 347 972 l 208 972 l 208 833 z m 69 347 l 208 347 l 208 694 l 69 694 z m 208 208 l 625 208 l 625 0 l 764 0 l 764 694 l 625 694 l 625 347 l 208 347 z m 486 833 l 625 833 l 625 972 l 486 972 z "},"ӷ":{"ha":819,"x_min":0,"x_max":0,"o":"m 69 696 l 69 0 l 208 0 l 208 -139 l 347 -139 l 347 139 l 208 139 l 208 557 l 764 556 l 764 694 z "},"ӹ":{"ha":972,"x_min":0,"x_max":0,"o":"m 417 833 l 417 972 l 278 972 l 278 833 z m 69 0 l 486 0 l 486 139 l 208 139 l 208 347 l 486 347 l 486 486 l 208 486 l 208 694 l 69 694 z m 486 139 l 625 139 l 625 347 l 486 347 z m 556 833 l 694 833 l 694 972 l 556 972 z m 764 0 l 903 0 l 903 694 l 764 694 z "},"ӽ":{"ha":833,"x_min":0,"x_max":0,"o":"m 208 556 l 208 694 l 69 694 l 69 556 z m 69 0 l 208 0 l 208 139 l 69 139 z m 208 139 l 347 139 l 347 278 l 208 278 z m 208 417 l 347 417 l 347 556 l 208 556 z m 347 278 l 486 278 l 486 417 l 347 417 z m 486 -139 l 764 -139 l 764 139 l 625 139 l 625 0 l 486 0 z m 486 139 l 625 139 l 625 278 l 486 278 z m 486 417 l 625 417 l 625 556 l 486 556 z m 625 556 l 764 556 l 764 694 l 625 694 z "},"ԑ":{"ha":833,"x_min":0,"x_max":0,"o":"m 764 556 l 764 694 l 208 694 l 208 556 z m 69 139 l 208 139 l 208 278 l 69 278 z m 69 417 l 208 417 l 208 556 l 69 556 z m 208 0 l 764 0 l 764 139 l 208 139 z m 208 278 l 625 278 l 625 417 l 208 417 z "},"ԓ":{"ha":819,"x_min":0,"x_max":0,"o":"m 611 556 l 611 0 l 472 0 l 472 -139 l 750 -139 l 750 694 l 333 694 l 333 556 z m 56 3 l 194 3 l 194 142 l 56 142 z m 194 142 l 333 142 l 333 556 l 194 556 z "},"ԝ":{"ha":1111,"x_min":0,"x_max":0,"o":"m 208 138 l 208 694 l 69 694 l 69 138 z m 208 -1 l 486 0 l 486 139 l 208 138 z m 486 139 l 625 139 l 625 556 l 486 556 z m 625 0 l 903 0 l 903 139 l 625 139 z m 903 139 l 1042 139 l 1042 694 l 903 694 z "},"⁄":{"ha":611,"x_min":0,"x_max":0,"o":"m 792 833 l 792 972 l 653 972 l 653 833 z m -181 0 l -42 0 l -42 139 l -181 139 z m -42 139 l 97 139 l 97 278 l -42 278 z m 97 278 l 236 278 l 236 417 l 97 417 z m 236 417 l 375 417 l 375 556 l 236 556 z m 375 556 l 514 556 l 514 694 l 375 694 z m 514 694 l 653 694 l 653 833 l 514 833 z "},"½":{"ha":1400,"x_min":0,"x_max":0,"o":"m 69 838 l 69 768 l 208 768 l 208 421 l 347 421 l 347 976 l 208 976 l 208 838 z m 215 0 l 354 0 l 354 139 l 215 139 z m 354 139 l 493 139 l 493 278 l 354 278 z m 493 278 l 632 278 l 632 417 l 493 417 z m 632 417 l 771 417 l 771 556 l 632 556 z m 771 556 l 910 556 l 910 694 l 771 694 z m 910 694 l 1049 694 l 1049 833 l 910 833 z m 914 0 l 1331 0 l 1331 139 l 1053 139 l 1053 243 l 914 243 z m 914 347 l 1053 347 l 1053 417 l 914 417 z m 1049 833 l 1188 833 l 1188 972 l 1049 972 z m 1053 243 l 1192 243 l 1192 313 l 1053 313 z m 1053 417 l 1192 417 l 1192 556 l 1053 556 z m 1192 313 l 1331 313 l 1331 417 l 1192 417 z "},"¼":{"ha":1536,"x_min":0,"x_max":0,"o":"m 69 833 l 69 764 l 208 764 l 208 417 l 347 417 l 347 972 l 208 972 l 208 833 z m 215 0 l 354 0 l 354 139 l 215 139 z m 354 139 l 493 139 l 493 278 l 354 278 z m 493 278 l 632 278 l 632 417 l 493 417 z m 632 417 l 771 417 l 771 556 l 632 556 z m 771 556 l 910 556 l 910 694 l 771 694 z m 910 694 l 1049 694 l 1049 833 l 910 833 z m 1049 833 l 1188 833 l 1188 972 l 1049 972 z m 1050 243 l 1328 243 l 1328 0 l 1467 0 l 1467 556 l 1328 556 l 1328 313 l 1189 313 l 1189 556 l 1050 556 z "},"¾":{"ha":1528,"x_min":0,"x_max":0,"o":"m 347 833 l 347 972 l 208 972 l 208 833 z m 69 417 l 347 417 l 347 556 l 69 556 z m 69 764 l 208 764 l 208 833 l 69 833 z m 208 660 l 347 660 l 347 729 l 208 729 z m 213 0 l 351 0 l 351 139 l 213 139 z m 347 556 l 486 556 l 486 660 l 347 660 z m 347 729 l 486 729 l 486 833 l 347 833 z m 351 139 l 490 139 l 490 278 l 351 278 z m 490 278 l 629 278 l 629 417 l 490 417 z m 629 417 l 768 417 l 768 556 l 629 556 z m 768 556 l 907 556 l 907 694 l 768 694 z m 907 694 l 1046 694 l 1046 833 l 907 833 z m 1042 243 l 1319 243 l 1319 0 l 1458 0 l 1458 556 l 1319 556 l 1319 313 l 1181 313 l 1181 556 l 1042 556 z m 1046 833 l 1185 833 l 1185 972 l 1046 972 z "},"⅛":{"ha":1400,"x_min":0,"x_max":0,"o":"m 69 833 l 69 764 l 208 764 l 208 417 l 347 417 l 347 972 l 208 972 l 208 833 z m 210 0 l 349 0 l 349 139 l 210 139 z m 349 139 l 488 139 l 488 278 l 349 278 z m 488 278 l 626 278 l 626 417 l 488 417 z m 626 417 l 765 417 l 765 556 l 626 556 z m 765 556 l 904 556 l 904 694 l 765 694 z m 904 694 l 1043 694 l 1043 833 l 904 833 z m 914 139 l 1053 139 l 1053 243 l 914 243 z m 914 313 l 1053 313 l 1053 417 l 914 417 z m 1043 833 l 1182 833 l 1182 972 l 1043 972 z m 1053 0 l 1192 0 l 1192 139 l 1053 139 z m 1053 243 l 1192 243 l 1192 313 l 1053 313 z m 1053 417 l 1192 417 l 1192 556 l 1053 556 z m 1192 139 l 1331 139 l 1331 243 l 1192 243 z m 1192 313 l 1331 313 l 1331 417 l 1192 417 z "},"⅜":{"ha":1533,"x_min":0,"x_max":0,"o":"m 347 833 l 347 972 l 208 972 l 208 833 z m 69 417 l 347 417 l 347 556 l 69 556 z m 69 764 l 208 764 l 208 833 l 69 833 z m 208 660 l 347 660 l 347 729 l 208 729 z m 217 0 l 356 0 l 356 139 l 217 139 z m 347 556 l 486 556 l 486 660 l 347 660 z m 347 729 l 486 729 l 486 833 l 347 833 z m 356 139 l 494 139 l 494 278 l 356 278 z m 494 278 l 633 278 l 633 417 l 494 417 z m 633 417 l 772 417 l 772 556 l 633 556 z m 772 556 l 911 556 l 911 694 l 772 694 z m 911 694 l 1050 694 l 1050 833 l 911 833 z m 1047 139 l 1186 139 l 1186 243 l 1047 243 z m 1047 313 l 1186 313 l 1186 417 l 1047 417 z m 1050 833 l 1189 833 l 1189 972 l 1050 972 z m 1186 0 l 1325 0 l 1325 139 l 1186 139 z m 1186 243 l 1325 243 l 1325 313 l 1186 313 z m 1186 417 l 1325 417 l 1325 556 l 1186 556 z m 1325 139 l 1464 139 l 1464 243 l 1325 243 z m 1325 313 l 1464 313 l 1464 417 l 1325 417 z "},"⅝":{"ha":1410,"x_min":0,"x_max":0,"o":"m 486 833 l 486 972 l 69 972 l 69 660 l 347 660 l 347 729 l 208 729 l 208 833 z m 69 417 l 347 417 l 347 556 l 69 556 z m 215 0 l 354 0 l 354 139 l 215 139 z m 347 556 l 486 556 l 486 660 l 347 660 z m 354 139 l 493 139 l 493 278 l 354 278 z m 493 278 l 632 278 l 632 417 l 493 417 z m 632 417 l 771 417 l 771 556 l 632 556 z m 771 556 l 910 556 l 910 694 l 771 694 z m 910 694 l 1049 694 l 1049 833 l 910 833 z m 924 139 l 1063 139 l 1063 243 l 924 243 z m 924 313 l 1063 313 l 1063 417 l 924 417 z m 1049 833 l 1188 833 l 1188 972 l 1049 972 z m 1063 0 l 1201 0 l 1201 139 l 1063 139 z m 1063 243 l 1201 243 l 1201 313 l 1063 313 z m 1063 417 l 1201 417 l 1201 556 l 1063 556 z m 1201 139 l 1340 139 l 1340 243 l 1201 243 z m 1201 313 l 1340 313 l 1340 417 l 1201 417 z "},"⅞":{"ha":1268,"x_min":0,"x_max":0,"o":"m 69 972 l 69 833 l 347 833 l 347 729 l 486 729 l 486 972 z m 69 417 l 208 417 l 208 660 l 69 660 z m 86 0 l 225 0 l 225 139 l 86 139 z m 208 660 l 347 660 l 347 729 l 208 729 z m 225 139 l 364 139 l 364 278 l 225 278 z m 364 278 l 503 278 l 503 417 l 364 417 z m 503 417 l 642 417 l 642 556 l 503 556 z m 642 556 l 781 556 l 781 694 l 642 694 z m 781 694 l 919 694 l 919 833 l 781 833 z m 782 139 l 921 139 l 921 243 l 782 243 z m 782 313 l 921 313 l 921 417 l 782 417 z m 919 833 l 1058 833 l 1058 972 l 919 972 z m 921 0 l 1060 0 l 1060 139 l 921 139 z m 921 243 l 1060 243 l 1060 313 l 921 313 z m 921 417 l 1060 417 l 1060 556 l 921 556 z m 1060 139 l 1199 139 l 1199 243 l 1060 243 z m 1060 313 l 1199 313 l 1199 417 l 1060 417 z "},".":{"ha":278,"x_min":0,"x_max":0,"o":"m 208 0 l 208 139 l 69 139 l 69 0 z "},",":{"ha":417,"x_min":0,"x_max":0,"o":"m 347 0 l 347 139 l 208 139 l 208 0 z m 69 -139 l 208 -139 l 208 0 l 69 0 z "},":":{"ha":417,"x_min":0,"x_max":0,"o":"m 278 556 l 278 694 l 139 694 l 139 556 z m 139 0 l 278 0 l 278 139 l 139 139 z "},";":{"ha":486,"x_min":0,"x_max":0,"o":"m 347 556 l 347 694 l 208 694 l 208 556 z m 69 -139 l 208 -139 l 208 0 l 69 0 z m 208 0 l 347 0 l 347 139 l 208 139 z "},"…":{"ha":347,"x_min":0,"x_max":0,"o":"m 208 0 l 208 139 l 69 139 l 69 0 z "},"!":{"ha":417,"x_min":0,"x_max":0,"o":"m 278 278 l 278 972 l 139 972 l 139 278 z m 139 0 l 278 0 l 278 139 l 139 139 z "},"¡":{"ha":417,"x_min":0,"x_max":0,"o":"m 278 694 l 278 833 l 139 833 l 139 694 z m 139 -139 l 278 -139 l 278 556 l 139 556 z "},"?":{"ha":694,"x_min":0,"x_max":0,"o":"m 486 833 l 486 972 l 69 972 l 69 833 z m 208 0 l 347 0 l 347 139 l 208 139 z m 208 278 l 347 278 l 347 417 l 208 417 z m 347 417 l 486 417 l 486 556 l 347 556 z m 486 556 l 625 556 l 625 833 l 486 833 z "},"¿":{"ha":694,"x_min":0,"x_max":0,"o":"m 486 694 l 486 833 l 347 833 l 347 694 z m 69 0 l 208 0 l 208 278 l 69 278 z m 208 -139 l 625 -139 l 625 0 l 208 0 z m 208 278 l 347 278 l 347 417 l 208 417 z m 347 417 l 486 417 l 486 556 l 347 556 z "},"·":{"ha":417,"x_min":0,"x_max":0,"o":"m 278 417 l 278 556 l 139 556 l 139 417 z "},"•":{"ha":556,"x_min":0,"x_max":0,"o":"m 417 347 l 417 625 l 139 625 l 139 347 z "},"*":{"ha":694,"x_min":0,"x_max":0,"o":"m 139 833 l 139 694 l 278 694 l 278 556 l 417 556 l 417 694 l 556 694 l 556 833 l 417 833 l 417 972 l 278 972 l 278 833 z "},"#":{"ha":972,"x_min":0,"x_max":0,"o":"m 139 278 l 139 139 l 278 139 l 278 0 l 417 0 l 417 278 l 556 278 l 556 139 l 694 139 l 694 417 l 833 417 l 833 556 l 694 556 l 694 694 l 833 694 l 833 833 l 694 833 l 694 972 l 556 972 l 556 694 l 417 694 l 417 833 l 278 833 l 278 556 l 139 556 l 139 417 l 278 417 l 278 278 z m 417 417 l 417 556 l 556 556 l 556 417 z "},"/":{"ha":694,"x_min":0,"x_max":0,"o":"m 556 694 l 556 1111 l 417 1111 l 417 694 z m 139 -139 l 278 -139 l 278 278 l 139 278 z m 278 278 l 417 278 l 417 694 l 278 694 z "},"\\":{"ha":694,"x_min":0,"x_max":0,"o":"m 278 694 l 278 1111 l 139 1111 l 139 694 z m 278 278 l 417 278 l 417 694 l 278 694 z m 417 -139 l 556 -139 l 556 278 l 417 278 z "},"(":{"ha":556,"x_min":0,"x_max":0,"o":"m 486 972 l 486 1111 l 347 1111 l 347 972 z m 69 417 l 208 417 l 208 556 l 69 556 z m 208 0 l 347 0 l 347 417 l 208 417 z m 208 556 l 347 556 l 347 972 l 208 972 z m 347 -139 l 486 -139 l 486 0 l 347 0 z "},")":{"ha":556,"x_min":0,"x_max":0,"o":"m 208 972 l 208 1111 l 69 1111 l 69 972 z m 69 -139 l 208 -139 l 208 0 l 69 0 z m 208 0 l 347 0 l 347 417 l 208 417 z m 208 556 l 347 556 l 347 972 l 208 972 z m 347 417 l 486 417 l 486 556 l 347 556 z "},"{":{"ha":556,"x_min":0,"x_max":0,"o":"m 486 972 l 486 1111 l 208 1111 l 208 556 l 347 556 l 347 972 z m 69 417 l 208 417 l 208 556 l 69 556 z m 208 -139 l 486 -139 l 486 0 l 347 0 l 347 417 l 208 417 z "},"}":{"ha":625,"x_min":0,"x_max":0,"o":"m 69 1111 l 69 972 l 208 972 l 208 556 l 347 556 l 347 1111 z m 69 -139 l 347 -139 l 347 417 l 208 417 l 208 0 l 69 0 z m 347 417 l 486 417 l 486 556 l 347 556 z "},"[":{"ha":417,"x_min":0,"x_max":0,"o":"m 347 972 l 347 1111 l 69 1111 l 69 -139 l 347 -139 l 347 0 l 208 0 l 208 972 z "},"]":{"ha":417,"x_min":0,"x_max":0,"o":"m 208 972 l 208 0 l 69 0 l 69 -139 l 347 -139 l 347 1111 l 69 1111 l 69 972 z "},"-":{"ha":833,"x_min":0,"x_max":0,"o":"m 694 404 l 694 543 l 139 543 l 139 404 z "},"–":{"ha":694,"x_min":0,"x_max":0,"o":"m 625 404 l 625 543 l 69 543 l 69 404 z "},"—":{"ha":972,"x_min":0,"x_max":0,"o":"m 903 404 l 903 543 l 69 543 l 69 404 z "},"_":{"ha":694,"x_min":0,"x_max":0,"o":"m 625 0 l 625 139 l 69 139 l 69 0 z "},"‚":{"ha":417,"x_min":0,"x_max":0,"o":"m 347 0 l 347 139 l 208 139 l 208 0 z m 69 -139 l 208 -139 l 208 0 l 69 0 z "},"„":{"ha":694,"x_min":0,"x_max":0,"o":"m 347 0 l 347 139 l 208 139 l 208 0 z m 69 -139 l 208 -139 l 208 0 l 69 0 z m 347 -139 l 486 -139 l 486 0 l 347 0 z m 486 0 l 625 0 l 625 139 l 486 139 z "},"“":{"ha":694,"x_min":0,"x_max":0,"o":"m 347 833 l 347 972 l 208 972 l 208 833 z m 69 694 l 208 694 l 208 833 l 69 833 z m 347 694 l 486 694 l 486 833 l 347 833 z m 486 833 l 625 833 l 625 972 l 486 972 z "},"”":{"ha":694,"x_min":0,"x_max":0,"o":"m 347 833 l 347 972 l 208 972 l 208 833 z m 69 694 l 208 694 l 208 833 l 69 833 z m 347 694 l 486 694 l 486 833 l 347 833 z m 486 833 l 625 833 l 625 972 l 486 972 z "},"‘":{"ha":417,"x_min":0,"x_max":0,"o":"m 347 833 l 347 972 l 208 972 l 208 833 z m 69 694 l 208 694 l 208 833 l 69 833 z "},"’":{"ha":417,"x_min":0,"x_max":0,"o":"m 347 833 l 347 972 l 208 972 l 208 833 z m 69 694 l 208 694 l 208 833 l 69 833 z "},"«":{"ha":972,"x_min":0,"x_max":0,"o":"m 486 694 l 486 833 l 347 833 l 347 694 z m 69 417 l 208 417 l 208 556 l 69 556 z m 208 278 l 347 278 l 347 417 l 208 417 z m 208 556 l 347 556 l 347 694 l 208 694 z m 347 139 l 486 139 l 486 278 l 347 278 z m 486 417 l 625 417 l 625 556 l 486 556 z m 625 278 l 764 278 l 764 417 l 625 417 z m 625 556 l 764 556 l 764 694 l 625 694 z m 764 139 l 903 139 l 903 278 l 764 278 z m 764 694 l 903 694 l 903 833 l 764 833 z "},"»":{"ha":972,"x_min":0,"x_max":0,"o":"m 208 694 l 208 833 l 69 833 l 69 694 z m 69 139 l 208 139 l 208 278 l 69 278 z m 208 278 l 347 278 l 347 417 l 208 417 z m 208 556 l 347 556 l 347 694 l 208 694 z m 347 417 l 486 417 l 486 556 l 347 556 z m 486 139 l 625 139 l 625 278 l 486 278 z m 486 694 l 625 694 l 625 833 l 486 833 z m 625 278 l 764 278 l 764 417 l 625 417 z m 625 556 l 764 556 l 764 694 l 625 694 z m 764 417 l 903 417 l 903 556 l 764 556 z "},"‹":{"ha":556,"x_min":0,"x_max":0,"o":"m 486 694 l 486 833 l 347 833 l 347 694 z m 69 417 l 208 417 l 208 556 l 69 556 z m 208 278 l 347 278 l 347 417 l 208 417 z m 208 556 l 347 556 l 347 694 l 208 694 z m 347 139 l 486 139 l 486 278 l 347 278 z "},"›":{"ha":556,"x_min":0,"x_max":0,"o":"m 208 694 l 208 833 l 69 833 l 69 694 z m 69 139 l 208 139 l 208 278 l 69 278 z m 208 278 l 347 278 l 347 417 l 208 417 z m 208 556 l 347 556 l 347 694 l 208 694 z m 347 417 l 486 417 l 486 556 l 347 556 z "},"\"":{"ha":556,"x_min":0,"x_max":0,"o":"m 208 694 l 208 972 l 69 972 l 69 694 z m 347 694 l 486 694 l 486 972 l 347 972 z "},"'":{"ha":278,"x_min":0,"x_max":0,"o":"m 208 694 l 208 972 l 69 972 l 69 694 z "},"¢":{"ha":819,"x_min":0,"x_max":0,"o":"m 208 139 l 208 557 l 69 557 l 69 139 z m 208 0 l 375 0 l 375 -139 l 514 -139 l 514 0 l 764 0 l 764 139 l 514 139 l 514 556 l 764 556 l 764 694 l 514 694 l 514 833 l 375 833 l 375 696 l 208 696 l 208 557 l 375 557 l 375 139 l 208 139 z "},"¤":{"ha":694,"x_min":0,"x_max":0,"o":"m 208 625 l 208 764 l 69 764 l 69 625 z m 69 208 l 208 208 l 208 347 l 69 347 z m 208 347 l 486 347 l 486 625 l 208 625 z m 308 444 l 308 525 l 389 525 l 389 444 z m 486 208 l 625 208 l 625 347 l 486 347 z m 486 625 l 625 625 l 625 764 l 486 764 z "},"$":{"ha":889,"x_min":0,"x_max":0,"o":"m 97 139 l 97 0 l 375 0 l 375 -139 l 514 -139 l 514 0 l 653 0 l 653 139 l 514 139 l 514 417 l 653 417 l 653 556 l 514 556 l 514 833 l 792 833 l 792 972 l 514 972 l 514 1111 l 375 1111 l 375 972 l 236 972 l 236 833 l 375 833 l 375 556 l 236 556 l 236 417 l 375 417 l 375 139 z m 97 556 l 236 556 l 236 833 l 97 833 z m 653 139 l 792 139 l 792 417 l 653 417 z "},"€":{"ha":972,"x_min":0,"x_max":0,"o":"m 833 833 l 833 972 l 417 972 l 417 833 z m 139 278 l 278 278 l 278 139 l 417 139 l 417 278 l 694 278 l 694 417 l 417 417 l 417 556 l 694 556 l 694 694 l 417 694 l 417 833 l 278 833 l 278 693 l 139 693 l 139 556 l 278 556 l 278 415 l 139 415 z m 417 0 l 833 0 l 833 139 l 417 139 z "},"£":{"ha":972,"x_min":0,"x_max":0,"o":"m 833 833 l 833 972 l 417 972 l 417 833 z m 139 -1 l 833 0 l 833 139 l 278 138 l 278 276 l 139 276 z m 139 556 l 278 556 l 278 276 l 417 276 l 417 556 l 694 556 l 694 694 l 417 694 l 417 833 l 278 833 l 278 693 l 139 693 z "},"¥":{"ha":972,"x_min":0,"x_max":0,"o":"m 278 694 l 278 972 l 139 972 l 139 694 z m 208 139 l 417 139 l 417 0 l 556 0 l 556 139 l 764 139 l 764 278 l 556 278 l 556 417 l 764 417 l 764 556 l 694 556 l 694 694 l 556 694 l 556 556 l 417 556 l 417 694 l 278 694 l 278 556 l 208 556 l 208 417 l 417 417 l 417 276 l 208 276 z m 694 694 l 833 694 l 833 972 l 694 972 z "},"+":{"ha":833,"x_min":0,"x_max":0,"o":"m 139 488 l 139 349 l 347 349 l 347 140 l 486 140 l 486 349 l 694 349 l 694 488 l 486 488 l 486 696 l 347 696 l 347 488 z "},"−":{"ha":833,"x_min":0,"x_max":0,"o":"m 694 349 l 694 488 l 139 488 l 139 349 z "},"×":{"ha":694,"x_min":0,"x_max":0,"o":"m 278 486 l 278 625 l 139 625 l 139 486 z m 139 208 l 278 208 l 278 347 l 139 347 z m 278 347 l 417 347 l 417 486 l 278 486 z m 417 208 l 556 208 l 556 347 l 417 347 z m 417 486 l 556 486 l 556 625 l 417 625 z "},"÷":{"ha":833,"x_min":0,"x_max":0,"o":"m 486 626 l 486 765 l 347 765 l 347 626 z m 139 349 l 694 349 l 694 488 l 139 488 z m 347 71 l 486 71 l 486 210 l 347 210 z "},"=":{"ha":833,"x_min":0,"x_max":0,"o":"m 694 488 l 694 626 l 139 626 l 139 488 z m 139 210 l 694 210 l 694 349 l 139 349 z "},"≠":{"ha":833,"x_min":0,"x_max":0,"o":"m 139 349 l 139 210 l 208 210 l 208 71 l 347 71 l 347 210 l 694 210 l 694 349 l 486 349 l 486 488 l 694 488 l 694 626 l 625 626 l 625 765 l 486 765 l 486 626 l 139 626 l 139 488 l 347 488 l 347 349 z "},">":{"ha":556,"x_min":0,"x_max":0,"o":"m 210 626 l 210 765 l 71 765 l 71 626 z m 71 71 l 210 71 l 210 210 l 71 210 z m 210 210 l 349 210 l 349 349 l 210 349 z m 210 488 l 349 488 l 349 626 l 210 626 z m 349 349 l 488 349 l 488 488 l 349 488 z "},"<":{"ha":556,"x_min":0,"x_max":0,"o":"m 486 625 l 486 764 l 347 764 l 347 625 z m 69 347 l 208 347 l 208 486 l 69 486 z m 208 208 l 347 208 l 347 347 l 208 347 z m 208 486 l 347 486 l 347 625 l 208 625 z m 347 69 l 486 69 l 486 208 l 347 208 z "},"≥":{"ha":694,"x_min":0,"x_max":0,"o":"m 278 751 l 278 890 l 139 890 l 139 751 z m 69 1 l 625 1 l 625 140 l 69 140 z m 139 196 l 278 196 l 278 335 l 139 335 z m 278 335 l 417 335 l 417 474 l 278 474 z m 278 613 l 417 613 l 417 751 l 278 751 z m 417 474 l 556 474 l 556 613 l 417 613 z "},"≤":{"ha":694,"x_min":0,"x_max":0,"o":"m 556 751 l 556 890 l 417 890 l 417 751 z m 69 1 l 625 1 l 625 140 l 69 140 z m 139 474 l 278 474 l 278 613 l 139 613 z m 278 335 l 417 335 l 417 474 l 278 474 z m 278 613 l 417 613 l 417 751 l 278 751 z m 417 196 l 556 196 l 556 335 l 417 335 z "},"±":{"ha":694,"x_min":0,"x_max":0,"o":"m 69 626 l 69 488 l 278 488 l 278 349 l 417 349 l 417 488 l 625 488 l 625 626 l 417 626 l 417 765 l 278 765 l 278 626 z m 69 140 l 625 140 l 625 279 l 69 279 z "},"≈":{"ha":972,"x_min":0,"x_max":0,"o":"m 486 625 l 486 764 l 208 764 l 208 625 z m 69 139 l 208 139 l 208 278 l 69 278 z m 69 486 l 208 486 l 208 625 l 69 625 z m 208 278 l 486 278 l 486 417 l 208 417 z m 486 139 l 764 139 l 764 278 l 486 278 z m 486 486 l 764 486 l 764 625 l 486 625 z m 764 278 l 903 278 l 903 417 l 764 417 z m 764 625 l 903 625 l 903 764 l 764 764 z "},"~":{"ha":972,"x_min":0,"x_max":0,"o":"m 486 417 l 486 556 l 208 556 l 208 417 z m 69 278 l 208 278 l 208 417 l 69 417 z m 486 278 l 764 278 l 764 417 l 486 417 z m 764 417 l 903 417 l 903 556 l 764 556 z "},"¬":{"ha":694,"x_min":0,"x_max":0,"o":"m 69 556 l 69 417 l 486 417 l 486 278 l 625 278 l 625 556 z "},"^":{"ha":833,"x_min":0,"x_max":0,"o":"m 486 833 l 486 972 l 347 972 l 347 833 z m 69 556 l 208 556 l 208 694 l 69 694 z m 208 694 l 347 694 l 347 833 l 208 833 z m 486 694 l 625 694 l 625 833 l 486 833 z m 625 556 l 764 556 l 764 694 l 625 694 z "},"∅":{"ha":833,"x_min":0,"x_max":0,"o":"m 69 694 l 69 278 l 208 278 l 208 694 z m 208 0 l 347 0 l 347 139 l 625 139 l 625 278 l 486 278 l 486 694 l 625 694 l 625 972 l 486 972 l 486 833 l 208 833 l 208 694 l 347 694 l 347 278 l 208 278 z m 625 278 l 764 278 l 764 694 l 625 694 z "},"∞":{"ha":1111,"x_min":0,"x_max":0,"o":"m 486 556 l 486 694 l 208 694 l 208 556 z m 69 417 l 208 417 l 208 556 l 69 556 z m 208 278 l 486 278 l 486 417 l 208 417 z m 486 417 l 625 417 l 625 556 l 486 556 z m 625 278 l 903 278 l 903 417 l 625 417 z m 625 556 l 903 556 l 903 694 l 625 694 z m 903 417 l 1042 417 l 1042 556 l 903 556 z "},"∫":{"ha":833,"x_min":0,"x_max":0,"o":"m 278 139 l 278 -139 l 139 -139 l 139 -278 l 417 -278 l 417 139 l 486 139 l 486 556 l 556 556 l 556 833 l 694 833 l 694 972 l 417 972 l 417 556 l 347 556 l 347 139 z "},"∏":{"ha":972,"x_min":0,"x_max":0,"o":"m 139 972 l 139 833 l 278 833 l 278 -278 l 417 -278 l 417 833 l 556 833 l 556 -278 l 694 -278 l 694 833 l 833 833 l 833 972 z "},"∑":{"ha":972,"x_min":0,"x_max":0,"o":"m 833 833 l 833 972 l 139 972 l 139 694 l 278 694 l 278 833 z m 139 -278 l 833 -278 l 833 -139 l 278 -139 l 278 0 l 139 0 z m 278 0 l 417 0 l 417 139 l 278 139 z m 278 556 l 417 556 l 417 694 l 278 694 z m 417 139 l 556 139 l 556 278 l 417 278 z m 417 417 l 556 417 l 556 556 l 417 556 z m 556 278 l 694 278 l 694 417 l 556 417 z "},"√":{"ha":903,"x_min":0,"x_max":0,"o":"m 139 278 l 139 0 l 208 0 l 208 -278 l 347 -278 l 347 0 l 417 0 l 417 278 l 486 278 l 486 556 l 556 556 l 556 833 l 833 833 l 833 972 l 417 972 l 417 556 l 347 556 l 347 278 l 306 278 l 306 0 l 250 0 l 250 278 l 208 278 l 208 556 l 69 556 l 69 278 z "},"∂":{"ha":972,"x_min":0,"x_max":0,"o":"m 694 833 l 694 972 l 278 972 l 278 833 z m 139 139 l 278 139 l 278 556 l 139 556 z m 278 0 l 694 0 l 694 139 l 278 139 z m 278 556 l 556 556 l 556 694 l 278 694 z m 556 417 l 694 417 l 694 139 l 833 139 l 833 833 l 694 833 l 694 556 l 556 556 z "},"%":{"ha":972,"x_min":0,"x_max":0,"o":"m 417 694 l 417 972 l 139 972 l 139 694 z m 139 0 l 278 0 l 278 278 l 139 278 z m 239 792 l 239 872 l 319 872 l 319 792 z m 278 278 l 417 278 l 417 417 l 278 417 z m 417 417 l 556 417 l 556 556 l 417 556 z m 556 0 l 833 0 l 833 278 l 556 278 z m 556 556 l 694 556 l 694 694 l 556 694 z m 656 97 l 656 178 l 736 178 l 736 97 z m 694 694 l 833 694 l 833 972 l 694 972 z "},"‰":{"ha":1389,"x_min":0,"x_max":0,"o":"m 417 694 l 417 972 l 139 972 l 139 694 z m 139 0 l 278 0 l 278 278 l 139 278 z m 239 792 l 239 872 l 319 872 l 319 792 z m 278 278 l 417 278 l 417 417 l 278 417 z m 417 417 l 556 417 l 556 556 l 417 556 z m 556 0 l 833 0 l 833 278 l 556 278 z m 556 556 l 694 556 l 694 694 l 556 694 z m 656 97 l 656 178 l 736 178 l 736 97 z m 694 694 l 833 694 l 833 972 l 694 972 z m 972 0 l 1250 0 l 1250 278 l 972 278 z m 1072 97 l 1072 178 l 1153 178 l 1153 97 z "},"↑":{"ha":972,"x_min":0,"x_max":0,"o":"m 278 556 l 278 694 l 139 694 l 139 556 z m 278 694 l 417 694 l 417 0 l 556 0 l 556 694 l 694 694 l 694 833 l 556 833 l 556 972 l 417 972 l 417 833 l 278 833 z m 694 556 l 833 556 l 833 694 l 694 694 z "},"↗":{"ha":833,"x_min":0,"x_max":0,"o":"m 486 556 l 486 694 l 347 694 l 347 556 z m 69 278 l 208 278 l 208 417 l 69 417 z m 208 417 l 347 417 l 347 556 l 208 556 z m 347 833 l 486 833 l 486 694 l 625 694 l 625 556 l 764 556 l 764 972 l 347 972 z "},"→":{"ha":1250,"x_min":0,"x_max":0,"o":"m 833 625 l 833 764 l 694 764 l 694 625 z m 139 347 l 833 347 l 833 208 l 972 208 l 972 347 l 1111 347 l 1111 486 l 972 486 l 972 625 l 833 625 l 833 486 l 139 486 z m 694 69 l 833 69 l 833 208 l 694 208 z "},"↘":{"ha":972,"x_min":0,"x_max":0,"o":"m 278 556 l 278 694 l 139 694 l 139 556 z m 278 417 l 417 417 l 417 556 l 278 556 z m 417 0 l 833 0 l 833 417 l 694 417 l 694 278 l 556 278 l 556 139 l 417 139 z m 417 278 l 556 278 l 556 417 l 417 417 z "},"↓":{"ha":972,"x_min":0,"x_max":0,"o":"m 347 278 l 347 417 l 208 417 l 208 278 z m 347 139 l 486 139 l 486 0 l 625 0 l 625 139 l 764 139 l 764 278 l 625 278 l 625 972 l 486 972 l 486 278 l 347 278 z m 764 278 l 903 278 l 903 417 l 764 417 z "},"↙":{"ha":972,"x_min":0,"x_max":0,"o":"m 833 556 l 833 694 l 694 694 l 694 556 z m 139 0 l 556 0 l 556 139 l 417 139 l 417 278 l 278 278 l 278 417 l 139 417 z m 417 278 l 556 278 l 556 417 l 417 417 z m 556 417 l 694 417 l 694 556 l 556 556 z "},"←":{"ha":1250,"x_min":0,"x_max":0,"o":"m 556 764 l 556 903 l 417 903 l 417 764 z m 139 486 l 278 486 l 278 347 l 417 347 l 417 486 l 1111 486 l 1111 625 l 417 625 l 417 764 l 278 764 l 278 625 l 139 625 z m 417 208 l 556 208 l 556 347 l 417 347 z "},"↖":{"ha":972,"x_min":0,"x_max":0,"o":"m 556 833 l 556 972 l 139 972 l 139 556 l 278 556 l 278 694 l 417 694 l 417 833 z m 417 556 l 556 556 l 556 694 l 417 694 z m 556 417 l 694 417 l 694 556 l 556 556 z m 694 278 l 833 278 l 833 417 l 694 417 z "},"↔":{"ha":1251,"x_min":0,"x_max":0,"o":"m 536 626 l 536 765 l 397 765 l 397 626 z m 119 349 l 258 349 l 258 210 l 397 210 l 397 349 l 835 349 l 835 210 l 974 210 l 974 349 l 1113 349 l 1113 488 l 974 488 l 974 626 l 835 626 l 835 488 l 397 488 l 397 626 l 258 626 l 258 488 l 119 488 z m 397 71 l 536 71 l 536 210 l 397 210 z m 696 71 l 835 71 l 835 210 l 696 210 z m 696 626 l 835 626 l 835 765 l 696 765 z "},"↕":{"ha":972,"x_min":0,"x_max":0,"o":"m 279 208 l 279 347 l 140 347 l 140 208 z m 140 507 l 279 507 l 279 646 l 140 646 z m 279 69 l 418 69 l 418 -69 l 557 -69 l 557 69 l 696 69 l 696 208 l 557 208 l 557 646 l 696 646 l 696 785 l 557 785 l 557 924 l 418 924 l 418 785 l 279 785 l 279 646 l 418 646 l 418 208 l 279 208 z m 696 208 l 835 208 l 835 347 l 696 347 z m 696 507 l 835 507 l 835 646 l 696 646 z "},"◊":{"ha":972,"x_min":0,"x_max":0,"o":"m 556 626 l 556 765 l 417 765 l 417 626 z m 139 349 l 278 349 l 278 488 l 139 488 z m 278 210 l 417 210 l 417 349 l 278 349 z m 278 488 l 417 488 l 417 626 l 278 626 z m 417 71 l 556 71 l 556 210 l 417 210 z m 556 210 l 694 210 l 694 349 l 556 349 z m 556 488 l 694 488 l 694 626 l 556 626 z m 694 349 l 833 349 l 833 488 l 694 488 z "},"@":{"ha":1389,"x_min":0,"x_max":0,"o":"m 972 835 l 972 974 l 417 974 l 417 835 z m 139 139 l 278 139 l 278 694 l 139 694 z m 278 0 l 417 0 l 417 139 l 278 139 z m 278 694 l 417 694 l 417 833 l 278 833 z m 417 -139 l 833 -139 l 833 0 l 417 0 z m 417 278 l 556 278 l 556 557 l 417 557 z m 556 139 l 694 139 l 694 278 l 556 278 z m 556 557 l 833 557 l 833 696 l 556 696 z m 694 278 l 833 278 l 833 139 l 972 139 l 972 557 l 833 557 l 833 417 l 694 417 z m 972 0 l 1111 0 l 1111 139 l 972 139 z m 972 694 l 1111 694 l 1111 833 l 972 833 z m 1111 139 l 1250 139 l 1250 694 l 1111 694 z "},"&":{"ha":1111,"x_min":0,"x_max":0,"o":"m 556 833 l 556 972 l 417 972 l 417 833 z m 139 139 l 278 139 l 278 417 l 139 417 z m 278 0 l 694 0 l 694 139 l 278 139 z m 278 417 l 417 417 l 417 556 l 278 556 z m 278 694 l 417 694 l 417 833 l 278 833 z m 417 556 l 556 556 l 556 694 l 417 694 z m 556 278 l 694 278 l 694 556 l 556 556 z m 556 694 l 694 694 l 694 833 l 556 833 z m 694 139 l 833 139 l 833 278 l 694 278 z m 833 0 l 972 0 l 972 139 l 833 139 z m 833 278 l 972 278 l 972 417 l 833 417 z "},"¶":{"ha":833,"x_min":0,"x_max":0,"o":"m 139 972 l 139 417 l 278 417 l 278 -278 l 417 -278 l 417 833 l 556 833 l 556 -278 l 694 -278 l 694 972 z "},"§":{"ha":972,"x_min":0,"x_max":0,"o":"m 833 833 l 833 972 l 278 972 l 278 833 z m 139 -139 l 694 -139 l 694 0 l 139 0 z m 139 278 l 278 278 l 278 556 l 139 556 z m 139 694 l 278 694 l 278 833 l 139 833 z m 278 139 l 694 139 l 694 278 l 278 278 z m 278 556 l 694 556 l 694 694 l 278 694 z m 694 0 l 833 0 l 833 139 l 694 139 z m 694 278 l 833 278 l 833 556 l 694 556 z "},"©":{"ha":1389,"x_min":0,"x_max":0,"o":"m 972 835 l 972 974 l 417 974 l 417 835 z m 139 139 l 278 139 l 278 694 l 139 694 z m 278 0 l 417 0 l 417 139 l 278 139 z m 278 694 l 417 694 l 417 833 l 278 833 z m 417 -139 l 972 -139 l 972 0 l 417 0 z m 444 278 l 583 278 l 583 557 l 444 557 z m 583 139 l 861 139 l 861 278 l 583 278 z m 583 557 l 861 557 l 861 696 l 583 696 z m 972 0 l 1111 0 l 1111 139 l 972 139 z m 972 694 l 1111 694 l 1111 833 l 972 833 z m 1111 139 l 1250 139 l 1250 694 l 1111 694 z "},"®":{"ha":1250,"x_min":0,"x_max":0,"o":"m 972 835 l 972 974 l 278 974 l 278 835 z m 139 139 l 278 139 l 278 833 l 139 833 z m 278 0 l 972 0 l 972 139 l 278 139 z m 417 250 l 556 250 l 556 417 l 694 417 l 694 486 l 556 486 l 556 653 l 694 653 l 694 722 l 417 722 z m 694 250 l 833 250 l 833 417 l 694 417 z m 694 486 l 833 486 l 833 653 l 694 653 z m 972 139 l 1111 139 l 1111 833 l 972 833 z "},"™":{"ha":1319,"x_min":0,"x_max":0,"o":"m 69 972 l 69 833 l 208 833 l 208 486 l 347 486 l 347 833 l 486 833 l 486 972 z m 625 486 l 764 486 l 764 833 l 833 833 l 833 972 l 625 972 z m 833 694 l 868 694 l 868 556 l 1007 556 l 1007 694 l 1042 694 l 1042 833 l 972 833 l 972 694 l 903 694 l 903 833 l 833 833 z m 1042 833 l 1111 833 l 1111 486 l 1250 486 l 1250 972 l 1042 972 z "},"°":{"ha":417,"x_min":0,"x_max":0,"o":"m 347 697 l 347 972 l 72 972 l 72 697 z m 169 794 l 169 875 l 250 875 l 250 794 z "},"|":{"ha":417,"x_min":0,"x_max":0,"o":"m 278 -278 l 278 972 l 139 972 l 139 -278 z "},"¦":{"ha":425,"x_min":0,"x_max":0,"o":"m 278 418 l 278 974 l 139 974 l 139 418 z m 139 -276 l 278 -276 l 278 279 l 139 279 z "},"†":{"ha":694,"x_min":0,"x_max":0,"o":"m 139 833 l 139 694 l 278 694 l 278 0 l 417 0 l 417 694 l 556 694 l 556 833 l 417 833 l 417 972 l 278 972 l 278 833 z "},"‡":{"ha":694,"x_min":0,"x_max":0,"o":"m 139 556 l 139 417 l 278 417 l 278 278 l 417 278 l 417 417 l 556 417 l 556 556 l 417 556 l 417 694 l 556 694 l 556 833 l 417 833 l 417 972 l 278 972 l 278 833 l 139 833 l 139 694 l 278 694 l 278 556 z "},"ʼ":{"ha":417,"x_min":0,"x_max":0,"o":"m 347 833 l 347 972 l 208 972 l 208 833 z m 69 694 l 208 694 l 208 833 l 69 833 z "},"̈":{"ha":0,"x_min":0,"x_max":0,"o":"m -347 903 l -347 1042 l -486 1042 l -486 903 z m -208 903 l -69 903 l -69 1042 l -208 1042 z "},"̇":{"ha":0,"x_min":0,"x_max":0,"o":"m -69 851 l -69 990 l -208 990 l -208 851 z "},"̀":{"ha":0,"x_min":0,"x_max":0,"o":"m -208 1042 l -208 1181 l -347 1181 l -347 1042 z m -208 903 l -69 903 l -69 1042 l -208 1042 z "},"́":{"ha":0,"x_min":0,"x_max":0,"o":"m -69 953 l -69 1092 l -208 1092 l -208 953 z m -347 814 l -208 814 l -208 953 l -347 953 z "},"̋":{"ha":0,"x_min":0,"x_max":0,"o":"m -347 1042 l -347 1181 l -486 1181 l -486 1042 z m -625 903 l -486 903 l -486 1042 l -625 1042 z m -347 903 l -208 903 l -208 1042 l -347 1042 z m -208 1042 l -69 1042 l -69 1181 l -208 1181 z "},"̂":{"ha":0,"x_min":0,"x_max":0,"o":"m -208 1042 l -208 1181 l -347 1181 l -347 1042 z m -486 903 l -347 903 l -347 1042 l -486 1042 z m -208 903 l -69 903 l -69 1042 l -208 1042 z "},"̌":{"ha":0,"x_min":0,"x_max":0,"o":"m -347 972 l -347 1111 l -486 1111 l -486 972 z m -347 833 l -208 833 l -208 972 l -347 972 z m -208 972 l -69 972 l -69 1111 l -208 1111 z "},"̆":{"ha":0,"x_min":0,"x_max":0,"o":"m -347 1042 l -347 1181 l -486 1181 l -486 1042 z m -347 903 l -208 903 l -208 1042 l -347 1042 z m -208 1042 l -69 1042 l -69 1181 l -208 1181 z "},"̊":{"ha":0,"x_min":0,"x_max":0,"o":"m -69 903 l -69 1181 l -347 1181 l -347 903 z m -247 1000 l -247 1081 l -167 1081 l -167 1000 z "},"̃":{"ha":0,"x_min":0,"x_max":0,"o":"m -347 1042 l -347 1181 l -486 1181 l -486 1042 z m -625 903 l -486 903 l -486 1042 l -625 1042 z m -347 903 l -208 903 l -208 1042 l -347 1042 z m -208 1042 l -69 1042 l -69 1181 l -208 1181 z "},"̄":{"ha":0,"x_min":0,"x_max":0,"o":"m -69 833 l -69 972 l -486 972 l -486 833 z "},"̒":{"ha":0,"x_min":0,"x_max":0,"o":"m -208 1042 l -208 1181 l -347 1181 l -347 1042 z m -208 903 l -69 903 l -69 1042 l -208 1042 z "},"̦":{"ha":0,"x_min":0,"x_max":0,"o":"m -69 -139 l -69 0 l -208 0 l -208 -139 z m -347 -278 l -208 -278 l -208 -139 l -347 -139 z "},"̧":{"ha":0,"x_min":0,"x_max":0,"o":"m -208 -139 l -208 0 l -347 0 l -347 -139 z m -347 -417 l -208 -417 l -208 -278 l -347 -278 z m -208 -278 l -69 -278 l -69 -139 l -208 -139 z "},"̨":{"ha":0,"x_min":0,"x_max":0,"o":"m -69 -139 l -69 0 l -208 0 l -208 -139 z m -347 -278 l -208 -278 l -208 -139 l -347 -139 z m -208 -417 l -69 -417 l -69 -278 l -208 -278 z "},"´":{"ha":417,"x_min":0,"x_max":0,"o":"m 347 833 l 347 972 l 208 972 l 208 833 z m 69 694 l 208 694 l 208 833 l 69 833 z "},"˘":{"ha":556,"x_min":0,"x_max":0,"o":"m 486 833 l 486 972 l 69 972 l 69 833 z "},"ˇ":{"ha":556,"x_min":0,"x_max":0,"o":"m 208 903 l 208 1042 l 69 1042 l 69 903 z m 208 764 l 347 764 l 347 903 l 208 903 z m 347 903 l 486 903 l 486 1042 l 347 1042 z "},"¸":{"ha":417,"x_min":0,"x_max":0,"o":"m 208 -139 l 208 0 l 69 0 l 69 -139 z m 69 -417 l 208 -417 l 208 -278 l 69 -278 z m 208 -278 l 347 -278 l 347 -139 l 208 -139 z "},"ˆ":{"ha":556,"x_min":0,"x_max":0,"o":"m 347 972 l 347 1111 l 208 1111 l 208 972 z m 69 833 l 208 833 l 208 972 l 69 972 z m 347 833 l 486 833 l 486 972 l 347 972 z "},"¨":{"ha":556,"x_min":0,"x_max":0,"o":"m 208 833 l 208 972 l 69 972 l 69 833 z m 347 833 l 486 833 l 486 972 l 347 972 z "},"˙":{"ha":278,"x_min":0,"x_max":0,"o":"m 208 972 l 208 1111 l 69 1111 l 69 972 z "},"`":{"ha":417,"x_min":0,"x_max":0,"o":"m 208 833 l 208 972 l 69 972 l 69 833 z m 208 694 l 347 694 l 347 833 l 208 833 z "},"˝":{"ha":694,"x_min":0,"x_max":0,"o":"m 347 833 l 347 972 l 208 972 l 208 833 z m 69 694 l 208 694 l 208 833 l 69 833 z m 347 694 l 486 694 l 486 833 l 347 833 z m 486 833 l 625 833 l 625 972 l 486 972 z "},"¯":{"ha":556,"x_min":0,"x_max":0,"o":"m 486 833 l 486 972 l 69 972 l 69 833 z "},"˛":{"ha":417,"x_min":0,"x_max":0,"o":"m 347 -139 l 347 0 l 208 0 l 208 -139 z m 69 -278 l 208 -278 l 208 -139 l 69 -139 z m 208 -417 l 347 -417 l 347 -278 l 208 -278 z "},"˚":{"ha":417,"x_min":0,"x_max":0,"o":"m 347 833 l 347 1111 l 69 1111 l 69 833 z m 169 931 l 169 1011 l 250 1011 l 250 931 z "},"˜":{"ha":694,"x_min":0,"x_max":0,"o":"m 347 972 l 347 1111 l 208 1111 l 208 972 z m 69 833 l 208 833 l 208 972 l 69 972 z m 347 833 l 486 833 l 486 972 l 347 972 z m 486 972 l 625 972 l 625 1111 l 486 1111 z "},"⌣":{"ha":1806,"x_min":0,"x_max":0,"o":"m 139 556 l 139 139 l 278 139 l 278 417 l 417 417 l 417 139 l 556 139 l 556 278 l 1250 278 l 1250 139 l 1389 139 l 1389 417 l 1528 417 l 1528 139 l 1667 139 l 1667 556 l 1528 556 l 1528 694 l 1389 694 l 1389 833 l 1528 833 l 1528 972 l 1250 972 l 1250 833 l 556 833 l 556 972 l 278 972 l 278 833 l 417 833 l 417 694 l 278 694 l 278 556 z m 556 0 l 833 0 l 833 139 l 556 139 z m 556 556 l 556 694 l 694 694 l 694 556 z m 972 0 l 1250 0 l 1250 139 l 972 139 z m 1111 556 l 1111 694 l 1250 694 l 1250 556 z "}}}
